M48
; DRILL file {KiCad (5.1.6)-1} date 09/25/20 18:38:27
; FORMAT={3:3/ absolute / metric / suppress leading zeros}
; #@! TF.CreationDate,2020-09-25T18:38:27+02:00
; #@! TF.GenerationSoftware,Kicad,Pcbnew,(5.1.6)-1
FMAT,2
METRIC,TZ
T1C0.400
T2C0.500
T3C0.600
T4C1.000
T5C1.100
T6C1.200
T7C4.300
T8C0.900
T9C1.152
%
G90
G05
T1
X35875Y-49750
X35875Y-54250
X36375Y-62100
X37275Y-64000
X39000Y-65725
X39025Y-67275
X39750Y-58000
X40625Y-59900
X41000Y-63525
X41475Y-58025
X41500Y-67575
X41550Y-55000
X42250Y-59750
X42250Y-63525
X44000Y-54075
X45775Y-70500
X46000Y-54225
X47025Y-53250
X47725Y-55000
X48250Y-70500
X51725Y-53250
X52550Y-58950
X53500Y-51000
X54675Y-69600
X55650Y-58050
X56225Y-70750
X56250Y-55750
X56975Y-69000
X58050Y-56575
X59700Y-37400
X61775Y-73375
X61775Y-74575
X62250Y-37400
X62425Y-77250
X62425Y-80000
X63500Y-37400
X64600Y-77250
X64600Y-80000
X64800Y-37350
X65200Y-73375
X65200Y-74575
X67375Y-76375
X67375Y-78075
X67375Y-79175
X67375Y-80875
X67700Y-66675
X67700Y-67850
X70100Y-39250
X70125Y-41450
X70500Y-72400
X70500Y-74300
X70500Y-75300
X72225Y-68025
X72550Y-75075
X73500Y-75975
X74375Y-68000
X75250Y-69275
X75450Y-62850
X75450Y-64650
X76025Y-50425
X76175Y-70175
X77000Y-72600
X77925Y-73500
X79350Y-49650
X79350Y-50950
X80600Y-49650
X80600Y-50950
T2
X47500Y-81000
X48750Y-81000
X50000Y-81000
X51250Y-81000
X47500Y-41000
X48750Y-41000
X50000Y-41000
X51250Y-41000
T3
X33025Y-41000
X33970Y-38720
X33970Y-43280
X36250Y-37775
X36250Y-44225
X38530Y-38720
X38530Y-43280
X39475Y-41000
X78025Y-81000
X78970Y-78720
X78970Y-83280
X81250Y-77775
X81250Y-84225
X83530Y-78720
X83530Y-83280
X84475Y-81000
X78025Y-41000
X78970Y-38720
X78970Y-43280
X81250Y-37775
X81250Y-44225
X83530Y-38720
X83530Y-43280
X84475Y-41000
X33025Y-81000
X33970Y-78720
X33970Y-83280
X36250Y-77775
X36250Y-84225
X38530Y-78720
X38530Y-83280
X39475Y-81000
T6
X81250Y-67000
X81250Y-70500
T7
X36250Y-41000
X81250Y-81000
X81250Y-41000
X36250Y-81000
T8
X32920Y-50500
X32920Y-53500
T9
X75250Y-41000
X42500Y-41000
X75250Y-81000
T4
G00X84700Y-55550
M15
G01X84450Y-55550
M16
G05
T5
G00X84650Y-48950
M15
G01X84500Y-48950
M16
G05
T0
M30
