%TF.GenerationSoftware,KiCad,Pcbnew,(5.1.6)-1*%
%TF.CreationDate,2020-09-25T18:38:39+02:00*%
%TF.ProjectId,STM32F4_REV2,53544d33-3246-4345-9f52-4556322e6b69,rev?*%
%TF.SameCoordinates,Original*%
%TF.FileFunction,Legend,Top*%
%TF.FilePolarity,Positive*%
%FSLAX46Y46*%
G04 Gerber Fmt 4.6, Leading zero omitted, Abs format (unit mm)*
G04 Created by KiCad (PCBNEW (5.1.6)-1) date 2020-09-25 18:38:39*
%MOMM*%
%LPD*%
G01*
G04 APERTURE LIST*
%ADD10C,0.150000*%
%ADD11C,0.100000*%
%ADD12C,0.120000*%
%ADD13C,0.010000*%
G04 APERTURE END LIST*
D10*
X45892857Y-62357142D02*
X45892857Y-63000000D01*
X45850000Y-63128571D01*
X45764285Y-63214285D01*
X45635714Y-63257142D01*
X45550000Y-63257142D01*
X46750000Y-63257142D02*
X46321428Y-63257142D01*
X46321428Y-62357142D01*
X47564285Y-63171428D02*
X47521428Y-63214285D01*
X47392857Y-63257142D01*
X47307142Y-63257142D01*
X47178571Y-63214285D01*
X47092857Y-63128571D01*
X47050000Y-63042857D01*
X47007142Y-62871428D01*
X47007142Y-62742857D01*
X47050000Y-62571428D01*
X47092857Y-62485714D01*
X47178571Y-62400000D01*
X47307142Y-62357142D01*
X47392857Y-62357142D01*
X47521428Y-62400000D01*
X47564285Y-62442857D01*
X48207142Y-62357142D02*
X48207142Y-63000000D01*
X48164285Y-63128571D01*
X48078571Y-63214285D01*
X47950000Y-63257142D01*
X47864285Y-63257142D01*
X49064285Y-63257142D02*
X48635714Y-63257142D01*
X48635714Y-62357142D01*
X49878571Y-63171428D02*
X49835714Y-63214285D01*
X49707142Y-63257142D01*
X49621428Y-63257142D01*
X49492857Y-63214285D01*
X49407142Y-63128571D01*
X49364285Y-63042857D01*
X49321428Y-62871428D01*
X49321428Y-62742857D01*
X49364285Y-62571428D01*
X49407142Y-62485714D01*
X49492857Y-62400000D01*
X49621428Y-62357142D01*
X49707142Y-62357142D01*
X49835714Y-62400000D01*
X49878571Y-62442857D01*
X50521428Y-62357142D02*
X50521428Y-63000000D01*
X50478571Y-63128571D01*
X50392857Y-63214285D01*
X50264285Y-63257142D01*
X50178571Y-63257142D01*
X51378571Y-63257142D02*
X50950000Y-63257142D01*
X50950000Y-62357142D01*
X52192857Y-63171428D02*
X52150000Y-63214285D01*
X52021428Y-63257142D01*
X51935714Y-63257142D01*
X51807142Y-63214285D01*
X51721428Y-63128571D01*
X51678571Y-63042857D01*
X51635714Y-62871428D01*
X51635714Y-62742857D01*
X51678571Y-62571428D01*
X51721428Y-62485714D01*
X51807142Y-62400000D01*
X51935714Y-62357142D01*
X52021428Y-62357142D01*
X52150000Y-62400000D01*
X52192857Y-62442857D01*
X52835714Y-62357142D02*
X52835714Y-63000000D01*
X52792857Y-63128571D01*
X52707142Y-63214285D01*
X52578571Y-63257142D01*
X52492857Y-63257142D01*
X53692857Y-63257142D02*
X53264285Y-63257142D01*
X53264285Y-62357142D01*
X54507142Y-63171428D02*
X54464285Y-63214285D01*
X54335714Y-63257142D01*
X54250000Y-63257142D01*
X54121428Y-63214285D01*
X54035714Y-63128571D01*
X53992857Y-63042857D01*
X53950000Y-62871428D01*
X53950000Y-62742857D01*
X53992857Y-62571428D01*
X54035714Y-62485714D01*
X54121428Y-62400000D01*
X54250000Y-62357142D01*
X54335714Y-62357142D01*
X54464285Y-62400000D01*
X54507142Y-62442857D01*
X54373809Y-85473809D02*
X54516666Y-85511904D01*
X54754761Y-85511904D01*
X54849999Y-85473809D01*
X54897619Y-85435714D01*
X54945238Y-85359523D01*
X54945238Y-85283333D01*
X54897619Y-85207142D01*
X54849999Y-85169047D01*
X54754761Y-85130952D01*
X54564285Y-85092857D01*
X54469047Y-85054761D01*
X54421428Y-85016666D01*
X54373809Y-84940476D01*
X54373809Y-84864285D01*
X54421428Y-84788095D01*
X54469047Y-84750000D01*
X54564285Y-84711904D01*
X54802380Y-84711904D01*
X54945238Y-84750000D01*
X55230952Y-84711904D02*
X55802380Y-84711904D01*
X55516666Y-85511904D02*
X55516666Y-84711904D01*
X56135714Y-85511904D02*
X56135714Y-84711904D01*
X56469047Y-85283333D01*
X56802380Y-84711904D01*
X56802380Y-85511904D01*
X57183333Y-84711904D02*
X57802380Y-84711904D01*
X57469047Y-85016666D01*
X57611904Y-85016666D01*
X57707142Y-85054761D01*
X57754761Y-85092857D01*
X57802380Y-85169047D01*
X57802380Y-85359523D01*
X57754761Y-85435714D01*
X57707142Y-85473809D01*
X57611904Y-85511904D01*
X57326190Y-85511904D01*
X57230952Y-85473809D01*
X57183333Y-85435714D01*
X58183333Y-84788095D02*
X58230952Y-84750000D01*
X58326190Y-84711904D01*
X58564285Y-84711904D01*
X58659523Y-84750000D01*
X58707142Y-84788095D01*
X58754761Y-84864285D01*
X58754761Y-84940476D01*
X58707142Y-85054761D01*
X58135714Y-85511904D01*
X58754761Y-85511904D01*
X59516666Y-85092857D02*
X59183333Y-85092857D01*
X59183333Y-85511904D02*
X59183333Y-84711904D01*
X59659523Y-84711904D01*
X60469047Y-84978571D02*
X60469047Y-85511904D01*
X60230952Y-84673809D02*
X59992857Y-85245238D01*
X60611904Y-85245238D01*
X61611904Y-84711904D02*
X62183333Y-84711904D01*
X61897619Y-85511904D02*
X61897619Y-84711904D01*
X62516666Y-85092857D02*
X62849999Y-85092857D01*
X62992857Y-85511904D02*
X62516666Y-85511904D01*
X62516666Y-84711904D01*
X62992857Y-84711904D01*
X63373809Y-85473809D02*
X63516666Y-85511904D01*
X63754761Y-85511904D01*
X63849999Y-85473809D01*
X63897619Y-85435714D01*
X63945238Y-85359523D01*
X63945238Y-85283333D01*
X63897619Y-85207142D01*
X63849999Y-85169047D01*
X63754761Y-85130952D01*
X63564285Y-85092857D01*
X63469047Y-85054761D01*
X63421428Y-85016666D01*
X63373809Y-84940476D01*
X63373809Y-84864285D01*
X63421428Y-84788095D01*
X63469047Y-84750000D01*
X63564285Y-84711904D01*
X63802380Y-84711904D01*
X63945238Y-84750000D01*
X64230952Y-84711904D02*
X64802380Y-84711904D01*
X64516666Y-85511904D02*
X64516666Y-84711904D01*
X66230952Y-85092857D02*
X66373809Y-85130952D01*
X66421428Y-85169047D01*
X66469047Y-85245238D01*
X66469047Y-85359523D01*
X66421428Y-85435714D01*
X66373809Y-85473809D01*
X66278571Y-85511904D01*
X65897619Y-85511904D01*
X65897619Y-84711904D01*
X66230952Y-84711904D01*
X66326190Y-84750000D01*
X66373809Y-84788095D01*
X66421428Y-84864285D01*
X66421428Y-84940476D01*
X66373809Y-85016666D01*
X66326190Y-85054761D01*
X66230952Y-85092857D01*
X65897619Y-85092857D01*
X67088095Y-84711904D02*
X67278571Y-84711904D01*
X67373809Y-84750000D01*
X67469047Y-84826190D01*
X67516666Y-84978571D01*
X67516666Y-85245238D01*
X67469047Y-85397619D01*
X67373809Y-85473809D01*
X67278571Y-85511904D01*
X67088095Y-85511904D01*
X66992857Y-85473809D01*
X66897619Y-85397619D01*
X66849999Y-85245238D01*
X66849999Y-84978571D01*
X66897619Y-84826190D01*
X66992857Y-84750000D01*
X67088095Y-84711904D01*
X67897619Y-85283333D02*
X68373809Y-85283333D01*
X67802380Y-85511904D02*
X68135714Y-84711904D01*
X68469047Y-85511904D01*
X69373809Y-85511904D02*
X69040476Y-85130952D01*
X68802380Y-85511904D02*
X68802380Y-84711904D01*
X69183333Y-84711904D01*
X69278571Y-84750000D01*
X69326190Y-84788095D01*
X69373809Y-84864285D01*
X69373809Y-84978571D01*
X69326190Y-85054761D01*
X69278571Y-85092857D01*
X69183333Y-85130952D01*
X68802380Y-85130952D01*
X69802380Y-85511904D02*
X69802380Y-84711904D01*
X70040476Y-84711904D01*
X70183333Y-84750000D01*
X70278571Y-84826190D01*
X70326190Y-84902380D01*
X70373809Y-85054761D01*
X70373809Y-85169047D01*
X70326190Y-85321428D01*
X70278571Y-85397619D01*
X70183333Y-85473809D01*
X70040476Y-85511904D01*
X69802380Y-85511904D01*
X71802380Y-85778571D02*
X71802380Y-84635714D01*
X73849999Y-85511904D02*
X73516666Y-85130952D01*
X73278571Y-85511904D02*
X73278571Y-84711904D01*
X73659523Y-84711904D01*
X73754761Y-84750000D01*
X73802380Y-84788095D01*
X73849999Y-84864285D01*
X73849999Y-84978571D01*
X73802380Y-85054761D01*
X73754761Y-85092857D01*
X73659523Y-85130952D01*
X73278571Y-85130952D01*
X74278571Y-85092857D02*
X74611904Y-85092857D01*
X74754761Y-85511904D02*
X74278571Y-85511904D01*
X74278571Y-84711904D01*
X74754761Y-84711904D01*
X75040476Y-84711904D02*
X75373809Y-85511904D01*
X75707142Y-84711904D01*
X76754761Y-84788095D02*
X76802380Y-84750000D01*
X76897619Y-84711904D01*
X77135714Y-84711904D01*
X77230952Y-84750000D01*
X77278571Y-84788095D01*
X77326190Y-84864285D01*
X77326190Y-84940476D01*
X77278571Y-85054761D01*
X76707142Y-85511904D01*
X77326190Y-85511904D01*
X37011904Y-56352380D02*
X36678571Y-55876190D01*
X36440476Y-56352380D02*
X36440476Y-55352380D01*
X36821428Y-55352380D01*
X36916666Y-55400000D01*
X36964285Y-55447619D01*
X37011904Y-55542857D01*
X37011904Y-55685714D01*
X36964285Y-55780952D01*
X36916666Y-55828571D01*
X36821428Y-55876190D01*
X36440476Y-55876190D01*
X37440476Y-55352380D02*
X37440476Y-56161904D01*
X37488095Y-56257142D01*
X37535714Y-56304761D01*
X37630952Y-56352380D01*
X37821428Y-56352380D01*
X37916666Y-56304761D01*
X37964285Y-56257142D01*
X38011904Y-56161904D01*
X38011904Y-55352380D01*
X38488095Y-56352380D02*
X38488095Y-55352380D01*
X39059523Y-56352380D01*
X39059523Y-55352380D01*
D11*
X69995238Y-40007142D02*
X70604761Y-40007142D01*
X70300000Y-40311904D02*
X70300000Y-39702380D01*
X42445238Y-67757142D02*
X43054761Y-67757142D01*
X42750000Y-68061904D02*
X42750000Y-67452380D01*
D10*
X80678571Y-73507142D02*
X81821428Y-73507142D01*
X81250000Y-74078571D02*
X81250000Y-72935714D01*
D11*
X66545238Y-65707142D02*
X67154761Y-65707142D01*
X66850000Y-66011904D02*
X66850000Y-65402380D01*
X79545238Y-61257142D02*
X80154761Y-61257142D01*
X79850000Y-61561904D02*
X79850000Y-60952380D01*
D12*
X67000000Y-39750000D02*
X66250000Y-39000000D01*
X67000000Y-39250000D02*
X67000000Y-39750000D01*
X68000000Y-39250000D02*
X67000000Y-39250000D01*
X68000000Y-38750000D02*
X68000000Y-39250000D01*
X67000000Y-38750000D02*
X68000000Y-38750000D01*
X67000000Y-38250000D02*
X67000000Y-38750000D01*
X66250000Y-39000000D02*
X67000000Y-38250000D01*
X78010355Y-53500000D02*
G75*
G03*
X78010355Y-53500000I-35355J0D01*
G01*
X76155902Y-63025000D02*
G75*
G03*
X76155902Y-63025000I-55902J0D01*
G01*
X69580902Y-74175000D02*
G75*
G03*
X69580902Y-74175000I-55902J0D01*
G01*
X43080902Y-59000000D02*
G75*
G03*
X43080902Y-59000000I-55902J0D01*
G01*
D10*
X41023809Y-72354761D02*
X41166666Y-72402380D01*
X41404761Y-72402380D01*
X41500000Y-72354761D01*
X41547619Y-72307142D01*
X41595238Y-72211904D01*
X41595238Y-72116666D01*
X41547619Y-72021428D01*
X41500000Y-71973809D01*
X41404761Y-71926190D01*
X41214285Y-71878571D01*
X41119047Y-71830952D01*
X41071428Y-71783333D01*
X41023809Y-71688095D01*
X41023809Y-71592857D01*
X41071428Y-71497619D01*
X41119047Y-71450000D01*
X41214285Y-71402380D01*
X41452380Y-71402380D01*
X41595238Y-71450000D01*
X41880952Y-71402380D02*
X42452380Y-71402380D01*
X42166666Y-72402380D02*
X42166666Y-71402380D01*
X42738095Y-72116666D02*
X43214285Y-72116666D01*
X42642857Y-72402380D02*
X42976190Y-71402380D01*
X43309523Y-72402380D01*
X43500000Y-71402380D02*
X44071428Y-71402380D01*
X43785714Y-72402380D02*
X43785714Y-71402380D01*
X44404761Y-71402380D02*
X44404761Y-72211904D01*
X44452380Y-72307142D01*
X44500000Y-72354761D01*
X44595238Y-72402380D01*
X44785714Y-72402380D01*
X44880952Y-72354761D01*
X44928571Y-72307142D01*
X44976190Y-72211904D01*
X44976190Y-71402380D01*
X45404761Y-72354761D02*
X45547619Y-72402380D01*
X45785714Y-72402380D01*
X45880952Y-72354761D01*
X45928571Y-72307142D01*
X45976190Y-72211904D01*
X45976190Y-72116666D01*
X45928571Y-72021428D01*
X45880952Y-71973809D01*
X45785714Y-71926190D01*
X45595238Y-71878571D01*
X45500000Y-71830952D01*
X45452380Y-71783333D01*
X45404761Y-71688095D01*
X45404761Y-71592857D01*
X45452380Y-71497619D01*
X45500000Y-71450000D01*
X45595238Y-71402380D01*
X45833333Y-71402380D01*
X45976190Y-71450000D01*
X70561904Y-37052380D02*
X71180952Y-37052380D01*
X70847619Y-37433333D01*
X70990476Y-37433333D01*
X71085714Y-37480952D01*
X71133333Y-37528571D01*
X71180952Y-37623809D01*
X71180952Y-37861904D01*
X71133333Y-37957142D01*
X71085714Y-38004761D01*
X70990476Y-38052380D01*
X70704761Y-38052380D01*
X70609523Y-38004761D01*
X70561904Y-37957142D01*
X71466666Y-37052380D02*
X71800000Y-38052380D01*
X72133333Y-37052380D01*
X72371428Y-37052380D02*
X72990476Y-37052380D01*
X72657142Y-37433333D01*
X72800000Y-37433333D01*
X72895238Y-37480952D01*
X72942857Y-37528571D01*
X72990476Y-37623809D01*
X72990476Y-37861904D01*
X72942857Y-37957142D01*
X72895238Y-38004761D01*
X72800000Y-38052380D01*
X72514285Y-38052380D01*
X72419047Y-38004761D01*
X72371428Y-37957142D01*
X55492857Y-41404761D02*
X55635714Y-41452380D01*
X55873809Y-41452380D01*
X55969047Y-41404761D01*
X56016666Y-41357142D01*
X56064285Y-41261904D01*
X56064285Y-41166666D01*
X56016666Y-41071428D01*
X55969047Y-41023809D01*
X55873809Y-40976190D01*
X55683333Y-40928571D01*
X55588095Y-40880952D01*
X55540476Y-40833333D01*
X55492857Y-40738095D01*
X55492857Y-40642857D01*
X55540476Y-40547619D01*
X55588095Y-40500000D01*
X55683333Y-40452380D01*
X55921428Y-40452380D01*
X56064285Y-40500000D01*
X56397619Y-40452380D02*
X56635714Y-41452380D01*
X56826190Y-40738095D01*
X57016666Y-41452380D01*
X57254761Y-40452380D01*
X57635714Y-41452380D02*
X57635714Y-40452380D01*
X57873809Y-40452380D01*
X58016666Y-40500000D01*
X58111904Y-40595238D01*
X58159523Y-40690476D01*
X58207142Y-40880952D01*
X58207142Y-41023809D01*
X58159523Y-41214285D01*
X58111904Y-41309523D01*
X58016666Y-41404761D01*
X57873809Y-41452380D01*
X57635714Y-41452380D01*
X36692857Y-48278571D02*
X36835714Y-48326190D01*
X36883333Y-48373809D01*
X36930952Y-48469047D01*
X36930952Y-48611904D01*
X36883333Y-48707142D01*
X36835714Y-48754761D01*
X36740476Y-48802380D01*
X36359523Y-48802380D01*
X36359523Y-47802380D01*
X36692857Y-47802380D01*
X36788095Y-47850000D01*
X36835714Y-47897619D01*
X36883333Y-47992857D01*
X36883333Y-48088095D01*
X36835714Y-48183333D01*
X36788095Y-48230952D01*
X36692857Y-48278571D01*
X36359523Y-48278571D01*
X37550000Y-47802380D02*
X37740476Y-47802380D01*
X37835714Y-47850000D01*
X37930952Y-47945238D01*
X37978571Y-48135714D01*
X37978571Y-48469047D01*
X37930952Y-48659523D01*
X37835714Y-48754761D01*
X37740476Y-48802380D01*
X37550000Y-48802380D01*
X37454761Y-48754761D01*
X37359523Y-48659523D01*
X37311904Y-48469047D01*
X37311904Y-48135714D01*
X37359523Y-47945238D01*
X37454761Y-47850000D01*
X37550000Y-47802380D01*
X38597619Y-47802380D02*
X38788095Y-47802380D01*
X38883333Y-47850000D01*
X38978571Y-47945238D01*
X39026190Y-48135714D01*
X39026190Y-48469047D01*
X38978571Y-48659523D01*
X38883333Y-48754761D01*
X38788095Y-48802380D01*
X38597619Y-48802380D01*
X38502380Y-48754761D01*
X38407142Y-48659523D01*
X38359523Y-48469047D01*
X38359523Y-48135714D01*
X38407142Y-47945238D01*
X38502380Y-47850000D01*
X38597619Y-47802380D01*
X39311904Y-47802380D02*
X39883333Y-47802380D01*
X39597619Y-48802380D02*
X39597619Y-47802380D01*
X78940476Y-64352380D02*
X78940476Y-63352380D01*
X79321428Y-63352380D01*
X79416666Y-63400000D01*
X79464285Y-63447619D01*
X79511904Y-63542857D01*
X79511904Y-63685714D01*
X79464285Y-63780952D01*
X79416666Y-63828571D01*
X79321428Y-63876190D01*
X78940476Y-63876190D01*
X80130952Y-63352380D02*
X80321428Y-63352380D01*
X80416666Y-63400000D01*
X80511904Y-63495238D01*
X80559523Y-63685714D01*
X80559523Y-64019047D01*
X80511904Y-64209523D01*
X80416666Y-64304761D01*
X80321428Y-64352380D01*
X80130952Y-64352380D01*
X80035714Y-64304761D01*
X79940476Y-64209523D01*
X79892857Y-64019047D01*
X79892857Y-63685714D01*
X79940476Y-63495238D01*
X80035714Y-63400000D01*
X80130952Y-63352380D01*
X80892857Y-63352380D02*
X81130952Y-64352380D01*
X81321428Y-63638095D01*
X81511904Y-64352380D01*
X81750000Y-63352380D01*
X82130952Y-63828571D02*
X82464285Y-63828571D01*
X82607142Y-64352380D02*
X82130952Y-64352380D01*
X82130952Y-63352380D01*
X82607142Y-63352380D01*
X83607142Y-64352380D02*
X83273809Y-63876190D01*
X83035714Y-64352380D02*
X83035714Y-63352380D01*
X83416666Y-63352380D01*
X83511904Y-63400000D01*
X83559523Y-63447619D01*
X83607142Y-63542857D01*
X83607142Y-63685714D01*
X83559523Y-63780952D01*
X83511904Y-63828571D01*
X83416666Y-63876190D01*
X83035714Y-63876190D01*
X83288095Y-57402380D02*
X83288095Y-58211904D01*
X83335714Y-58307142D01*
X83383333Y-58354761D01*
X83478571Y-58402380D01*
X83669047Y-58402380D01*
X83764285Y-58354761D01*
X83811904Y-58307142D01*
X83859523Y-58211904D01*
X83859523Y-57402380D01*
X84288095Y-58354761D02*
X84430952Y-58402380D01*
X84669047Y-58402380D01*
X84764285Y-58354761D01*
X84811904Y-58307142D01*
X84859523Y-58211904D01*
X84859523Y-58116666D01*
X84811904Y-58021428D01*
X84764285Y-57973809D01*
X84669047Y-57926190D01*
X84478571Y-57878571D01*
X84383333Y-57830952D01*
X84335714Y-57783333D01*
X84288095Y-57688095D01*
X84288095Y-57592857D01*
X84335714Y-57497619D01*
X84383333Y-57450000D01*
X84478571Y-57402380D01*
X84716666Y-57402380D01*
X84859523Y-57450000D01*
X85621428Y-57878571D02*
X85764285Y-57926190D01*
X85811904Y-57973809D01*
X85859523Y-58069047D01*
X85859523Y-58211904D01*
X85811904Y-58307142D01*
X85764285Y-58354761D01*
X85669047Y-58402380D01*
X85288095Y-58402380D01*
X85288095Y-57402380D01*
X85621428Y-57402380D01*
X85716666Y-57450000D01*
X85764285Y-57497619D01*
X85811904Y-57592857D01*
X85811904Y-57688095D01*
X85764285Y-57783333D01*
X85716666Y-57830952D01*
X85621428Y-57878571D01*
X85288095Y-57878571D01*
X47754761Y-77902380D02*
X47754761Y-78711904D01*
X47802380Y-78807142D01*
X47850000Y-78854761D01*
X47945238Y-78902380D01*
X48135714Y-78902380D01*
X48230952Y-78854761D01*
X48278571Y-78807142D01*
X48326190Y-78711904D01*
X48326190Y-77902380D01*
X48754761Y-78616666D02*
X49230952Y-78616666D01*
X48659523Y-78902380D02*
X48992857Y-77902380D01*
X49326190Y-78902380D01*
X50230952Y-78902380D02*
X49897619Y-78426190D01*
X49659523Y-78902380D02*
X49659523Y-77902380D01*
X50040476Y-77902380D01*
X50135714Y-77950000D01*
X50183333Y-77997619D01*
X50230952Y-78092857D01*
X50230952Y-78235714D01*
X50183333Y-78330952D01*
X50135714Y-78378571D01*
X50040476Y-78426190D01*
X49659523Y-78426190D01*
X50516666Y-77902380D02*
X51088095Y-77902380D01*
X50802380Y-78902380D02*
X50802380Y-77902380D01*
X48373809Y-44052380D02*
X48373809Y-43052380D01*
X48802380Y-43147619D02*
X48850000Y-43100000D01*
X48945238Y-43052380D01*
X49183333Y-43052380D01*
X49278571Y-43100000D01*
X49326190Y-43147619D01*
X49373809Y-43242857D01*
X49373809Y-43338095D01*
X49326190Y-43480952D01*
X48754761Y-44052380D01*
X49373809Y-44052380D01*
X50373809Y-43957142D02*
X50326190Y-44004761D01*
X50183333Y-44052380D01*
X50088095Y-44052380D01*
X49945238Y-44004761D01*
X49850000Y-43909523D01*
X49802380Y-43814285D01*
X49754761Y-43623809D01*
X49754761Y-43480952D01*
X49802380Y-43290476D01*
X49850000Y-43195238D01*
X49945238Y-43100000D01*
X50088095Y-43052380D01*
X50183333Y-43052380D01*
X50326190Y-43100000D01*
X50373809Y-43147619D01*
D13*
%TO.C,G\u002A\u002A\u002A*%
G36*
X67052936Y-48941365D02*
G01*
X67053130Y-49009264D01*
X67053224Y-49071822D01*
X67053220Y-49127010D01*
X67053122Y-49172798D01*
X67052934Y-49207157D01*
X67052659Y-49228059D01*
X67052412Y-49233621D01*
X67053113Y-49247434D01*
X67055829Y-49261237D01*
X67060772Y-49280932D01*
X67716566Y-49276500D01*
X67718789Y-48969583D01*
X67719527Y-48885384D01*
X67720439Y-48816839D01*
X67721577Y-48762668D01*
X67722994Y-48721593D01*
X67724743Y-48692334D01*
X67726876Y-48673612D01*
X67729448Y-48664148D01*
X67731489Y-48662347D01*
X67741980Y-48662281D01*
X67766399Y-48662237D01*
X67801736Y-48662213D01*
X67844987Y-48662208D01*
X67893143Y-48662219D01*
X67943199Y-48662245D01*
X67992147Y-48662286D01*
X68036980Y-48662338D01*
X68074692Y-48662401D01*
X68102276Y-48662473D01*
X68116511Y-48662549D01*
X68119411Y-48666341D01*
X68121838Y-48678500D01*
X68123844Y-48700306D01*
X68125481Y-48733039D01*
X68126804Y-48777978D01*
X68127865Y-48836405D01*
X68128716Y-48909598D01*
X68129211Y-48969583D01*
X68131433Y-49276500D01*
X68459517Y-49278716D01*
X68787600Y-49280932D01*
X68787809Y-49261783D01*
X68787846Y-49248982D01*
X68787858Y-49221361D01*
X68787846Y-49181035D01*
X68787810Y-49130118D01*
X68787753Y-49070723D01*
X68787676Y-49004963D01*
X68787606Y-48953310D01*
X68787552Y-48875346D01*
X68787688Y-48812650D01*
X68788092Y-48763557D01*
X68788843Y-48726402D01*
X68790020Y-48699519D01*
X68791702Y-48681244D01*
X68793967Y-48669912D01*
X68796893Y-48663857D01*
X68800561Y-48661415D01*
X68801411Y-48661210D01*
X68813701Y-48660514D01*
X68840313Y-48660093D01*
X68878636Y-48659951D01*
X68926060Y-48660093D01*
X68979976Y-48660523D01*
X69008942Y-48660853D01*
X69202256Y-48663273D01*
X69204478Y-48969886D01*
X69206700Y-49276500D01*
X69841700Y-49276500D01*
X69846144Y-48662666D01*
X70268649Y-48662666D01*
X70271074Y-48963548D01*
X70271812Y-49044362D01*
X70272641Y-49109842D01*
X70273640Y-49161585D01*
X70274887Y-49201191D01*
X70276461Y-49230258D01*
X70278440Y-49250385D01*
X70280902Y-49263171D01*
X70283926Y-49270215D01*
X70286200Y-49272452D01*
X70297665Y-49274423D01*
X70324486Y-49276189D01*
X70365090Y-49277712D01*
X70417899Y-49278954D01*
X70481339Y-49279875D01*
X70553835Y-49280437D01*
X70618517Y-49280604D01*
X70938133Y-49280733D01*
X70938133Y-49763333D01*
X71488467Y-49763333D01*
X71488467Y-50169733D01*
X70938133Y-50169733D01*
X70938133Y-50838600D01*
X71488467Y-50838600D01*
X71488467Y-51245000D01*
X70938133Y-51245000D01*
X70938133Y-51905400D01*
X71488768Y-51905400D01*
X71486500Y-52110717D01*
X71484233Y-52316033D01*
X71221767Y-52317706D01*
X71156433Y-52318135D01*
X71096354Y-52318551D01*
X71043677Y-52318939D01*
X71000548Y-52319281D01*
X70969113Y-52319562D01*
X70951520Y-52319763D01*
X70948717Y-52319823D01*
X70945924Y-52323422D01*
X70943634Y-52334819D01*
X70941805Y-52355296D01*
X70940395Y-52386134D01*
X70939364Y-52428616D01*
X70938672Y-52484024D01*
X70938275Y-52553641D01*
X70938135Y-52638748D01*
X70938133Y-52650467D01*
X70938133Y-52980666D01*
X71213450Y-52980666D01*
X71488768Y-52980667D01*
X71486500Y-53184575D01*
X71484233Y-53388483D01*
X71213300Y-53389892D01*
X70942367Y-53391300D01*
X70937935Y-54047232D01*
X71484233Y-54051700D01*
X71486500Y-54257016D01*
X71488768Y-54462333D01*
X70938133Y-54462333D01*
X70938133Y-54792533D01*
X70938173Y-54876131D01*
X70938340Y-54944349D01*
X70938702Y-54998743D01*
X70939331Y-55040865D01*
X70940294Y-55072272D01*
X70941663Y-55094515D01*
X70943507Y-55109151D01*
X70945896Y-55117733D01*
X70948899Y-55121815D01*
X70952586Y-55122951D01*
X70952950Y-55122962D01*
X70964868Y-55123004D01*
X70991518Y-55123016D01*
X71030696Y-55122998D01*
X71080202Y-55122952D01*
X71137832Y-55122880D01*
X71201386Y-55122784D01*
X71228117Y-55122739D01*
X71488467Y-55122287D01*
X71488467Y-55537600D01*
X70938133Y-55537600D01*
X70938133Y-56198000D01*
X71488467Y-56198000D01*
X71488467Y-56604400D01*
X70938133Y-56604400D01*
X70938133Y-57095270D01*
X70605817Y-57097485D01*
X70273500Y-57099700D01*
X70273500Y-57713537D01*
X70059717Y-57713535D01*
X69845933Y-57713533D01*
X69845933Y-57095467D01*
X69202467Y-57095467D01*
X69202467Y-57404650D01*
X69202466Y-57713834D01*
X68997150Y-57711567D01*
X68791833Y-57709300D01*
X68789879Y-57425667D01*
X68789405Y-57357005D01*
X68788964Y-57292938D01*
X68788569Y-57235645D01*
X68788235Y-57187305D01*
X68787979Y-57150095D01*
X68787814Y-57126195D01*
X68787762Y-57118750D01*
X68787600Y-57095467D01*
X68127200Y-57095467D01*
X68127200Y-57713533D01*
X67720800Y-57713533D01*
X67720800Y-57095270D01*
X67388483Y-57097485D01*
X67300790Y-57098184D01*
X67228768Y-57099036D01*
X67171158Y-57100088D01*
X67126699Y-57101389D01*
X67094129Y-57102987D01*
X67072189Y-57104930D01*
X67059617Y-57107268D01*
X67055152Y-57110048D01*
X67055108Y-57110283D01*
X67054832Y-57120966D01*
X67054522Y-57146573D01*
X67054192Y-57185097D01*
X67053856Y-57234530D01*
X67053529Y-57292863D01*
X67053223Y-57358087D01*
X67052991Y-57417200D01*
X67051933Y-57713533D01*
X66645533Y-57713533D01*
X66645533Y-57095467D01*
X65985133Y-57095467D01*
X65985133Y-57713533D01*
X65578944Y-57713533D01*
X65576722Y-57406617D01*
X65574500Y-57099700D01*
X65242183Y-57097485D01*
X64909867Y-57095270D01*
X64909867Y-57713834D01*
X64502583Y-57709300D01*
X64503233Y-57423739D01*
X64503233Y-57354953D01*
X64502934Y-57290857D01*
X64502370Y-57233602D01*
X64501572Y-57185339D01*
X64500574Y-57148220D01*
X64499410Y-57124394D01*
X64498524Y-57116822D01*
X64493164Y-57095467D01*
X63843067Y-57095467D01*
X63843067Y-57713533D01*
X63428200Y-57713533D01*
X63428200Y-57095467D01*
X62767800Y-57095467D01*
X62767800Y-57713533D01*
X62352933Y-57713533D01*
X62352933Y-57095467D01*
X61734383Y-57095467D01*
X61734873Y-56860517D01*
X61734993Y-56798755D01*
X61735084Y-56742308D01*
X61735145Y-56693456D01*
X61735173Y-56654484D01*
X61735166Y-56627674D01*
X61735121Y-56615309D01*
X61735115Y-56614983D01*
X61731527Y-56612086D01*
X61720027Y-56609732D01*
X61699287Y-56607873D01*
X61667978Y-56606464D01*
X61624772Y-56605459D01*
X61568340Y-56604811D01*
X61497356Y-56604475D01*
X61430066Y-56604400D01*
X61125267Y-56604400D01*
X61125267Y-56198000D01*
X61734867Y-56198000D01*
X61734867Y-55537600D01*
X61125267Y-55537600D01*
X61125267Y-55334400D01*
X61125615Y-55265078D01*
X61126635Y-55209149D01*
X61128292Y-55167470D01*
X61130550Y-55140900D01*
X61133374Y-55130298D01*
X61133733Y-55130142D01*
X61150049Y-55127118D01*
X61150667Y-55126967D01*
X61160859Y-55126438D01*
X61185971Y-55125896D01*
X61223991Y-55125362D01*
X61272906Y-55124859D01*
X61330702Y-55124406D01*
X61395366Y-55124026D01*
X61449116Y-55123795D01*
X61739100Y-55122739D01*
X61734480Y-54462333D01*
X61125267Y-54462333D01*
X61125267Y-54047466D01*
X61735065Y-54047466D01*
X61730633Y-53391300D01*
X61442766Y-53389510D01*
X61374063Y-53389076D01*
X61310365Y-53388661D01*
X61253750Y-53388279D01*
X61206299Y-53387945D01*
X61170091Y-53387674D01*
X61147205Y-53387479D01*
X61140083Y-53387393D01*
X61135420Y-53386203D01*
X61131848Y-53381545D01*
X61129223Y-53371443D01*
X61127401Y-53353922D01*
X61126238Y-53327004D01*
X61125591Y-53288713D01*
X61125316Y-53237073D01*
X61125267Y-53183866D01*
X61125267Y-52980666D01*
X61734867Y-52980666D01*
X61734867Y-52887533D01*
X65460200Y-52887533D01*
X65460200Y-55647667D01*
X66645533Y-55647667D01*
X66645533Y-55643433D01*
X66725670Y-55643433D01*
X66957810Y-55645686D01*
X67018749Y-55646150D01*
X67073968Y-55646326D01*
X67121256Y-55646226D01*
X67158403Y-55645864D01*
X67183201Y-55645252D01*
X67193439Y-55644403D01*
X67193557Y-55644332D01*
X67195308Y-55635782D01*
X67199142Y-55612954D01*
X67204686Y-55578320D01*
X67211565Y-55534357D01*
X67219406Y-55483539D01*
X67227834Y-55428340D01*
X67236476Y-55371237D01*
X67244957Y-55314702D01*
X67252904Y-55261212D01*
X67259944Y-55213240D01*
X67265700Y-55173262D01*
X67269801Y-55143753D01*
X67271872Y-55127186D01*
X67272049Y-55124850D01*
X67280139Y-55124266D01*
X67302872Y-55123743D01*
X67337957Y-55123306D01*
X67383105Y-55122977D01*
X67436025Y-55122780D01*
X67479500Y-55122733D01*
X67536750Y-55122868D01*
X67587946Y-55123246D01*
X67630800Y-55123829D01*
X67663021Y-55124579D01*
X67682318Y-55125459D01*
X67686933Y-55126182D01*
X67688098Y-55135132D01*
X67691385Y-55158662D01*
X67696484Y-55194597D01*
X67703085Y-55240759D01*
X67710877Y-55294972D01*
X67719551Y-55355059D01*
X67720429Y-55361132D01*
X67729349Y-55423072D01*
X67737558Y-55480619D01*
X67744710Y-55531318D01*
X67750462Y-55572712D01*
X67754470Y-55602343D01*
X67756389Y-55617756D01*
X67756413Y-55617993D01*
X67757735Y-55627428D01*
X67760806Y-55634937D01*
X67767364Y-55640717D01*
X67779145Y-55644965D01*
X67797885Y-55647877D01*
X67825322Y-55649649D01*
X67863192Y-55650480D01*
X67913231Y-55650566D01*
X67977177Y-55650103D01*
X68034649Y-55649521D01*
X68102516Y-55648737D01*
X68155288Y-55647894D01*
X68194802Y-55646850D01*
X68222896Y-55645467D01*
X68241408Y-55643605D01*
X68252175Y-55641124D01*
X68257035Y-55637884D01*
X68257826Y-55633747D01*
X68257611Y-55632587D01*
X68255501Y-55620987D01*
X68251005Y-55594563D01*
X68244431Y-55555208D01*
X68236090Y-55504817D01*
X68226287Y-55445283D01*
X68215334Y-55378499D01*
X68203537Y-55306360D01*
X68191205Y-55230759D01*
X68178647Y-55153589D01*
X68166172Y-55076744D01*
X68154087Y-55002118D01*
X68142702Y-54931605D01*
X68132325Y-54867098D01*
X68126738Y-54832188D01*
X68323469Y-54832188D01*
X68323474Y-54959607D01*
X68323529Y-55078885D01*
X68323635Y-55189121D01*
X68323789Y-55289413D01*
X68323991Y-55378859D01*
X68324239Y-55456559D01*
X68324532Y-55521609D01*
X68324868Y-55573110D01*
X68325246Y-55610158D01*
X68325666Y-55631853D01*
X68326007Y-55637510D01*
X68329833Y-55640027D01*
X68340028Y-55642102D01*
X68357806Y-55643756D01*
X68384380Y-55645012D01*
X68420961Y-55645893D01*
X68468764Y-55646422D01*
X68528999Y-55646620D01*
X68602881Y-55646511D01*
X68691622Y-55646117D01*
X68764215Y-55645678D01*
X68861407Y-55645017D01*
X68943255Y-55644370D01*
X69011345Y-55643669D01*
X69067266Y-55642844D01*
X69112606Y-55641826D01*
X69148953Y-55640548D01*
X69177894Y-55638940D01*
X69201018Y-55636935D01*
X69219913Y-55634463D01*
X69236166Y-55631455D01*
X69251366Y-55627843D01*
X69265475Y-55624015D01*
X69345481Y-55597358D01*
X69413552Y-55564619D01*
X69474331Y-55523155D01*
X69528460Y-55474370D01*
X69574580Y-55423277D01*
X69613051Y-55369384D01*
X69644331Y-55310945D01*
X69668881Y-55246211D01*
X69687160Y-55173433D01*
X69699625Y-55090863D01*
X69706738Y-54996753D01*
X69708955Y-54889355D01*
X69707510Y-54792533D01*
X69703633Y-54697313D01*
X69697330Y-54616465D01*
X69688114Y-54547541D01*
X69675502Y-54488093D01*
X69659006Y-54435671D01*
X69638142Y-54387827D01*
X69621036Y-54356358D01*
X69593275Y-54315721D01*
X69558325Y-54274321D01*
X69520721Y-54236956D01*
X69484997Y-54208421D01*
X69475424Y-54202357D01*
X69453757Y-54189036D01*
X69444862Y-54180643D01*
X69446648Y-54173990D01*
X69453267Y-54168565D01*
X69503901Y-54124374D01*
X69551365Y-54068907D01*
X69591257Y-54007774D01*
X69611308Y-53967033D01*
X69633170Y-53901527D01*
X69649588Y-53823453D01*
X69660527Y-53736290D01*
X69665957Y-53643515D01*
X69665844Y-53548606D01*
X69660156Y-53455041D01*
X69648859Y-53366298D01*
X69631921Y-53285854D01*
X69618137Y-53240421D01*
X69580479Y-53156473D01*
X69530162Y-53083769D01*
X69467189Y-53022314D01*
X69391566Y-52972110D01*
X69303297Y-52933162D01*
X69210417Y-52907165D01*
X69192181Y-52903555D01*
X69172830Y-52900549D01*
X69150688Y-52898093D01*
X69124081Y-52896134D01*
X69091333Y-52894617D01*
X69050769Y-52893488D01*
X69000714Y-52892694D01*
X68939493Y-52892180D01*
X68865430Y-52891892D01*
X68776852Y-52891777D01*
X68732567Y-52891766D01*
X68326167Y-52891766D01*
X68323992Y-54259133D01*
X68323778Y-54410100D01*
X68323620Y-54556533D01*
X68323518Y-54697529D01*
X68323469Y-54832188D01*
X68126738Y-54832188D01*
X68123265Y-54810490D01*
X68115829Y-54763676D01*
X68110402Y-54729033D01*
X68105959Y-54700885D01*
X68099025Y-54657693D01*
X68089871Y-54601120D01*
X68078768Y-54532827D01*
X68065989Y-54454477D01*
X68051804Y-54367732D01*
X68036484Y-54274255D01*
X68020302Y-54175708D01*
X68003529Y-54073754D01*
X67990826Y-53996666D01*
X67973248Y-53889916D01*
X67955663Y-53782812D01*
X67938394Y-53677345D01*
X67921767Y-53575508D01*
X67906103Y-53479293D01*
X67891729Y-53390693D01*
X67878967Y-53311699D01*
X67868141Y-53244305D01*
X67859577Y-53190502D01*
X67855871Y-53166933D01*
X67846417Y-53106804D01*
X67837492Y-53050769D01*
X67829525Y-53001454D01*
X67822941Y-52961489D01*
X67818169Y-52933499D01*
X67815922Y-52921400D01*
X67809700Y-52891766D01*
X67176062Y-52891766D01*
X67054080Y-53636833D01*
X67035880Y-53747982D01*
X67018340Y-53855056D01*
X67001671Y-53956778D01*
X66986082Y-54051873D01*
X66971782Y-54139064D01*
X66958981Y-54217076D01*
X66947887Y-54284632D01*
X66938711Y-54340456D01*
X66931662Y-54383273D01*
X66926949Y-54411806D01*
X66924875Y-54424233D01*
X66922320Y-54439568D01*
X66917281Y-54470151D01*
X66909996Y-54514518D01*
X66900706Y-54571206D01*
X66889650Y-54638751D01*
X66877068Y-54715688D01*
X66863198Y-54800553D01*
X66848282Y-54891882D01*
X66832557Y-54988211D01*
X66821660Y-55055000D01*
X66725670Y-55643433D01*
X66645533Y-55643433D01*
X66645533Y-55190467D01*
X65951267Y-55190467D01*
X65951267Y-52887533D01*
X65460200Y-52887533D01*
X61734867Y-52887533D01*
X61734867Y-52320267D01*
X61447000Y-52319208D01*
X61378641Y-52318897D01*
X61315590Y-52318497D01*
X61259868Y-52318028D01*
X61213494Y-52317514D01*
X61178491Y-52316974D01*
X61156878Y-52316431D01*
X61150667Y-52316033D01*
X61134351Y-52312938D01*
X61133733Y-52312858D01*
X61130847Y-52304144D01*
X61128521Y-52279364D01*
X61126793Y-52239376D01*
X61125698Y-52185038D01*
X61125271Y-52117210D01*
X61125267Y-52108600D01*
X61125267Y-51905400D01*
X61429446Y-51905400D01*
X61509607Y-51905345D01*
X61574457Y-51905131D01*
X61625617Y-51904683D01*
X61664707Y-51903927D01*
X61693350Y-51902788D01*
X61713166Y-51901191D01*
X61725778Y-51899062D01*
X61732806Y-51896326D01*
X61735871Y-51892908D01*
X61736362Y-51891277D01*
X61736922Y-51879840D01*
X61737321Y-51853438D01*
X61737557Y-51814037D01*
X61737627Y-51763605D01*
X61737529Y-51704109D01*
X61737260Y-51637517D01*
X61736817Y-51565795D01*
X61736783Y-51561077D01*
X61735159Y-51339410D01*
X62352978Y-51339410D01*
X62352988Y-51469683D01*
X62353045Y-51597373D01*
X62353149Y-51721394D01*
X62353300Y-51840662D01*
X62353499Y-51954094D01*
X62353747Y-52060605D01*
X62354045Y-52159111D01*
X62354392Y-52248527D01*
X62354790Y-52327770D01*
X62355240Y-52395754D01*
X62355741Y-52451396D01*
X62356295Y-52493611D01*
X62356903Y-52521316D01*
X62357564Y-52533425D01*
X62357698Y-52533876D01*
X62367271Y-52535322D01*
X62391114Y-52536554D01*
X62426566Y-52537568D01*
X62470966Y-52538355D01*
X62521652Y-52538909D01*
X62575963Y-52539224D01*
X62631237Y-52539294D01*
X62684812Y-52539111D01*
X62734027Y-52538670D01*
X62776221Y-52537963D01*
X62808732Y-52536985D01*
X62828898Y-52535728D01*
X62833355Y-52535040D01*
X62852343Y-52529991D01*
X62854521Y-51986979D01*
X62856700Y-51443967D01*
X62987933Y-51441829D01*
X63062587Y-51439737D01*
X63124260Y-51435795D01*
X63176854Y-51429484D01*
X63224271Y-51420281D01*
X63270410Y-51407665D01*
X63289516Y-51401502D01*
X63379006Y-51363246D01*
X63457746Y-51311926D01*
X63525913Y-51247397D01*
X63583681Y-51169513D01*
X63592571Y-51154689D01*
X63834600Y-51154689D01*
X63834630Y-51305940D01*
X63834718Y-51452591D01*
X63834860Y-51593750D01*
X63835054Y-51728523D01*
X63835295Y-51856014D01*
X63835582Y-51975331D01*
X63835911Y-52085579D01*
X63836278Y-52185865D01*
X63836680Y-52275294D01*
X63837115Y-52352972D01*
X63837578Y-52418007D01*
X63838067Y-52469503D01*
X63838579Y-52506566D01*
X63839110Y-52528304D01*
X63839546Y-52534057D01*
X63848961Y-52535329D01*
X63873144Y-52536498D01*
X63909930Y-52537519D01*
X63957154Y-52538346D01*
X64012650Y-52538934D01*
X64074255Y-52539238D01*
X64089312Y-52539263D01*
X64334133Y-52539524D01*
X64334133Y-51329667D01*
X64706554Y-51329667D01*
X64710900Y-52536167D01*
X65206200Y-52539847D01*
X65206200Y-51160057D01*
X65206162Y-51008596D01*
X65206049Y-50861786D01*
X65205868Y-50720515D01*
X65205620Y-50585670D01*
X65205311Y-50458140D01*
X65204944Y-50338812D01*
X65204524Y-50228575D01*
X65204055Y-50128316D01*
X65203540Y-50038924D01*
X65202984Y-49961285D01*
X65202392Y-49896289D01*
X65201766Y-49844824D01*
X65201111Y-49807776D01*
X65200432Y-49786034D01*
X65200043Y-49782161D01*
X65443267Y-49782161D01*
X65443267Y-51155636D01*
X65443302Y-51306851D01*
X65443406Y-51453476D01*
X65443575Y-51594617D01*
X65443805Y-51729379D01*
X65444092Y-51856867D01*
X65444432Y-51976185D01*
X65444822Y-52086438D01*
X65445257Y-52186732D01*
X65445735Y-52276172D01*
X65446250Y-52353862D01*
X65446800Y-52418907D01*
X65447381Y-52470413D01*
X65447988Y-52507484D01*
X65448618Y-52529225D01*
X65449130Y-52534975D01*
X65458789Y-52536453D01*
X65483200Y-52537746D01*
X65520184Y-52538810D01*
X65567561Y-52539598D01*
X65623150Y-52540067D01*
X65684772Y-52540170D01*
X65698897Y-52540139D01*
X65942800Y-52539441D01*
X65942800Y-51160353D01*
X65942798Y-51149919D01*
X66179866Y-51149919D01*
X66179890Y-51335548D01*
X66179964Y-51504897D01*
X66180093Y-51658617D01*
X66180283Y-51797360D01*
X66180538Y-51921779D01*
X66180864Y-52032525D01*
X66181265Y-52130251D01*
X66181746Y-52215608D01*
X66182312Y-52289250D01*
X66182969Y-52351828D01*
X66183721Y-52403994D01*
X66184573Y-52446401D01*
X66185531Y-52479701D01*
X66186598Y-52504545D01*
X66187781Y-52521587D01*
X66189085Y-52531477D01*
X66190450Y-52534849D01*
X66200494Y-52535579D01*
X66226076Y-52536281D01*
X66265801Y-52536944D01*
X66318274Y-52537558D01*
X66382100Y-52538111D01*
X66455884Y-52538593D01*
X66538230Y-52538991D01*
X66627744Y-52539296D01*
X66723031Y-52539496D01*
X66787350Y-52539565D01*
X67373666Y-52539953D01*
X67373666Y-52074733D01*
X66679400Y-52074733D01*
X66679400Y-51668333D01*
X68347333Y-51668333D01*
X68347340Y-51772050D01*
X68350543Y-51895052D01*
X68360447Y-52003859D01*
X68377523Y-52100023D01*
X68402239Y-52185092D01*
X68435067Y-52260618D01*
X68476476Y-52328151D01*
X68526936Y-52389241D01*
X68537833Y-52400497D01*
X68600987Y-52456388D01*
X68668699Y-52500218D01*
X68744221Y-52533610D01*
X68830806Y-52558188D01*
X68869386Y-52565936D01*
X68905845Y-52569941D01*
X68954407Y-52571642D01*
X69010440Y-52571238D01*
X69069314Y-52568929D01*
X69126396Y-52564916D01*
X69177055Y-52559398D01*
X69216659Y-52552576D01*
X69224635Y-52550596D01*
X69323291Y-52515931D01*
X69410484Y-52468851D01*
X69486051Y-52409556D01*
X69549829Y-52338242D01*
X69601654Y-52255107D01*
X69641364Y-52160349D01*
X69668795Y-52054167D01*
X69677163Y-52002161D01*
X69682314Y-51943968D01*
X69684130Y-51876315D01*
X69682821Y-51804341D01*
X69678596Y-51733186D01*
X69671666Y-51667991D01*
X69662241Y-51613898D01*
X69661114Y-51609067D01*
X69641142Y-51536777D01*
X69616467Y-51468590D01*
X69585944Y-51402901D01*
X69548425Y-51338104D01*
X69502765Y-51272595D01*
X69447818Y-51204770D01*
X69382438Y-51133024D01*
X69305478Y-51055751D01*
X69215792Y-50971348D01*
X69186695Y-50944815D01*
X69108869Y-50872289D01*
X69044115Y-50807193D01*
X68991255Y-50747811D01*
X68949108Y-50692426D01*
X68916497Y-50639323D01*
X68892243Y-50586784D01*
X68875167Y-50533094D01*
X68864090Y-50476536D01*
X68863831Y-50474725D01*
X68860399Y-50420514D01*
X68864150Y-50364563D01*
X68874301Y-50312717D01*
X68890070Y-50270822D01*
X68891489Y-50268186D01*
X68914995Y-50235657D01*
X68944789Y-50214348D01*
X68983985Y-50202755D01*
X69033792Y-50199366D01*
X69068231Y-50200043D01*
X69091492Y-50203044D01*
X69109308Y-50209829D01*
X69127415Y-50221855D01*
X69130048Y-50223848D01*
X69152498Y-50243494D01*
X69169573Y-50265456D01*
X69182055Y-50292387D01*
X69190728Y-50326939D01*
X69196373Y-50371764D01*
X69199773Y-50429514D01*
X69200872Y-50463950D01*
X69204455Y-50601533D01*
X69676600Y-50601533D01*
X69676600Y-50475146D01*
X69675323Y-50392505D01*
X69671140Y-50322571D01*
X69663527Y-50261286D01*
X69651957Y-50204591D01*
X69635904Y-50148429D01*
X69633177Y-50140100D01*
X69593887Y-50045012D01*
X69543463Y-49962679D01*
X69481975Y-49893162D01*
X69409493Y-49836521D01*
X69326087Y-49792815D01*
X69231828Y-49762104D01*
X69176229Y-49750910D01*
X69068233Y-49739547D01*
X68962935Y-49740396D01*
X68862231Y-49752972D01*
X68768016Y-49776788D01*
X68682188Y-49811360D01*
X68606641Y-49856200D01*
X68543273Y-49910823D01*
X68540486Y-49913772D01*
X68481350Y-49988998D01*
X68433262Y-50075326D01*
X68396600Y-50170710D01*
X68371743Y-50273102D01*
X68359071Y-50380455D01*
X68358962Y-50490722D01*
X68371795Y-50601857D01*
X68394749Y-50701011D01*
X68416289Y-50766883D01*
X68441963Y-50827926D01*
X68473752Y-50887692D01*
X68513633Y-50949734D01*
X68563584Y-51017603D01*
X68589295Y-51050267D01*
X68619449Y-51086882D01*
X68650957Y-51122701D01*
X68685822Y-51159738D01*
X68726045Y-51200009D01*
X68773628Y-51245529D01*
X68830574Y-51298314D01*
X68884193Y-51347104D01*
X68960945Y-51420156D01*
X69026720Y-51490304D01*
X69080322Y-51556142D01*
X69120552Y-51616264D01*
X69133218Y-51639560D01*
X69160307Y-51709065D01*
X69177684Y-51787969D01*
X69184396Y-51871182D01*
X69183659Y-51909142D01*
X69176576Y-51973500D01*
X69162459Y-52023737D01*
X69140721Y-52061388D01*
X69116750Y-52083980D01*
X69101260Y-52093713D01*
X69085016Y-52099769D01*
X69063506Y-52102993D01*
X69032213Y-52104228D01*
X69007733Y-52104367D01*
X68958104Y-52102444D01*
X68921498Y-52095455D01*
X68894314Y-52081564D01*
X68872955Y-52058938D01*
X68853943Y-52025991D01*
X68846918Y-52010563D01*
X68841696Y-51994988D01*
X68837951Y-51976369D01*
X68835352Y-51951810D01*
X68833573Y-51918415D01*
X68832284Y-51873287D01*
X68831390Y-51827083D01*
X68828614Y-51668333D01*
X68347333Y-51668333D01*
X66679400Y-51668333D01*
X66679400Y-50707755D01*
X67458333Y-50707755D01*
X67460436Y-50712587D01*
X67468297Y-50715924D01*
X67484242Y-50717946D01*
X67510597Y-50718836D01*
X67549690Y-50718775D01*
X67591627Y-50718165D01*
X67724920Y-50715833D01*
X67740857Y-50681967D01*
X67748427Y-50665809D01*
X67762105Y-50636541D01*
X67780846Y-50596400D01*
X67803606Y-50547625D01*
X67829341Y-50492454D01*
X67857006Y-50433125D01*
X67865797Y-50414268D01*
X67974800Y-50180436D01*
X67974800Y-49775850D01*
X67743459Y-49778058D01*
X67681968Y-49778641D01*
X67625605Y-49779165D01*
X67576715Y-49779611D01*
X67537643Y-49779958D01*
X67510735Y-49780183D01*
X67498337Y-49780266D01*
X67498203Y-49780266D01*
X67494102Y-49781576D01*
X67490888Y-49786712D01*
X67488455Y-49797485D01*
X67486698Y-49815706D01*
X67485509Y-49843186D01*
X67484783Y-49881737D01*
X67484412Y-49933169D01*
X67484292Y-49999293D01*
X67484288Y-50017333D01*
X67484288Y-50254400D01*
X67547511Y-50254400D01*
X67577793Y-50254785D01*
X67600164Y-50255802D01*
X67610477Y-50257247D01*
X67610733Y-50257528D01*
X67608043Y-50266020D01*
X67600452Y-50288394D01*
X67588686Y-50322561D01*
X67573466Y-50366431D01*
X67555515Y-50417914D01*
X67535556Y-50474919D01*
X67534533Y-50477835D01*
X67514409Y-50535644D01*
X67496279Y-50588598D01*
X67480873Y-50634489D01*
X67468926Y-50671104D01*
X67461169Y-50696235D01*
X67458335Y-50707672D01*
X67458333Y-50707755D01*
X66679400Y-50707755D01*
X66679400Y-49780266D01*
X66494411Y-49780266D01*
X66435328Y-49780008D01*
X66377594Y-49779288D01*
X66324904Y-49778185D01*
X66280957Y-49776783D01*
X66249448Y-49775161D01*
X66244644Y-49774791D01*
X66179866Y-49769315D01*
X66179866Y-51149919D01*
X65942798Y-51149919D01*
X65942762Y-51008874D01*
X65942649Y-50862010D01*
X65942467Y-50720654D01*
X65942219Y-50585696D01*
X65941910Y-50458026D01*
X65941543Y-50338537D01*
X65941123Y-50228118D01*
X65940653Y-50127662D01*
X65940138Y-50038058D01*
X65939581Y-49960197D01*
X65938988Y-49894971D01*
X65938362Y-49843271D01*
X65937707Y-49805987D01*
X65937027Y-49784011D01*
X65936450Y-49778036D01*
X65926663Y-49777331D01*
X65902133Y-49776930D01*
X65865047Y-49776828D01*
X65817594Y-49777022D01*
X65761961Y-49777508D01*
X65700336Y-49778282D01*
X65686683Y-49778483D01*
X65443267Y-49782161D01*
X65200043Y-49782161D01*
X65199850Y-49780249D01*
X65139323Y-49780100D01*
X65075412Y-49779970D01*
X65010441Y-49779860D01*
X64946735Y-49779773D01*
X64886616Y-49779710D01*
X64832409Y-49779675D01*
X64786438Y-49779669D01*
X64751027Y-49779694D01*
X64728500Y-49779752D01*
X64721483Y-49779818D01*
X64718507Y-49780668D01*
X64715957Y-49783831D01*
X64713801Y-49790517D01*
X64712005Y-49801937D01*
X64710537Y-49819300D01*
X64709365Y-49843817D01*
X64708454Y-49876698D01*
X64707774Y-49919153D01*
X64707290Y-49972393D01*
X64706970Y-50037627D01*
X64706781Y-50116067D01*
X64706691Y-50208921D01*
X64706667Y-50317401D01*
X64706667Y-50873499D01*
X64338367Y-50868233D01*
X64334133Y-50322504D01*
X64329900Y-49776775D01*
X64092833Y-49778332D01*
X64030791Y-49778744D01*
X63974057Y-49779128D01*
X63924903Y-49779469D01*
X63885601Y-49779751D01*
X63858421Y-49779957D01*
X63845636Y-49780071D01*
X63845183Y-49780078D01*
X63843759Y-49783134D01*
X63842460Y-49792686D01*
X63841282Y-49809386D01*
X63840218Y-49833888D01*
X63839265Y-49866846D01*
X63838418Y-49908913D01*
X63837670Y-49960742D01*
X63837018Y-50022987D01*
X63836456Y-50096301D01*
X63835979Y-50181338D01*
X63835582Y-50278752D01*
X63835260Y-50389195D01*
X63835008Y-50513321D01*
X63834821Y-50651783D01*
X63834694Y-50805235D01*
X63834622Y-50974331D01*
X63834600Y-51154689D01*
X63592571Y-51154689D01*
X63594303Y-51151802D01*
X63611173Y-51116947D01*
X63628869Y-51070898D01*
X63645572Y-51019188D01*
X63659464Y-50967347D01*
X63667265Y-50929884D01*
X63670730Y-50900058D01*
X63673540Y-50856204D01*
X63675697Y-50801217D01*
X63677200Y-50737990D01*
X63678052Y-50669416D01*
X63678253Y-50598391D01*
X63677804Y-50527806D01*
X63676706Y-50460555D01*
X63674959Y-50399533D01*
X63672565Y-50347632D01*
X63669525Y-50307747D01*
X63667060Y-50288798D01*
X63641643Y-50183109D01*
X63604168Y-50089041D01*
X63554921Y-50006881D01*
X63494185Y-49936917D01*
X63422243Y-49879438D01*
X63339380Y-49834732D01*
X63245879Y-49803086D01*
X63174639Y-49788917D01*
X63156357Y-49787427D01*
X63123279Y-49785979D01*
X63077545Y-49784597D01*
X63021292Y-49783304D01*
X62956659Y-49782123D01*
X62885783Y-49781076D01*
X62810804Y-49780188D01*
X62733858Y-49779481D01*
X62657085Y-49778978D01*
X62582623Y-49778703D01*
X62512609Y-49778678D01*
X62449182Y-49778927D01*
X62394480Y-49779472D01*
X62359283Y-49780117D01*
X62358602Y-49788419D01*
X62357956Y-49812570D01*
X62357347Y-49851487D01*
X62356774Y-49904083D01*
X62356239Y-49969276D01*
X62355743Y-50045981D01*
X62355285Y-50133113D01*
X62354866Y-50229589D01*
X62354488Y-50334323D01*
X62354150Y-50446232D01*
X62353854Y-50564232D01*
X62353599Y-50687238D01*
X62353387Y-50814166D01*
X62353219Y-50943931D01*
X62353094Y-51075450D01*
X62353013Y-51207638D01*
X62352978Y-51339410D01*
X61735159Y-51339410D01*
X61734467Y-51245000D01*
X61125267Y-51245000D01*
X61125267Y-50838600D01*
X61733689Y-50838600D01*
X61736394Y-50819550D01*
X61736948Y-50806956D01*
X61737341Y-50779439D01*
X61737571Y-50739009D01*
X61737634Y-50687675D01*
X61737530Y-50627447D01*
X61737255Y-50560335D01*
X61736807Y-50488347D01*
X61736783Y-50485117D01*
X61734467Y-50169733D01*
X61125267Y-50169733D01*
X61125267Y-49763333D01*
X61734867Y-49763333D01*
X61734996Y-49528383D01*
X61735246Y-49466756D01*
X61735888Y-49410564D01*
X61736861Y-49362062D01*
X61738107Y-49323507D01*
X61739568Y-49297156D01*
X61741185Y-49285265D01*
X61741346Y-49284967D01*
X61751595Y-49282548D01*
X61778017Y-49280505D01*
X61819855Y-49278859D01*
X61876354Y-49277630D01*
X61946758Y-49276840D01*
X62030309Y-49276509D01*
X62048133Y-49276500D01*
X62348700Y-49276500D01*
X62350922Y-48969583D01*
X62351775Y-48883252D01*
X62352974Y-48810087D01*
X62354495Y-48750798D01*
X62356315Y-48706096D01*
X62358407Y-48676690D01*
X62360749Y-48663290D01*
X62361505Y-48662497D01*
X62372356Y-48662444D01*
X62397161Y-48662401D01*
X62432944Y-48662368D01*
X62476726Y-48662346D01*
X62525528Y-48662334D01*
X62576374Y-48662332D01*
X62626284Y-48662340D01*
X62672281Y-48662359D01*
X62711386Y-48662388D01*
X62740622Y-48662427D01*
X62757011Y-48662476D01*
X62759228Y-48662497D01*
X62761640Y-48670896D01*
X62763811Y-48695517D01*
X62765715Y-48735649D01*
X62767330Y-48790584D01*
X62768630Y-48859610D01*
X62769590Y-48942018D01*
X62769811Y-48969583D01*
X62772033Y-49276500D01*
X63423966Y-49276500D01*
X63426188Y-48970543D01*
X63426820Y-48890244D01*
X63427492Y-48825252D01*
X63428291Y-48773941D01*
X63429308Y-48734685D01*
X63430632Y-48705858D01*
X63432351Y-48685833D01*
X63434555Y-48672984D01*
X63437332Y-48665686D01*
X63440773Y-48662312D01*
X63443121Y-48661510D01*
X63455568Y-48660726D01*
X63482321Y-48660229D01*
X63520755Y-48660026D01*
X63568246Y-48660127D01*
X63622168Y-48660538D01*
X63650345Y-48660858D01*
X63842856Y-48663284D01*
X63847300Y-49276500D01*
X64156333Y-49278423D01*
X64227736Y-49278733D01*
X64294330Y-49278764D01*
X64354085Y-49278535D01*
X64404972Y-49278065D01*
X64444961Y-49277373D01*
X64472022Y-49276476D01*
X64484010Y-49275425D01*
X64502653Y-49270504D01*
X64502900Y-48968702D01*
X64503148Y-48666900D01*
X64687457Y-48662667D01*
X64742700Y-48661537D01*
X64793102Y-48660771D01*
X64835891Y-48660388D01*
X64868294Y-48660409D01*
X64887539Y-48660856D01*
X64890711Y-48661125D01*
X64909656Y-48663817D01*
X64911878Y-48970158D01*
X64914100Y-49276500D01*
X65574500Y-49276500D01*
X65576722Y-48969886D01*
X65578944Y-48663273D01*
X65774406Y-48660853D01*
X65830438Y-48660357D01*
X65880852Y-48660289D01*
X65923165Y-48660621D01*
X65954898Y-48661324D01*
X65973569Y-48662373D01*
X65977392Y-48663099D01*
X65979182Y-48672351D01*
X65980943Y-48696607D01*
X65982612Y-48733938D01*
X65984130Y-48782413D01*
X65985435Y-48840105D01*
X65986467Y-48905083D01*
X65987141Y-48972132D01*
X65989367Y-49276500D01*
X66641300Y-49276500D01*
X66643522Y-48969583D01*
X66645744Y-48662667D01*
X66829789Y-48661961D01*
X66885011Y-48661658D01*
X66935397Y-48661209D01*
X66978169Y-48660653D01*
X67010549Y-48660029D01*
X67029759Y-48659374D01*
X67032883Y-48659143D01*
X67051933Y-48657030D01*
X67052936Y-48941365D01*
G37*
X67052936Y-48941365D02*
X67053130Y-49009264D01*
X67053224Y-49071822D01*
X67053220Y-49127010D01*
X67053122Y-49172798D01*
X67052934Y-49207157D01*
X67052659Y-49228059D01*
X67052412Y-49233621D01*
X67053113Y-49247434D01*
X67055829Y-49261237D01*
X67060772Y-49280932D01*
X67716566Y-49276500D01*
X67718789Y-48969583D01*
X67719527Y-48885384D01*
X67720439Y-48816839D01*
X67721577Y-48762668D01*
X67722994Y-48721593D01*
X67724743Y-48692334D01*
X67726876Y-48673612D01*
X67729448Y-48664148D01*
X67731489Y-48662347D01*
X67741980Y-48662281D01*
X67766399Y-48662237D01*
X67801736Y-48662213D01*
X67844987Y-48662208D01*
X67893143Y-48662219D01*
X67943199Y-48662245D01*
X67992147Y-48662286D01*
X68036980Y-48662338D01*
X68074692Y-48662401D01*
X68102276Y-48662473D01*
X68116511Y-48662549D01*
X68119411Y-48666341D01*
X68121838Y-48678500D01*
X68123844Y-48700306D01*
X68125481Y-48733039D01*
X68126804Y-48777978D01*
X68127865Y-48836405D01*
X68128716Y-48909598D01*
X68129211Y-48969583D01*
X68131433Y-49276500D01*
X68459517Y-49278716D01*
X68787600Y-49280932D01*
X68787809Y-49261783D01*
X68787846Y-49248982D01*
X68787858Y-49221361D01*
X68787846Y-49181035D01*
X68787810Y-49130118D01*
X68787753Y-49070723D01*
X68787676Y-49004963D01*
X68787606Y-48953310D01*
X68787552Y-48875346D01*
X68787688Y-48812650D01*
X68788092Y-48763557D01*
X68788843Y-48726402D01*
X68790020Y-48699519D01*
X68791702Y-48681244D01*
X68793967Y-48669912D01*
X68796893Y-48663857D01*
X68800561Y-48661415D01*
X68801411Y-48661210D01*
X68813701Y-48660514D01*
X68840313Y-48660093D01*
X68878636Y-48659951D01*
X68926060Y-48660093D01*
X68979976Y-48660523D01*
X69008942Y-48660853D01*
X69202256Y-48663273D01*
X69204478Y-48969886D01*
X69206700Y-49276500D01*
X69841700Y-49276500D01*
X69846144Y-48662666D01*
X70268649Y-48662666D01*
X70271074Y-48963548D01*
X70271812Y-49044362D01*
X70272641Y-49109842D01*
X70273640Y-49161585D01*
X70274887Y-49201191D01*
X70276461Y-49230258D01*
X70278440Y-49250385D01*
X70280902Y-49263171D01*
X70283926Y-49270215D01*
X70286200Y-49272452D01*
X70297665Y-49274423D01*
X70324486Y-49276189D01*
X70365090Y-49277712D01*
X70417899Y-49278954D01*
X70481339Y-49279875D01*
X70553835Y-49280437D01*
X70618517Y-49280604D01*
X70938133Y-49280733D01*
X70938133Y-49763333D01*
X71488467Y-49763333D01*
X71488467Y-50169733D01*
X70938133Y-50169733D01*
X70938133Y-50838600D01*
X71488467Y-50838600D01*
X71488467Y-51245000D01*
X70938133Y-51245000D01*
X70938133Y-51905400D01*
X71488768Y-51905400D01*
X71486500Y-52110717D01*
X71484233Y-52316033D01*
X71221767Y-52317706D01*
X71156433Y-52318135D01*
X71096354Y-52318551D01*
X71043677Y-52318939D01*
X71000548Y-52319281D01*
X70969113Y-52319562D01*
X70951520Y-52319763D01*
X70948717Y-52319823D01*
X70945924Y-52323422D01*
X70943634Y-52334819D01*
X70941805Y-52355296D01*
X70940395Y-52386134D01*
X70939364Y-52428616D01*
X70938672Y-52484024D01*
X70938275Y-52553641D01*
X70938135Y-52638748D01*
X70938133Y-52650467D01*
X70938133Y-52980666D01*
X71213450Y-52980666D01*
X71488768Y-52980667D01*
X71486500Y-53184575D01*
X71484233Y-53388483D01*
X71213300Y-53389892D01*
X70942367Y-53391300D01*
X70937935Y-54047232D01*
X71484233Y-54051700D01*
X71486500Y-54257016D01*
X71488768Y-54462333D01*
X70938133Y-54462333D01*
X70938133Y-54792533D01*
X70938173Y-54876131D01*
X70938340Y-54944349D01*
X70938702Y-54998743D01*
X70939331Y-55040865D01*
X70940294Y-55072272D01*
X70941663Y-55094515D01*
X70943507Y-55109151D01*
X70945896Y-55117733D01*
X70948899Y-55121815D01*
X70952586Y-55122951D01*
X70952950Y-55122962D01*
X70964868Y-55123004D01*
X70991518Y-55123016D01*
X71030696Y-55122998D01*
X71080202Y-55122952D01*
X71137832Y-55122880D01*
X71201386Y-55122784D01*
X71228117Y-55122739D01*
X71488467Y-55122287D01*
X71488467Y-55537600D01*
X70938133Y-55537600D01*
X70938133Y-56198000D01*
X71488467Y-56198000D01*
X71488467Y-56604400D01*
X70938133Y-56604400D01*
X70938133Y-57095270D01*
X70605817Y-57097485D01*
X70273500Y-57099700D01*
X70273500Y-57713537D01*
X70059717Y-57713535D01*
X69845933Y-57713533D01*
X69845933Y-57095467D01*
X69202467Y-57095467D01*
X69202467Y-57404650D01*
X69202466Y-57713834D01*
X68997150Y-57711567D01*
X68791833Y-57709300D01*
X68789879Y-57425667D01*
X68789405Y-57357005D01*
X68788964Y-57292938D01*
X68788569Y-57235645D01*
X68788235Y-57187305D01*
X68787979Y-57150095D01*
X68787814Y-57126195D01*
X68787762Y-57118750D01*
X68787600Y-57095467D01*
X68127200Y-57095467D01*
X68127200Y-57713533D01*
X67720800Y-57713533D01*
X67720800Y-57095270D01*
X67388483Y-57097485D01*
X67300790Y-57098184D01*
X67228768Y-57099036D01*
X67171158Y-57100088D01*
X67126699Y-57101389D01*
X67094129Y-57102987D01*
X67072189Y-57104930D01*
X67059617Y-57107268D01*
X67055152Y-57110048D01*
X67055108Y-57110283D01*
X67054832Y-57120966D01*
X67054522Y-57146573D01*
X67054192Y-57185097D01*
X67053856Y-57234530D01*
X67053529Y-57292863D01*
X67053223Y-57358087D01*
X67052991Y-57417200D01*
X67051933Y-57713533D01*
X66645533Y-57713533D01*
X66645533Y-57095467D01*
X65985133Y-57095467D01*
X65985133Y-57713533D01*
X65578944Y-57713533D01*
X65576722Y-57406617D01*
X65574500Y-57099700D01*
X65242183Y-57097485D01*
X64909867Y-57095270D01*
X64909867Y-57713834D01*
X64502583Y-57709300D01*
X64503233Y-57423739D01*
X64503233Y-57354953D01*
X64502934Y-57290857D01*
X64502370Y-57233602D01*
X64501572Y-57185339D01*
X64500574Y-57148220D01*
X64499410Y-57124394D01*
X64498524Y-57116822D01*
X64493164Y-57095467D01*
X63843067Y-57095467D01*
X63843067Y-57713533D01*
X63428200Y-57713533D01*
X63428200Y-57095467D01*
X62767800Y-57095467D01*
X62767800Y-57713533D01*
X62352933Y-57713533D01*
X62352933Y-57095467D01*
X61734383Y-57095467D01*
X61734873Y-56860517D01*
X61734993Y-56798755D01*
X61735084Y-56742308D01*
X61735145Y-56693456D01*
X61735173Y-56654484D01*
X61735166Y-56627674D01*
X61735121Y-56615309D01*
X61735115Y-56614983D01*
X61731527Y-56612086D01*
X61720027Y-56609732D01*
X61699287Y-56607873D01*
X61667978Y-56606464D01*
X61624772Y-56605459D01*
X61568340Y-56604811D01*
X61497356Y-56604475D01*
X61430066Y-56604400D01*
X61125267Y-56604400D01*
X61125267Y-56198000D01*
X61734867Y-56198000D01*
X61734867Y-55537600D01*
X61125267Y-55537600D01*
X61125267Y-55334400D01*
X61125615Y-55265078D01*
X61126635Y-55209149D01*
X61128292Y-55167470D01*
X61130550Y-55140900D01*
X61133374Y-55130298D01*
X61133733Y-55130142D01*
X61150049Y-55127118D01*
X61150667Y-55126967D01*
X61160859Y-55126438D01*
X61185971Y-55125896D01*
X61223991Y-55125362D01*
X61272906Y-55124859D01*
X61330702Y-55124406D01*
X61395366Y-55124026D01*
X61449116Y-55123795D01*
X61739100Y-55122739D01*
X61734480Y-54462333D01*
X61125267Y-54462333D01*
X61125267Y-54047466D01*
X61735065Y-54047466D01*
X61730633Y-53391300D01*
X61442766Y-53389510D01*
X61374063Y-53389076D01*
X61310365Y-53388661D01*
X61253750Y-53388279D01*
X61206299Y-53387945D01*
X61170091Y-53387674D01*
X61147205Y-53387479D01*
X61140083Y-53387393D01*
X61135420Y-53386203D01*
X61131848Y-53381545D01*
X61129223Y-53371443D01*
X61127401Y-53353922D01*
X61126238Y-53327004D01*
X61125591Y-53288713D01*
X61125316Y-53237073D01*
X61125267Y-53183866D01*
X61125267Y-52980666D01*
X61734867Y-52980666D01*
X61734867Y-52887533D01*
X65460200Y-52887533D01*
X65460200Y-55647667D01*
X66645533Y-55647667D01*
X66645533Y-55643433D01*
X66725670Y-55643433D01*
X66957810Y-55645686D01*
X67018749Y-55646150D01*
X67073968Y-55646326D01*
X67121256Y-55646226D01*
X67158403Y-55645864D01*
X67183201Y-55645252D01*
X67193439Y-55644403D01*
X67193557Y-55644332D01*
X67195308Y-55635782D01*
X67199142Y-55612954D01*
X67204686Y-55578320D01*
X67211565Y-55534357D01*
X67219406Y-55483539D01*
X67227834Y-55428340D01*
X67236476Y-55371237D01*
X67244957Y-55314702D01*
X67252904Y-55261212D01*
X67259944Y-55213240D01*
X67265700Y-55173262D01*
X67269801Y-55143753D01*
X67271872Y-55127186D01*
X67272049Y-55124850D01*
X67280139Y-55124266D01*
X67302872Y-55123743D01*
X67337957Y-55123306D01*
X67383105Y-55122977D01*
X67436025Y-55122780D01*
X67479500Y-55122733D01*
X67536750Y-55122868D01*
X67587946Y-55123246D01*
X67630800Y-55123829D01*
X67663021Y-55124579D01*
X67682318Y-55125459D01*
X67686933Y-55126182D01*
X67688098Y-55135132D01*
X67691385Y-55158662D01*
X67696484Y-55194597D01*
X67703085Y-55240759D01*
X67710877Y-55294972D01*
X67719551Y-55355059D01*
X67720429Y-55361132D01*
X67729349Y-55423072D01*
X67737558Y-55480619D01*
X67744710Y-55531318D01*
X67750462Y-55572712D01*
X67754470Y-55602343D01*
X67756389Y-55617756D01*
X67756413Y-55617993D01*
X67757735Y-55627428D01*
X67760806Y-55634937D01*
X67767364Y-55640717D01*
X67779145Y-55644965D01*
X67797885Y-55647877D01*
X67825322Y-55649649D01*
X67863192Y-55650480D01*
X67913231Y-55650566D01*
X67977177Y-55650103D01*
X68034649Y-55649521D01*
X68102516Y-55648737D01*
X68155288Y-55647894D01*
X68194802Y-55646850D01*
X68222896Y-55645467D01*
X68241408Y-55643605D01*
X68252175Y-55641124D01*
X68257035Y-55637884D01*
X68257826Y-55633747D01*
X68257611Y-55632587D01*
X68255501Y-55620987D01*
X68251005Y-55594563D01*
X68244431Y-55555208D01*
X68236090Y-55504817D01*
X68226287Y-55445283D01*
X68215334Y-55378499D01*
X68203537Y-55306360D01*
X68191205Y-55230759D01*
X68178647Y-55153589D01*
X68166172Y-55076744D01*
X68154087Y-55002118D01*
X68142702Y-54931605D01*
X68132325Y-54867098D01*
X68126738Y-54832188D01*
X68323469Y-54832188D01*
X68323474Y-54959607D01*
X68323529Y-55078885D01*
X68323635Y-55189121D01*
X68323789Y-55289413D01*
X68323991Y-55378859D01*
X68324239Y-55456559D01*
X68324532Y-55521609D01*
X68324868Y-55573110D01*
X68325246Y-55610158D01*
X68325666Y-55631853D01*
X68326007Y-55637510D01*
X68329833Y-55640027D01*
X68340028Y-55642102D01*
X68357806Y-55643756D01*
X68384380Y-55645012D01*
X68420961Y-55645893D01*
X68468764Y-55646422D01*
X68528999Y-55646620D01*
X68602881Y-55646511D01*
X68691622Y-55646117D01*
X68764215Y-55645678D01*
X68861407Y-55645017D01*
X68943255Y-55644370D01*
X69011345Y-55643669D01*
X69067266Y-55642844D01*
X69112606Y-55641826D01*
X69148953Y-55640548D01*
X69177894Y-55638940D01*
X69201018Y-55636935D01*
X69219913Y-55634463D01*
X69236166Y-55631455D01*
X69251366Y-55627843D01*
X69265475Y-55624015D01*
X69345481Y-55597358D01*
X69413552Y-55564619D01*
X69474331Y-55523155D01*
X69528460Y-55474370D01*
X69574580Y-55423277D01*
X69613051Y-55369384D01*
X69644331Y-55310945D01*
X69668881Y-55246211D01*
X69687160Y-55173433D01*
X69699625Y-55090863D01*
X69706738Y-54996753D01*
X69708955Y-54889355D01*
X69707510Y-54792533D01*
X69703633Y-54697313D01*
X69697330Y-54616465D01*
X69688114Y-54547541D01*
X69675502Y-54488093D01*
X69659006Y-54435671D01*
X69638142Y-54387827D01*
X69621036Y-54356358D01*
X69593275Y-54315721D01*
X69558325Y-54274321D01*
X69520721Y-54236956D01*
X69484997Y-54208421D01*
X69475424Y-54202357D01*
X69453757Y-54189036D01*
X69444862Y-54180643D01*
X69446648Y-54173990D01*
X69453267Y-54168565D01*
X69503901Y-54124374D01*
X69551365Y-54068907D01*
X69591257Y-54007774D01*
X69611308Y-53967033D01*
X69633170Y-53901527D01*
X69649588Y-53823453D01*
X69660527Y-53736290D01*
X69665957Y-53643515D01*
X69665844Y-53548606D01*
X69660156Y-53455041D01*
X69648859Y-53366298D01*
X69631921Y-53285854D01*
X69618137Y-53240421D01*
X69580479Y-53156473D01*
X69530162Y-53083769D01*
X69467189Y-53022314D01*
X69391566Y-52972110D01*
X69303297Y-52933162D01*
X69210417Y-52907165D01*
X69192181Y-52903555D01*
X69172830Y-52900549D01*
X69150688Y-52898093D01*
X69124081Y-52896134D01*
X69091333Y-52894617D01*
X69050769Y-52893488D01*
X69000714Y-52892694D01*
X68939493Y-52892180D01*
X68865430Y-52891892D01*
X68776852Y-52891777D01*
X68732567Y-52891766D01*
X68326167Y-52891766D01*
X68323992Y-54259133D01*
X68323778Y-54410100D01*
X68323620Y-54556533D01*
X68323518Y-54697529D01*
X68323469Y-54832188D01*
X68126738Y-54832188D01*
X68123265Y-54810490D01*
X68115829Y-54763676D01*
X68110402Y-54729033D01*
X68105959Y-54700885D01*
X68099025Y-54657693D01*
X68089871Y-54601120D01*
X68078768Y-54532827D01*
X68065989Y-54454477D01*
X68051804Y-54367732D01*
X68036484Y-54274255D01*
X68020302Y-54175708D01*
X68003529Y-54073754D01*
X67990826Y-53996666D01*
X67973248Y-53889916D01*
X67955663Y-53782812D01*
X67938394Y-53677345D01*
X67921767Y-53575508D01*
X67906103Y-53479293D01*
X67891729Y-53390693D01*
X67878967Y-53311699D01*
X67868141Y-53244305D01*
X67859577Y-53190502D01*
X67855871Y-53166933D01*
X67846417Y-53106804D01*
X67837492Y-53050769D01*
X67829525Y-53001454D01*
X67822941Y-52961489D01*
X67818169Y-52933499D01*
X67815922Y-52921400D01*
X67809700Y-52891766D01*
X67176062Y-52891766D01*
X67054080Y-53636833D01*
X67035880Y-53747982D01*
X67018340Y-53855056D01*
X67001671Y-53956778D01*
X66986082Y-54051873D01*
X66971782Y-54139064D01*
X66958981Y-54217076D01*
X66947887Y-54284632D01*
X66938711Y-54340456D01*
X66931662Y-54383273D01*
X66926949Y-54411806D01*
X66924875Y-54424233D01*
X66922320Y-54439568D01*
X66917281Y-54470151D01*
X66909996Y-54514518D01*
X66900706Y-54571206D01*
X66889650Y-54638751D01*
X66877068Y-54715688D01*
X66863198Y-54800553D01*
X66848282Y-54891882D01*
X66832557Y-54988211D01*
X66821660Y-55055000D01*
X66725670Y-55643433D01*
X66645533Y-55643433D01*
X66645533Y-55190467D01*
X65951267Y-55190467D01*
X65951267Y-52887533D01*
X65460200Y-52887533D01*
X61734867Y-52887533D01*
X61734867Y-52320267D01*
X61447000Y-52319208D01*
X61378641Y-52318897D01*
X61315590Y-52318497D01*
X61259868Y-52318028D01*
X61213494Y-52317514D01*
X61178491Y-52316974D01*
X61156878Y-52316431D01*
X61150667Y-52316033D01*
X61134351Y-52312938D01*
X61133733Y-52312858D01*
X61130847Y-52304144D01*
X61128521Y-52279364D01*
X61126793Y-52239376D01*
X61125698Y-52185038D01*
X61125271Y-52117210D01*
X61125267Y-52108600D01*
X61125267Y-51905400D01*
X61429446Y-51905400D01*
X61509607Y-51905345D01*
X61574457Y-51905131D01*
X61625617Y-51904683D01*
X61664707Y-51903927D01*
X61693350Y-51902788D01*
X61713166Y-51901191D01*
X61725778Y-51899062D01*
X61732806Y-51896326D01*
X61735871Y-51892908D01*
X61736362Y-51891277D01*
X61736922Y-51879840D01*
X61737321Y-51853438D01*
X61737557Y-51814037D01*
X61737627Y-51763605D01*
X61737529Y-51704109D01*
X61737260Y-51637517D01*
X61736817Y-51565795D01*
X61736783Y-51561077D01*
X61735159Y-51339410D01*
X62352978Y-51339410D01*
X62352988Y-51469683D01*
X62353045Y-51597373D01*
X62353149Y-51721394D01*
X62353300Y-51840662D01*
X62353499Y-51954094D01*
X62353747Y-52060605D01*
X62354045Y-52159111D01*
X62354392Y-52248527D01*
X62354790Y-52327770D01*
X62355240Y-52395754D01*
X62355741Y-52451396D01*
X62356295Y-52493611D01*
X62356903Y-52521316D01*
X62357564Y-52533425D01*
X62357698Y-52533876D01*
X62367271Y-52535322D01*
X62391114Y-52536554D01*
X62426566Y-52537568D01*
X62470966Y-52538355D01*
X62521652Y-52538909D01*
X62575963Y-52539224D01*
X62631237Y-52539294D01*
X62684812Y-52539111D01*
X62734027Y-52538670D01*
X62776221Y-52537963D01*
X62808732Y-52536985D01*
X62828898Y-52535728D01*
X62833355Y-52535040D01*
X62852343Y-52529991D01*
X62854521Y-51986979D01*
X62856700Y-51443967D01*
X62987933Y-51441829D01*
X63062587Y-51439737D01*
X63124260Y-51435795D01*
X63176854Y-51429484D01*
X63224271Y-51420281D01*
X63270410Y-51407665D01*
X63289516Y-51401502D01*
X63379006Y-51363246D01*
X63457746Y-51311926D01*
X63525913Y-51247397D01*
X63583681Y-51169513D01*
X63592571Y-51154689D01*
X63834600Y-51154689D01*
X63834630Y-51305940D01*
X63834718Y-51452591D01*
X63834860Y-51593750D01*
X63835054Y-51728523D01*
X63835295Y-51856014D01*
X63835582Y-51975331D01*
X63835911Y-52085579D01*
X63836278Y-52185865D01*
X63836680Y-52275294D01*
X63837115Y-52352972D01*
X63837578Y-52418007D01*
X63838067Y-52469503D01*
X63838579Y-52506566D01*
X63839110Y-52528304D01*
X63839546Y-52534057D01*
X63848961Y-52535329D01*
X63873144Y-52536498D01*
X63909930Y-52537519D01*
X63957154Y-52538346D01*
X64012650Y-52538934D01*
X64074255Y-52539238D01*
X64089312Y-52539263D01*
X64334133Y-52539524D01*
X64334133Y-51329667D01*
X64706554Y-51329667D01*
X64710900Y-52536167D01*
X65206200Y-52539847D01*
X65206200Y-51160057D01*
X65206162Y-51008596D01*
X65206049Y-50861786D01*
X65205868Y-50720515D01*
X65205620Y-50585670D01*
X65205311Y-50458140D01*
X65204944Y-50338812D01*
X65204524Y-50228575D01*
X65204055Y-50128316D01*
X65203540Y-50038924D01*
X65202984Y-49961285D01*
X65202392Y-49896289D01*
X65201766Y-49844824D01*
X65201111Y-49807776D01*
X65200432Y-49786034D01*
X65200043Y-49782161D01*
X65443267Y-49782161D01*
X65443267Y-51155636D01*
X65443302Y-51306851D01*
X65443406Y-51453476D01*
X65443575Y-51594617D01*
X65443805Y-51729379D01*
X65444092Y-51856867D01*
X65444432Y-51976185D01*
X65444822Y-52086438D01*
X65445257Y-52186732D01*
X65445735Y-52276172D01*
X65446250Y-52353862D01*
X65446800Y-52418907D01*
X65447381Y-52470413D01*
X65447988Y-52507484D01*
X65448618Y-52529225D01*
X65449130Y-52534975D01*
X65458789Y-52536453D01*
X65483200Y-52537746D01*
X65520184Y-52538810D01*
X65567561Y-52539598D01*
X65623150Y-52540067D01*
X65684772Y-52540170D01*
X65698897Y-52540139D01*
X65942800Y-52539441D01*
X65942800Y-51160353D01*
X65942798Y-51149919D01*
X66179866Y-51149919D01*
X66179890Y-51335548D01*
X66179964Y-51504897D01*
X66180093Y-51658617D01*
X66180283Y-51797360D01*
X66180538Y-51921779D01*
X66180864Y-52032525D01*
X66181265Y-52130251D01*
X66181746Y-52215608D01*
X66182312Y-52289250D01*
X66182969Y-52351828D01*
X66183721Y-52403994D01*
X66184573Y-52446401D01*
X66185531Y-52479701D01*
X66186598Y-52504545D01*
X66187781Y-52521587D01*
X66189085Y-52531477D01*
X66190450Y-52534849D01*
X66200494Y-52535579D01*
X66226076Y-52536281D01*
X66265801Y-52536944D01*
X66318274Y-52537558D01*
X66382100Y-52538111D01*
X66455884Y-52538593D01*
X66538230Y-52538991D01*
X66627744Y-52539296D01*
X66723031Y-52539496D01*
X66787350Y-52539565D01*
X67373666Y-52539953D01*
X67373666Y-52074733D01*
X66679400Y-52074733D01*
X66679400Y-51668333D01*
X68347333Y-51668333D01*
X68347340Y-51772050D01*
X68350543Y-51895052D01*
X68360447Y-52003859D01*
X68377523Y-52100023D01*
X68402239Y-52185092D01*
X68435067Y-52260618D01*
X68476476Y-52328151D01*
X68526936Y-52389241D01*
X68537833Y-52400497D01*
X68600987Y-52456388D01*
X68668699Y-52500218D01*
X68744221Y-52533610D01*
X68830806Y-52558188D01*
X68869386Y-52565936D01*
X68905845Y-52569941D01*
X68954407Y-52571642D01*
X69010440Y-52571238D01*
X69069314Y-52568929D01*
X69126396Y-52564916D01*
X69177055Y-52559398D01*
X69216659Y-52552576D01*
X69224635Y-52550596D01*
X69323291Y-52515931D01*
X69410484Y-52468851D01*
X69486051Y-52409556D01*
X69549829Y-52338242D01*
X69601654Y-52255107D01*
X69641364Y-52160349D01*
X69668795Y-52054167D01*
X69677163Y-52002161D01*
X69682314Y-51943968D01*
X69684130Y-51876315D01*
X69682821Y-51804341D01*
X69678596Y-51733186D01*
X69671666Y-51667991D01*
X69662241Y-51613898D01*
X69661114Y-51609067D01*
X69641142Y-51536777D01*
X69616467Y-51468590D01*
X69585944Y-51402901D01*
X69548425Y-51338104D01*
X69502765Y-51272595D01*
X69447818Y-51204770D01*
X69382438Y-51133024D01*
X69305478Y-51055751D01*
X69215792Y-50971348D01*
X69186695Y-50944815D01*
X69108869Y-50872289D01*
X69044115Y-50807193D01*
X68991255Y-50747811D01*
X68949108Y-50692426D01*
X68916497Y-50639323D01*
X68892243Y-50586784D01*
X68875167Y-50533094D01*
X68864090Y-50476536D01*
X68863831Y-50474725D01*
X68860399Y-50420514D01*
X68864150Y-50364563D01*
X68874301Y-50312717D01*
X68890070Y-50270822D01*
X68891489Y-50268186D01*
X68914995Y-50235657D01*
X68944789Y-50214348D01*
X68983985Y-50202755D01*
X69033792Y-50199366D01*
X69068231Y-50200043D01*
X69091492Y-50203044D01*
X69109308Y-50209829D01*
X69127415Y-50221855D01*
X69130048Y-50223848D01*
X69152498Y-50243494D01*
X69169573Y-50265456D01*
X69182055Y-50292387D01*
X69190728Y-50326939D01*
X69196373Y-50371764D01*
X69199773Y-50429514D01*
X69200872Y-50463950D01*
X69204455Y-50601533D01*
X69676600Y-50601533D01*
X69676600Y-50475146D01*
X69675323Y-50392505D01*
X69671140Y-50322571D01*
X69663527Y-50261286D01*
X69651957Y-50204591D01*
X69635904Y-50148429D01*
X69633177Y-50140100D01*
X69593887Y-50045012D01*
X69543463Y-49962679D01*
X69481975Y-49893162D01*
X69409493Y-49836521D01*
X69326087Y-49792815D01*
X69231828Y-49762104D01*
X69176229Y-49750910D01*
X69068233Y-49739547D01*
X68962935Y-49740396D01*
X68862231Y-49752972D01*
X68768016Y-49776788D01*
X68682188Y-49811360D01*
X68606641Y-49856200D01*
X68543273Y-49910823D01*
X68540486Y-49913772D01*
X68481350Y-49988998D01*
X68433262Y-50075326D01*
X68396600Y-50170710D01*
X68371743Y-50273102D01*
X68359071Y-50380455D01*
X68358962Y-50490722D01*
X68371795Y-50601857D01*
X68394749Y-50701011D01*
X68416289Y-50766883D01*
X68441963Y-50827926D01*
X68473752Y-50887692D01*
X68513633Y-50949734D01*
X68563584Y-51017603D01*
X68589295Y-51050267D01*
X68619449Y-51086882D01*
X68650957Y-51122701D01*
X68685822Y-51159738D01*
X68726045Y-51200009D01*
X68773628Y-51245529D01*
X68830574Y-51298314D01*
X68884193Y-51347104D01*
X68960945Y-51420156D01*
X69026720Y-51490304D01*
X69080322Y-51556142D01*
X69120552Y-51616264D01*
X69133218Y-51639560D01*
X69160307Y-51709065D01*
X69177684Y-51787969D01*
X69184396Y-51871182D01*
X69183659Y-51909142D01*
X69176576Y-51973500D01*
X69162459Y-52023737D01*
X69140721Y-52061388D01*
X69116750Y-52083980D01*
X69101260Y-52093713D01*
X69085016Y-52099769D01*
X69063506Y-52102993D01*
X69032213Y-52104228D01*
X69007733Y-52104367D01*
X68958104Y-52102444D01*
X68921498Y-52095455D01*
X68894314Y-52081564D01*
X68872955Y-52058938D01*
X68853943Y-52025991D01*
X68846918Y-52010563D01*
X68841696Y-51994988D01*
X68837951Y-51976369D01*
X68835352Y-51951810D01*
X68833573Y-51918415D01*
X68832284Y-51873287D01*
X68831390Y-51827083D01*
X68828614Y-51668333D01*
X68347333Y-51668333D01*
X66679400Y-51668333D01*
X66679400Y-50707755D01*
X67458333Y-50707755D01*
X67460436Y-50712587D01*
X67468297Y-50715924D01*
X67484242Y-50717946D01*
X67510597Y-50718836D01*
X67549690Y-50718775D01*
X67591627Y-50718165D01*
X67724920Y-50715833D01*
X67740857Y-50681967D01*
X67748427Y-50665809D01*
X67762105Y-50636541D01*
X67780846Y-50596400D01*
X67803606Y-50547625D01*
X67829341Y-50492454D01*
X67857006Y-50433125D01*
X67865797Y-50414268D01*
X67974800Y-50180436D01*
X67974800Y-49775850D01*
X67743459Y-49778058D01*
X67681968Y-49778641D01*
X67625605Y-49779165D01*
X67576715Y-49779611D01*
X67537643Y-49779958D01*
X67510735Y-49780183D01*
X67498337Y-49780266D01*
X67498203Y-49780266D01*
X67494102Y-49781576D01*
X67490888Y-49786712D01*
X67488455Y-49797485D01*
X67486698Y-49815706D01*
X67485509Y-49843186D01*
X67484783Y-49881737D01*
X67484412Y-49933169D01*
X67484292Y-49999293D01*
X67484288Y-50017333D01*
X67484288Y-50254400D01*
X67547511Y-50254400D01*
X67577793Y-50254785D01*
X67600164Y-50255802D01*
X67610477Y-50257247D01*
X67610733Y-50257528D01*
X67608043Y-50266020D01*
X67600452Y-50288394D01*
X67588686Y-50322561D01*
X67573466Y-50366431D01*
X67555515Y-50417914D01*
X67535556Y-50474919D01*
X67534533Y-50477835D01*
X67514409Y-50535644D01*
X67496279Y-50588598D01*
X67480873Y-50634489D01*
X67468926Y-50671104D01*
X67461169Y-50696235D01*
X67458335Y-50707672D01*
X67458333Y-50707755D01*
X66679400Y-50707755D01*
X66679400Y-49780266D01*
X66494411Y-49780266D01*
X66435328Y-49780008D01*
X66377594Y-49779288D01*
X66324904Y-49778185D01*
X66280957Y-49776783D01*
X66249448Y-49775161D01*
X66244644Y-49774791D01*
X66179866Y-49769315D01*
X66179866Y-51149919D01*
X65942798Y-51149919D01*
X65942762Y-51008874D01*
X65942649Y-50862010D01*
X65942467Y-50720654D01*
X65942219Y-50585696D01*
X65941910Y-50458026D01*
X65941543Y-50338537D01*
X65941123Y-50228118D01*
X65940653Y-50127662D01*
X65940138Y-50038058D01*
X65939581Y-49960197D01*
X65938988Y-49894971D01*
X65938362Y-49843271D01*
X65937707Y-49805987D01*
X65937027Y-49784011D01*
X65936450Y-49778036D01*
X65926663Y-49777331D01*
X65902133Y-49776930D01*
X65865047Y-49776828D01*
X65817594Y-49777022D01*
X65761961Y-49777508D01*
X65700336Y-49778282D01*
X65686683Y-49778483D01*
X65443267Y-49782161D01*
X65200043Y-49782161D01*
X65199850Y-49780249D01*
X65139323Y-49780100D01*
X65075412Y-49779970D01*
X65010441Y-49779860D01*
X64946735Y-49779773D01*
X64886616Y-49779710D01*
X64832409Y-49779675D01*
X64786438Y-49779669D01*
X64751027Y-49779694D01*
X64728500Y-49779752D01*
X64721483Y-49779818D01*
X64718507Y-49780668D01*
X64715957Y-49783831D01*
X64713801Y-49790517D01*
X64712005Y-49801937D01*
X64710537Y-49819300D01*
X64709365Y-49843817D01*
X64708454Y-49876698D01*
X64707774Y-49919153D01*
X64707290Y-49972393D01*
X64706970Y-50037627D01*
X64706781Y-50116067D01*
X64706691Y-50208921D01*
X64706667Y-50317401D01*
X64706667Y-50873499D01*
X64338367Y-50868233D01*
X64334133Y-50322504D01*
X64329900Y-49776775D01*
X64092833Y-49778332D01*
X64030791Y-49778744D01*
X63974057Y-49779128D01*
X63924903Y-49779469D01*
X63885601Y-49779751D01*
X63858421Y-49779957D01*
X63845636Y-49780071D01*
X63845183Y-49780078D01*
X63843759Y-49783134D01*
X63842460Y-49792686D01*
X63841282Y-49809386D01*
X63840218Y-49833888D01*
X63839265Y-49866846D01*
X63838418Y-49908913D01*
X63837670Y-49960742D01*
X63837018Y-50022987D01*
X63836456Y-50096301D01*
X63835979Y-50181338D01*
X63835582Y-50278752D01*
X63835260Y-50389195D01*
X63835008Y-50513321D01*
X63834821Y-50651783D01*
X63834694Y-50805235D01*
X63834622Y-50974331D01*
X63834600Y-51154689D01*
X63592571Y-51154689D01*
X63594303Y-51151802D01*
X63611173Y-51116947D01*
X63628869Y-51070898D01*
X63645572Y-51019188D01*
X63659464Y-50967347D01*
X63667265Y-50929884D01*
X63670730Y-50900058D01*
X63673540Y-50856204D01*
X63675697Y-50801217D01*
X63677200Y-50737990D01*
X63678052Y-50669416D01*
X63678253Y-50598391D01*
X63677804Y-50527806D01*
X63676706Y-50460555D01*
X63674959Y-50399533D01*
X63672565Y-50347632D01*
X63669525Y-50307747D01*
X63667060Y-50288798D01*
X63641643Y-50183109D01*
X63604168Y-50089041D01*
X63554921Y-50006881D01*
X63494185Y-49936917D01*
X63422243Y-49879438D01*
X63339380Y-49834732D01*
X63245879Y-49803086D01*
X63174639Y-49788917D01*
X63156357Y-49787427D01*
X63123279Y-49785979D01*
X63077545Y-49784597D01*
X63021292Y-49783304D01*
X62956659Y-49782123D01*
X62885783Y-49781076D01*
X62810804Y-49780188D01*
X62733858Y-49779481D01*
X62657085Y-49778978D01*
X62582623Y-49778703D01*
X62512609Y-49778678D01*
X62449182Y-49778927D01*
X62394480Y-49779472D01*
X62359283Y-49780117D01*
X62358602Y-49788419D01*
X62357956Y-49812570D01*
X62357347Y-49851487D01*
X62356774Y-49904083D01*
X62356239Y-49969276D01*
X62355743Y-50045981D01*
X62355285Y-50133113D01*
X62354866Y-50229589D01*
X62354488Y-50334323D01*
X62354150Y-50446232D01*
X62353854Y-50564232D01*
X62353599Y-50687238D01*
X62353387Y-50814166D01*
X62353219Y-50943931D01*
X62353094Y-51075450D01*
X62353013Y-51207638D01*
X62352978Y-51339410D01*
X61735159Y-51339410D01*
X61734467Y-51245000D01*
X61125267Y-51245000D01*
X61125267Y-50838600D01*
X61733689Y-50838600D01*
X61736394Y-50819550D01*
X61736948Y-50806956D01*
X61737341Y-50779439D01*
X61737571Y-50739009D01*
X61737634Y-50687675D01*
X61737530Y-50627447D01*
X61737255Y-50560335D01*
X61736807Y-50488347D01*
X61736783Y-50485117D01*
X61734467Y-50169733D01*
X61125267Y-50169733D01*
X61125267Y-49763333D01*
X61734867Y-49763333D01*
X61734996Y-49528383D01*
X61735246Y-49466756D01*
X61735888Y-49410564D01*
X61736861Y-49362062D01*
X61738107Y-49323507D01*
X61739568Y-49297156D01*
X61741185Y-49285265D01*
X61741346Y-49284967D01*
X61751595Y-49282548D01*
X61778017Y-49280505D01*
X61819855Y-49278859D01*
X61876354Y-49277630D01*
X61946758Y-49276840D01*
X62030309Y-49276509D01*
X62048133Y-49276500D01*
X62348700Y-49276500D01*
X62350922Y-48969583D01*
X62351775Y-48883252D01*
X62352974Y-48810087D01*
X62354495Y-48750798D01*
X62356315Y-48706096D01*
X62358407Y-48676690D01*
X62360749Y-48663290D01*
X62361505Y-48662497D01*
X62372356Y-48662444D01*
X62397161Y-48662401D01*
X62432944Y-48662368D01*
X62476726Y-48662346D01*
X62525528Y-48662334D01*
X62576374Y-48662332D01*
X62626284Y-48662340D01*
X62672281Y-48662359D01*
X62711386Y-48662388D01*
X62740622Y-48662427D01*
X62757011Y-48662476D01*
X62759228Y-48662497D01*
X62761640Y-48670896D01*
X62763811Y-48695517D01*
X62765715Y-48735649D01*
X62767330Y-48790584D01*
X62768630Y-48859610D01*
X62769590Y-48942018D01*
X62769811Y-48969583D01*
X62772033Y-49276500D01*
X63423966Y-49276500D01*
X63426188Y-48970543D01*
X63426820Y-48890244D01*
X63427492Y-48825252D01*
X63428291Y-48773941D01*
X63429308Y-48734685D01*
X63430632Y-48705858D01*
X63432351Y-48685833D01*
X63434555Y-48672984D01*
X63437332Y-48665686D01*
X63440773Y-48662312D01*
X63443121Y-48661510D01*
X63455568Y-48660726D01*
X63482321Y-48660229D01*
X63520755Y-48660026D01*
X63568246Y-48660127D01*
X63622168Y-48660538D01*
X63650345Y-48660858D01*
X63842856Y-48663284D01*
X63847300Y-49276500D01*
X64156333Y-49278423D01*
X64227736Y-49278733D01*
X64294330Y-49278764D01*
X64354085Y-49278535D01*
X64404972Y-49278065D01*
X64444961Y-49277373D01*
X64472022Y-49276476D01*
X64484010Y-49275425D01*
X64502653Y-49270504D01*
X64502900Y-48968702D01*
X64503148Y-48666900D01*
X64687457Y-48662667D01*
X64742700Y-48661537D01*
X64793102Y-48660771D01*
X64835891Y-48660388D01*
X64868294Y-48660409D01*
X64887539Y-48660856D01*
X64890711Y-48661125D01*
X64909656Y-48663817D01*
X64911878Y-48970158D01*
X64914100Y-49276500D01*
X65574500Y-49276500D01*
X65576722Y-48969886D01*
X65578944Y-48663273D01*
X65774406Y-48660853D01*
X65830438Y-48660357D01*
X65880852Y-48660289D01*
X65923165Y-48660621D01*
X65954898Y-48661324D01*
X65973569Y-48662373D01*
X65977392Y-48663099D01*
X65979182Y-48672351D01*
X65980943Y-48696607D01*
X65982612Y-48733938D01*
X65984130Y-48782413D01*
X65985435Y-48840105D01*
X65986467Y-48905083D01*
X65987141Y-48972132D01*
X65989367Y-49276500D01*
X66641300Y-49276500D01*
X66643522Y-48969583D01*
X66645744Y-48662667D01*
X66829789Y-48661961D01*
X66885011Y-48661658D01*
X66935397Y-48661209D01*
X66978169Y-48660653D01*
X67010549Y-48660029D01*
X67029759Y-48659374D01*
X67032883Y-48659143D01*
X67051933Y-48657030D01*
X67052936Y-48941365D01*
G36*
X67474633Y-53698133D02*
G01*
X67478643Y-53719396D01*
X67484533Y-53753890D01*
X67492039Y-53799852D01*
X67500896Y-53855515D01*
X67510839Y-53919116D01*
X67521602Y-53988889D01*
X67532922Y-54063071D01*
X67544532Y-54139896D01*
X67556168Y-54217601D01*
X67567565Y-54294419D01*
X67578458Y-54368586D01*
X67588582Y-54438339D01*
X67597672Y-54501911D01*
X67605462Y-54557539D01*
X67611689Y-54603458D01*
X67616086Y-54637902D01*
X67618389Y-54659109D01*
X67618663Y-54663416D01*
X67618457Y-54670332D01*
X67615819Y-54675331D01*
X67608396Y-54678725D01*
X67593832Y-54680825D01*
X67569772Y-54681941D01*
X67533863Y-54682385D01*
X67483749Y-54682466D01*
X67329449Y-54682466D01*
X67334225Y-54654950D01*
X67336275Y-54641534D01*
X67340426Y-54612982D01*
X67346449Y-54570931D01*
X67354111Y-54517017D01*
X67363182Y-54452875D01*
X67373428Y-54380144D01*
X67384619Y-54300457D01*
X67396524Y-54215452D01*
X67403434Y-54166000D01*
X67415597Y-54079289D01*
X67427187Y-53997435D01*
X67437973Y-53922006D01*
X67447725Y-53854572D01*
X67456216Y-53796705D01*
X67463213Y-53749972D01*
X67468490Y-53715945D01*
X67471814Y-53696193D01*
X67472769Y-53691866D01*
X67474633Y-53698133D01*
G37*
X67474633Y-53698133D02*
X67478643Y-53719396D01*
X67484533Y-53753890D01*
X67492039Y-53799852D01*
X67500896Y-53855515D01*
X67510839Y-53919116D01*
X67521602Y-53988889D01*
X67532922Y-54063071D01*
X67544532Y-54139896D01*
X67556168Y-54217601D01*
X67567565Y-54294419D01*
X67578458Y-54368586D01*
X67588582Y-54438339D01*
X67597672Y-54501911D01*
X67605462Y-54557539D01*
X67611689Y-54603458D01*
X67616086Y-54637902D01*
X67618389Y-54659109D01*
X67618663Y-54663416D01*
X67618457Y-54670332D01*
X67615819Y-54675331D01*
X67608396Y-54678725D01*
X67593832Y-54680825D01*
X67569772Y-54681941D01*
X67533863Y-54682385D01*
X67483749Y-54682466D01*
X67329449Y-54682466D01*
X67334225Y-54654950D01*
X67336275Y-54641534D01*
X67340426Y-54612982D01*
X67346449Y-54570931D01*
X67354111Y-54517017D01*
X67363182Y-54452875D01*
X67373428Y-54380144D01*
X67384619Y-54300457D01*
X67396524Y-54215452D01*
X67403434Y-54166000D01*
X67415597Y-54079289D01*
X67427187Y-53997435D01*
X67437973Y-53922006D01*
X67447725Y-53854572D01*
X67456216Y-53796705D01*
X67463213Y-53749972D01*
X67468490Y-53715945D01*
X67471814Y-53696193D01*
X67472769Y-53691866D01*
X67474633Y-53698133D01*
G36*
X68999194Y-54447148D02*
G01*
X69054058Y-54453033D01*
X69096887Y-54464017D01*
X69129981Y-54481062D01*
X69155637Y-54505131D01*
X69176156Y-54537186D01*
X69182893Y-54551233D01*
X69187546Y-54563471D01*
X69191233Y-54578496D01*
X69194100Y-54598449D01*
X69196294Y-54625472D01*
X69197959Y-54661707D01*
X69199243Y-54709295D01*
X69200291Y-54770378D01*
X69200873Y-54814810D01*
X69201603Y-54891957D01*
X69201555Y-54954223D01*
X69200470Y-55003653D01*
X69198094Y-55042290D01*
X69194171Y-55072180D01*
X69188445Y-55095366D01*
X69180659Y-55113893D01*
X69170558Y-55129806D01*
X69159784Y-55143004D01*
X69141975Y-55159775D01*
X69120367Y-55172254D01*
X69092374Y-55181003D01*
X69055407Y-55186581D01*
X69006880Y-55189548D01*
X68944206Y-55190464D01*
X68940484Y-55190467D01*
X68821467Y-55190467D01*
X68821467Y-54445400D01*
X68929996Y-54445400D01*
X68999194Y-54447148D01*
G37*
X68999194Y-54447148D02*
X69054058Y-54453033D01*
X69096887Y-54464017D01*
X69129981Y-54481062D01*
X69155637Y-54505131D01*
X69176156Y-54537186D01*
X69182893Y-54551233D01*
X69187546Y-54563471D01*
X69191233Y-54578496D01*
X69194100Y-54598449D01*
X69196294Y-54625472D01*
X69197959Y-54661707D01*
X69199243Y-54709295D01*
X69200291Y-54770378D01*
X69200873Y-54814810D01*
X69201603Y-54891957D01*
X69201555Y-54954223D01*
X69200470Y-55003653D01*
X69198094Y-55042290D01*
X69194171Y-55072180D01*
X69188445Y-55095366D01*
X69180659Y-55113893D01*
X69170558Y-55129806D01*
X69159784Y-55143004D01*
X69141975Y-55159775D01*
X69120367Y-55172254D01*
X69092374Y-55181003D01*
X69055407Y-55186581D01*
X69006880Y-55189548D01*
X68944206Y-55190464D01*
X68940484Y-55190467D01*
X68821467Y-55190467D01*
X68821467Y-54445400D01*
X68929996Y-54445400D01*
X68999194Y-54447148D01*
G36*
X68987921Y-53354056D02*
G01*
X69030252Y-53357112D01*
X69061883Y-53363100D01*
X69085897Y-53372754D01*
X69105380Y-53386806D01*
X69115397Y-53396800D01*
X69130005Y-53414976D01*
X69141252Y-53435415D01*
X69149553Y-53460516D01*
X69155323Y-53492675D01*
X69158976Y-53534290D01*
X69160927Y-53587759D01*
X69161591Y-53655478D01*
X69161603Y-53663945D01*
X69161560Y-53722315D01*
X69161140Y-53766550D01*
X69160078Y-53799445D01*
X69158104Y-53823799D01*
X69154950Y-53842409D01*
X69150350Y-53858070D01*
X69144036Y-53873581D01*
X69140859Y-53880612D01*
X69120769Y-53916137D01*
X69095872Y-53942596D01*
X69063713Y-53961079D01*
X69021832Y-53972677D01*
X68967774Y-53978481D01*
X68917622Y-53979686D01*
X68877350Y-53979261D01*
X68850994Y-53977641D01*
X68835555Y-53974385D01*
X68828033Y-53969054D01*
X68826606Y-53966341D01*
X68825411Y-53954999D01*
X68824315Y-53928744D01*
X68823351Y-53889595D01*
X68822550Y-53839572D01*
X68821948Y-53780694D01*
X68821576Y-53714982D01*
X68821467Y-53653074D01*
X68821467Y-53353200D01*
X68931805Y-53353200D01*
X68987921Y-53354056D01*
G37*
X68987921Y-53354056D02*
X69030252Y-53357112D01*
X69061883Y-53363100D01*
X69085897Y-53372754D01*
X69105380Y-53386806D01*
X69115397Y-53396800D01*
X69130005Y-53414976D01*
X69141252Y-53435415D01*
X69149553Y-53460516D01*
X69155323Y-53492675D01*
X69158976Y-53534290D01*
X69160927Y-53587759D01*
X69161591Y-53655478D01*
X69161603Y-53663945D01*
X69161560Y-53722315D01*
X69161140Y-53766550D01*
X69160078Y-53799445D01*
X69158104Y-53823799D01*
X69154950Y-53842409D01*
X69150350Y-53858070D01*
X69144036Y-53873581D01*
X69140859Y-53880612D01*
X69120769Y-53916137D01*
X69095872Y-53942596D01*
X69063713Y-53961079D01*
X69021832Y-53972677D01*
X68967774Y-53978481D01*
X68917622Y-53979686D01*
X68877350Y-53979261D01*
X68850994Y-53977641D01*
X68835555Y-53974385D01*
X68828033Y-53969054D01*
X68826606Y-53966341D01*
X68825411Y-53954999D01*
X68824315Y-53928744D01*
X68823351Y-53889595D01*
X68822550Y-53839572D01*
X68821948Y-53780694D01*
X68821576Y-53714982D01*
X68821467Y-53653074D01*
X68821467Y-53353200D01*
X68931805Y-53353200D01*
X68987921Y-53354056D01*
G36*
X62964650Y-50237606D02*
G01*
X63011574Y-50237935D01*
X63045193Y-50239105D01*
X63069130Y-50241595D01*
X63087009Y-50245885D01*
X63102453Y-50252452D01*
X63110700Y-50256913D01*
X63134167Y-50273741D01*
X63151139Y-50296228D01*
X63163356Y-50322390D01*
X63168937Y-50336956D01*
X63173294Y-50351382D01*
X63176580Y-50367927D01*
X63178950Y-50388852D01*
X63180558Y-50416414D01*
X63181557Y-50452875D01*
X63182101Y-50500494D01*
X63182344Y-50561529D01*
X63182406Y-50602113D01*
X63182215Y-50682361D01*
X63181263Y-50747602D01*
X63179277Y-50799756D01*
X63175985Y-50840743D01*
X63171114Y-50872482D01*
X63164392Y-50896893D01*
X63155547Y-50915896D01*
X63144306Y-50931410D01*
X63134182Y-50941870D01*
X63112062Y-50958381D01*
X63084339Y-50970068D01*
X63048128Y-50977560D01*
X63000547Y-50981484D01*
X62947716Y-50982486D01*
X62852467Y-50982533D01*
X62852467Y-50237466D01*
X62964650Y-50237606D01*
G37*
X62964650Y-50237606D02*
X63011574Y-50237935D01*
X63045193Y-50239105D01*
X63069130Y-50241595D01*
X63087009Y-50245885D01*
X63102453Y-50252452D01*
X63110700Y-50256913D01*
X63134167Y-50273741D01*
X63151139Y-50296228D01*
X63163356Y-50322390D01*
X63168937Y-50336956D01*
X63173294Y-50351382D01*
X63176580Y-50367927D01*
X63178950Y-50388852D01*
X63180558Y-50416414D01*
X63181557Y-50452875D01*
X63182101Y-50500494D01*
X63182344Y-50561529D01*
X63182406Y-50602113D01*
X63182215Y-50682361D01*
X63181263Y-50747602D01*
X63179277Y-50799756D01*
X63175985Y-50840743D01*
X63171114Y-50872482D01*
X63164392Y-50896893D01*
X63155547Y-50915896D01*
X63144306Y-50931410D01*
X63134182Y-50941870D01*
X63112062Y-50958381D01*
X63084339Y-50970068D01*
X63048128Y-50977560D01*
X63000547Y-50981484D01*
X62947716Y-50982486D01*
X62852467Y-50982533D01*
X62852467Y-50237466D01*
X62964650Y-50237606D01*
D12*
%TO.C,SW1*%
X32530000Y-55450000D02*
X33320000Y-55450000D01*
X33320000Y-48550000D02*
X32530000Y-48550000D01*
X34370000Y-50400000D02*
X34370000Y-52100000D01*
X31520000Y-49150000D02*
X31520000Y-54850000D01*
X34370000Y-53400000D02*
X34370000Y-53600000D01*
%TO.C,J2*%
X65485000Y-39235000D02*
X65485000Y-42765000D01*
X59015000Y-39235000D02*
X59015000Y-42765000D01*
X65420000Y-37910000D02*
X65420000Y-39235000D01*
X65485000Y-39235000D02*
X65420000Y-39235000D01*
X65485000Y-42765000D02*
X65420000Y-42765000D01*
X59080000Y-39235000D02*
X59015000Y-39235000D01*
X59080000Y-42765000D02*
X59015000Y-42765000D01*
%TO.C,C1*%
X71297936Y-68910000D02*
X72502064Y-68910000D01*
X71297936Y-67090000D02*
X72502064Y-67090000D01*
%TO.C,C2*%
X64297936Y-78160000D02*
X65502064Y-78160000D01*
X64297936Y-76340000D02*
X65502064Y-76340000D01*
%TO.C,C3*%
X64297936Y-79090000D02*
X65502064Y-79090000D01*
X64297936Y-80910000D02*
X65502064Y-80910000D01*
%TO.C,C4*%
X66990000Y-72087221D02*
X66990000Y-72412779D01*
X68010000Y-72087221D02*
X68010000Y-72412779D01*
%TO.C,C5*%
X43375279Y-55510000D02*
X43049721Y-55510000D01*
X43375279Y-54490000D02*
X43049721Y-54490000D01*
%TO.C,C13*%
X54374721Y-71260000D02*
X54700279Y-71260000D01*
X54374721Y-70240000D02*
X54700279Y-70240000D01*
%TO.C,C14*%
X57527500Y-58412779D02*
X57527500Y-58087221D01*
X58547500Y-58412779D02*
X58547500Y-58087221D01*
%TO.C,D1*%
X74900000Y-60250000D02*
X74900000Y-62250000D01*
X74900000Y-62250000D02*
X78800000Y-62250000D01*
X74900000Y-60250000D02*
X78800000Y-60250000D01*
%TO.C,D2*%
X62900000Y-66250000D02*
X66800000Y-66250000D01*
X62900000Y-68250000D02*
X66800000Y-68250000D01*
X62900000Y-66250000D02*
X62900000Y-68250000D01*
%TO.C,D3*%
X70987500Y-39985000D02*
X73272500Y-39985000D01*
X73272500Y-39985000D02*
X73272500Y-38515000D01*
X73272500Y-38515000D02*
X70987500Y-38515000D01*
%TO.C,D4*%
X44235000Y-70735000D02*
X44235000Y-68450000D01*
X42765000Y-70735000D02*
X44235000Y-70735000D01*
X42765000Y-68450000D02*
X42765000Y-70735000D01*
%TO.C,F1*%
X71297936Y-62160000D02*
X72502064Y-62160000D01*
X71297936Y-60340000D02*
X72502064Y-60340000D01*
%TO.C,FB1*%
X71210000Y-65071078D02*
X71210000Y-64553922D01*
X69790000Y-65071078D02*
X69790000Y-64553922D01*
%TO.C,J1*%
X86050000Y-72550000D02*
X86050000Y-72150000D01*
X85410000Y-72550000D02*
X86050000Y-72550000D01*
X82191000Y-68145000D02*
X82319000Y-68274000D01*
X79975000Y-65930000D02*
X80069000Y-66024000D01*
X82431000Y-67975000D02*
X82524000Y-68069000D01*
X80181000Y-65725000D02*
X80309000Y-65854000D01*
X78090000Y-65190000D02*
X85810000Y-65190000D01*
X78090000Y-72310000D02*
X85810000Y-72310000D01*
X85810000Y-72310000D02*
X85810000Y-65190000D01*
X78090000Y-72310000D02*
X78090000Y-65190000D01*
X84250000Y-72310000D02*
X84250000Y-65190000D01*
X85350000Y-72310000D02*
X85350000Y-65190000D01*
X82930000Y-67000000D02*
G75*
G03*
X82930000Y-67000000I-1680000J0D01*
G01*
X82674721Y-69609736D02*
G75*
G02*
X82930000Y-70500000I-1424721J-890264D01*
G01*
X80359807Y-69074495D02*
G75*
G02*
X82141000Y-69075000I890193J-1425505D01*
G01*
X79824642Y-71389894D02*
G75*
G02*
X79810000Y-69634000I1425358J889894D01*
G01*
X82139894Y-71925358D02*
G75*
G02*
X80384000Y-71940000I-889894J1425358D01*
G01*
X82930099Y-70471326D02*
G75*
G02*
X82690000Y-71366000I-1680099J-28674D01*
G01*
%TO.C,J3*%
X51500000Y-42150000D02*
X51500000Y-42450000D01*
X51500000Y-42450000D02*
X52000000Y-42450000D01*
X49375000Y-41860000D02*
X51790000Y-41860000D01*
X51790000Y-41860000D02*
X51790000Y-42160000D01*
X51790000Y-42160000D02*
X52860000Y-42160000D01*
X52860000Y-42160000D02*
X52860000Y-36440000D01*
X52860000Y-36440000D02*
X49375000Y-36440000D01*
X49375000Y-41860000D02*
X46960000Y-41860000D01*
X46960000Y-41860000D02*
X46960000Y-42160000D01*
X46960000Y-42160000D02*
X45890000Y-42160000D01*
X45890000Y-42160000D02*
X45890000Y-36440000D01*
X45890000Y-36440000D02*
X49375000Y-36440000D01*
%TO.C,J4*%
X52860000Y-85560000D02*
X49375000Y-85560000D01*
X52860000Y-79840000D02*
X52860000Y-85560000D01*
X51790000Y-79840000D02*
X52860000Y-79840000D01*
X51790000Y-80140000D02*
X51790000Y-79840000D01*
X49375000Y-80140000D02*
X51790000Y-80140000D01*
X45890000Y-85560000D02*
X49375000Y-85560000D01*
X45890000Y-79840000D02*
X45890000Y-85560000D01*
X46960000Y-79840000D02*
X45890000Y-79840000D01*
X46960000Y-80140000D02*
X46960000Y-79840000D01*
X49375000Y-80140000D02*
X46960000Y-80140000D01*
X47250000Y-79550000D02*
X46750000Y-79550000D01*
X47250000Y-79850000D02*
X47250000Y-79550000D01*
D10*
%TO.C,J5*%
X80805902Y-53550000D02*
G75*
G03*
X80805902Y-53550000I-55902J0D01*
G01*
D11*
X86300000Y-56180000D02*
X85475000Y-56180000D01*
X86300000Y-56180000D02*
X86300000Y-48320000D01*
X85475000Y-48320000D02*
X86300000Y-48320000D01*
D12*
%TO.C,L1*%
X60800000Y-75050000D02*
X61950000Y-75050000D01*
X66200000Y-75050000D02*
X65050000Y-75050000D01*
X60800000Y-69450000D02*
X61950000Y-69450000D01*
X66200000Y-69450000D02*
X65050000Y-69450000D01*
X60800000Y-69450000D02*
X60800000Y-75050000D01*
X66200000Y-69450000D02*
X66200000Y-75050000D01*
%TO.C,Q1*%
X72920000Y-65510000D02*
X72920000Y-64050000D01*
X76080000Y-65510000D02*
X76080000Y-63350000D01*
X76080000Y-65510000D02*
X75150000Y-65510000D01*
X72920000Y-65510000D02*
X73850000Y-65510000D01*
%TO.C,R1*%
X74010000Y-70799721D02*
X74010000Y-71125279D01*
X72990000Y-70799721D02*
X72990000Y-71125279D01*
%TO.C,R2*%
X75760000Y-71125279D02*
X75760000Y-70799721D01*
X74740000Y-71125279D02*
X74740000Y-70799721D01*
%TO.C,R3*%
X74010000Y-74450279D02*
X74010000Y-74124721D01*
X72990000Y-74450279D02*
X72990000Y-74124721D01*
%TO.C,R4*%
X74740000Y-74124721D02*
X74740000Y-74450279D01*
X75760000Y-74124721D02*
X75760000Y-74450279D01*
%TO.C,R5*%
X76490000Y-74437779D02*
X76490000Y-74112221D01*
X77510000Y-74437779D02*
X77510000Y-74112221D01*
%TO.C,R6*%
X71649721Y-40940000D02*
X71975279Y-40940000D01*
X71649721Y-41960000D02*
X71975279Y-41960000D01*
%TO.C,R9*%
X40990000Y-69087221D02*
X40990000Y-69412779D01*
X42010000Y-69087221D02*
X42010000Y-69412779D01*
%TO.C,U1*%
X68890000Y-71350000D02*
X68890000Y-73800000D01*
X72110000Y-73150000D02*
X72110000Y-71350000D01*
%TO.C,U2*%
X44890000Y-58590000D02*
X43550000Y-58590000D01*
X44890000Y-57640000D02*
X44890000Y-58590000D01*
X45840000Y-57640000D02*
X44890000Y-57640000D01*
X55110000Y-57640000D02*
X55110000Y-58590000D01*
X54160000Y-57640000D02*
X55110000Y-57640000D01*
X44890000Y-67860000D02*
X44890000Y-66910000D01*
X45840000Y-67860000D02*
X44890000Y-67860000D01*
X55110000Y-67860000D02*
X55110000Y-66910000D01*
X54160000Y-67860000D02*
X55110000Y-67860000D01*
%TO.C,U3*%
X76875000Y-50965000D02*
X75075000Y-50965000D01*
X75075000Y-54185000D02*
X77525000Y-54185000D01*
%TO.C,Y1*%
X36850000Y-59000000D02*
X36850000Y-63000000D01*
X40150000Y-59000000D02*
X36850000Y-59000000D01*
%TD*%
M02*
