%TF.GenerationSoftware,KiCad,Pcbnew,(5.1.6)-1*%
%TF.CreationDate,2020-09-25T18:38:39+02:00*%
%TF.ProjectId,STM32F4_REV2,53544d33-3246-4345-9f52-4556322e6b69,rev?*%
%TF.SameCoordinates,Original*%
%TF.FileFunction,Paste,Top*%
%TF.FilePolarity,Positive*%
%FSLAX46Y46*%
G04 Gerber Fmt 4.6, Leading zero omitted, Abs format (unit mm)*
G04 Created by KiCad (PCBNEW (5.1.6)-1) date 2020-09-25 18:38:39*
%MOMM*%
%LPD*%
G01*
G04 APERTURE LIST*
%ADD10R,1.500000X0.700000*%
%ADD11R,0.800000X1.000000*%
%ADD12R,0.740000X2.400000*%
%ADD13R,0.900000X1.200000*%
%ADD14R,1.350000X0.400000*%
%ADD15R,1.400000X1.600000*%
%ADD16R,1.600000X1.900000*%
%ADD17R,2.500000X1.900000*%
%ADD18R,0.800000X0.900000*%
%ADD19R,0.650000X1.060000*%
%ADD20R,1.060000X0.650000*%
%ADD21R,1.200000X1.400000*%
G04 APERTURE END LIST*
D10*
%TO.C,SW1*%
X34680000Y-49750000D03*
X34680000Y-52750000D03*
X34680000Y-54250000D03*
D11*
X31820000Y-48350000D03*
X31820000Y-55650000D03*
X34030000Y-55650000D03*
X34030000Y-48350000D03*
%TD*%
D12*
%TO.C,J2*%
X59710000Y-42950000D03*
X59710000Y-39050000D03*
X60980000Y-42950000D03*
X60980000Y-39050000D03*
X62250000Y-42950000D03*
X62250000Y-39050000D03*
X63520000Y-42950000D03*
X63520000Y-39050000D03*
X64790000Y-42950000D03*
X64790000Y-39050000D03*
%TD*%
%TO.C,C1*%
G36*
G01*
X69875000Y-68625000D02*
X69875000Y-67375000D01*
G75*
G02*
X70125000Y-67125000I250000J0D01*
G01*
X70875000Y-67125000D01*
G75*
G02*
X71125000Y-67375000I0J-250000D01*
G01*
X71125000Y-68625000D01*
G75*
G02*
X70875000Y-68875000I-250000J0D01*
G01*
X70125000Y-68875000D01*
G75*
G02*
X69875000Y-68625000I0J250000D01*
G01*
G37*
G36*
G01*
X72675000Y-68625000D02*
X72675000Y-67375000D01*
G75*
G02*
X72925000Y-67125000I250000J0D01*
G01*
X73675000Y-67125000D01*
G75*
G02*
X73925000Y-67375000I0J-250000D01*
G01*
X73925000Y-68625000D01*
G75*
G02*
X73675000Y-68875000I-250000J0D01*
G01*
X72925000Y-68875000D01*
G75*
G02*
X72675000Y-68625000I0J250000D01*
G01*
G37*
%TD*%
%TO.C,C2*%
G36*
G01*
X62875000Y-77875000D02*
X62875000Y-76625000D01*
G75*
G02*
X63125000Y-76375000I250000J0D01*
G01*
X63875000Y-76375000D01*
G75*
G02*
X64125000Y-76625000I0J-250000D01*
G01*
X64125000Y-77875000D01*
G75*
G02*
X63875000Y-78125000I-250000J0D01*
G01*
X63125000Y-78125000D01*
G75*
G02*
X62875000Y-77875000I0J250000D01*
G01*
G37*
G36*
G01*
X65675000Y-77875000D02*
X65675000Y-76625000D01*
G75*
G02*
X65925000Y-76375000I250000J0D01*
G01*
X66675000Y-76375000D01*
G75*
G02*
X66925000Y-76625000I0J-250000D01*
G01*
X66925000Y-77875000D01*
G75*
G02*
X66675000Y-78125000I-250000J0D01*
G01*
X65925000Y-78125000D01*
G75*
G02*
X65675000Y-77875000I0J250000D01*
G01*
G37*
%TD*%
%TO.C,C3*%
G36*
G01*
X65675000Y-80625000D02*
X65675000Y-79375000D01*
G75*
G02*
X65925000Y-79125000I250000J0D01*
G01*
X66675000Y-79125000D01*
G75*
G02*
X66925000Y-79375000I0J-250000D01*
G01*
X66925000Y-80625000D01*
G75*
G02*
X66675000Y-80875000I-250000J0D01*
G01*
X65925000Y-80875000D01*
G75*
G02*
X65675000Y-80625000I0J250000D01*
G01*
G37*
G36*
G01*
X62875000Y-80625000D02*
X62875000Y-79375000D01*
G75*
G02*
X63125000Y-79125000I250000J0D01*
G01*
X63875000Y-79125000D01*
G75*
G02*
X64125000Y-79375000I0J-250000D01*
G01*
X64125000Y-80625000D01*
G75*
G02*
X63875000Y-80875000I-250000J0D01*
G01*
X63125000Y-80875000D01*
G75*
G02*
X62875000Y-80625000I0J250000D01*
G01*
G37*
%TD*%
%TO.C,C4*%
G36*
G01*
X67243750Y-71025000D02*
X67756250Y-71025000D01*
G75*
G02*
X67975000Y-71243750I0J-218750D01*
G01*
X67975000Y-71681250D01*
G75*
G02*
X67756250Y-71900000I-218750J0D01*
G01*
X67243750Y-71900000D01*
G75*
G02*
X67025000Y-71681250I0J218750D01*
G01*
X67025000Y-71243750D01*
G75*
G02*
X67243750Y-71025000I218750J0D01*
G01*
G37*
G36*
G01*
X67243750Y-72600000D02*
X67756250Y-72600000D01*
G75*
G02*
X67975000Y-72818750I0J-218750D01*
G01*
X67975000Y-73256250D01*
G75*
G02*
X67756250Y-73475000I-218750J0D01*
G01*
X67243750Y-73475000D01*
G75*
G02*
X67025000Y-73256250I0J218750D01*
G01*
X67025000Y-72818750D01*
G75*
G02*
X67243750Y-72600000I218750J0D01*
G01*
G37*
%TD*%
%TO.C,C5*%
G36*
G01*
X42862500Y-54743750D02*
X42862500Y-55256250D01*
G75*
G02*
X42643750Y-55475000I-218750J0D01*
G01*
X42206250Y-55475000D01*
G75*
G02*
X41987500Y-55256250I0J218750D01*
G01*
X41987500Y-54743750D01*
G75*
G02*
X42206250Y-54525000I218750J0D01*
G01*
X42643750Y-54525000D01*
G75*
G02*
X42862500Y-54743750I0J-218750D01*
G01*
G37*
G36*
G01*
X44437500Y-54743750D02*
X44437500Y-55256250D01*
G75*
G02*
X44218750Y-55475000I-218750J0D01*
G01*
X43781250Y-55475000D01*
G75*
G02*
X43562500Y-55256250I0J218750D01*
G01*
X43562500Y-54743750D01*
G75*
G02*
X43781250Y-54525000I218750J0D01*
G01*
X44218750Y-54525000D01*
G75*
G02*
X44437500Y-54743750I0J-218750D01*
G01*
G37*
%TD*%
%TO.C,C6*%
G36*
G01*
X42422500Y-58325000D02*
X42077500Y-58325000D01*
G75*
G02*
X41930000Y-58177500I0J147500D01*
G01*
X41930000Y-57882500D01*
G75*
G02*
X42077500Y-57735000I147500J0D01*
G01*
X42422500Y-57735000D01*
G75*
G02*
X42570000Y-57882500I0J-147500D01*
G01*
X42570000Y-58177500D01*
G75*
G02*
X42422500Y-58325000I-147500J0D01*
G01*
G37*
G36*
G01*
X42422500Y-59295000D02*
X42077500Y-59295000D01*
G75*
G02*
X41930000Y-59147500I0J147500D01*
G01*
X41930000Y-58852500D01*
G75*
G02*
X42077500Y-58705000I147500J0D01*
G01*
X42422500Y-58705000D01*
G75*
G02*
X42570000Y-58852500I0J-147500D01*
G01*
X42570000Y-59147500D01*
G75*
G02*
X42422500Y-59295000I-147500J0D01*
G01*
G37*
%TD*%
%TO.C,C7*%
G36*
G01*
X47795000Y-70327500D02*
X47795000Y-70672500D01*
G75*
G02*
X47647500Y-70820000I-147500J0D01*
G01*
X47352500Y-70820000D01*
G75*
G02*
X47205000Y-70672500I0J147500D01*
G01*
X47205000Y-70327500D01*
G75*
G02*
X47352500Y-70180000I147500J0D01*
G01*
X47647500Y-70180000D01*
G75*
G02*
X47795000Y-70327500I0J-147500D01*
G01*
G37*
G36*
G01*
X46825000Y-70327500D02*
X46825000Y-70672500D01*
G75*
G02*
X46677500Y-70820000I-147500J0D01*
G01*
X46382500Y-70820000D01*
G75*
G02*
X46235000Y-70672500I0J147500D01*
G01*
X46235000Y-70327500D01*
G75*
G02*
X46382500Y-70180000I147500J0D01*
G01*
X46677500Y-70180000D01*
G75*
G02*
X46825000Y-70327500I0J-147500D01*
G01*
G37*
%TD*%
%TO.C,C8*%
G36*
G01*
X55925000Y-69172500D02*
X55925000Y-68827500D01*
G75*
G02*
X56072500Y-68680000I147500J0D01*
G01*
X56367500Y-68680000D01*
G75*
G02*
X56515000Y-68827500I0J-147500D01*
G01*
X56515000Y-69172500D01*
G75*
G02*
X56367500Y-69320000I-147500J0D01*
G01*
X56072500Y-69320000D01*
G75*
G02*
X55925000Y-69172500I0J147500D01*
G01*
G37*
G36*
G01*
X54955000Y-69172500D02*
X54955000Y-68827500D01*
G75*
G02*
X55102500Y-68680000I147500J0D01*
G01*
X55397500Y-68680000D01*
G75*
G02*
X55545000Y-68827500I0J-147500D01*
G01*
X55545000Y-69172500D01*
G75*
G02*
X55397500Y-69320000I-147500J0D01*
G01*
X55102500Y-69320000D01*
G75*
G02*
X54955000Y-69172500I0J147500D01*
G01*
G37*
%TD*%
%TO.C,C9*%
G36*
G01*
X56422500Y-57765000D02*
X56077500Y-57765000D01*
G75*
G02*
X55930000Y-57617500I0J147500D01*
G01*
X55930000Y-57322500D01*
G75*
G02*
X56077500Y-57175000I147500J0D01*
G01*
X56422500Y-57175000D01*
G75*
G02*
X56570000Y-57322500I0J-147500D01*
G01*
X56570000Y-57617500D01*
G75*
G02*
X56422500Y-57765000I-147500J0D01*
G01*
G37*
G36*
G01*
X56422500Y-56795000D02*
X56077500Y-56795000D01*
G75*
G02*
X55930000Y-56647500I0J147500D01*
G01*
X55930000Y-56352500D01*
G75*
G02*
X56077500Y-56205000I147500J0D01*
G01*
X56422500Y-56205000D01*
G75*
G02*
X56570000Y-56352500I0J-147500D01*
G01*
X56570000Y-56647500D01*
G75*
G02*
X56422500Y-56795000I-147500J0D01*
G01*
G37*
%TD*%
%TO.C,C10*%
G36*
G01*
X46675000Y-55172500D02*
X46675000Y-54827500D01*
G75*
G02*
X46822500Y-54680000I147500J0D01*
G01*
X47117500Y-54680000D01*
G75*
G02*
X47265000Y-54827500I0J-147500D01*
G01*
X47265000Y-55172500D01*
G75*
G02*
X47117500Y-55320000I-147500J0D01*
G01*
X46822500Y-55320000D01*
G75*
G02*
X46675000Y-55172500I0J147500D01*
G01*
G37*
G36*
G01*
X45705000Y-55172500D02*
X45705000Y-54827500D01*
G75*
G02*
X45852500Y-54680000I147500J0D01*
G01*
X46147500Y-54680000D01*
G75*
G02*
X46295000Y-54827500I0J-147500D01*
G01*
X46295000Y-55172500D01*
G75*
G02*
X46147500Y-55320000I-147500J0D01*
G01*
X45852500Y-55320000D01*
G75*
G02*
X45705000Y-55172500I0J147500D01*
G01*
G37*
%TD*%
%TO.C,C11*%
G36*
G01*
X41172500Y-65545000D02*
X40827500Y-65545000D01*
G75*
G02*
X40680000Y-65397500I0J147500D01*
G01*
X40680000Y-65102500D01*
G75*
G02*
X40827500Y-64955000I147500J0D01*
G01*
X41172500Y-64955000D01*
G75*
G02*
X41320000Y-65102500I0J-147500D01*
G01*
X41320000Y-65397500D01*
G75*
G02*
X41172500Y-65545000I-147500J0D01*
G01*
G37*
G36*
G01*
X41172500Y-64575000D02*
X40827500Y-64575000D01*
G75*
G02*
X40680000Y-64427500I0J147500D01*
G01*
X40680000Y-64132500D01*
G75*
G02*
X40827500Y-63985000I147500J0D01*
G01*
X41172500Y-63985000D01*
G75*
G02*
X41320000Y-64132500I0J-147500D01*
G01*
X41320000Y-64427500D01*
G75*
G02*
X41172500Y-64575000I-147500J0D01*
G01*
G37*
%TD*%
%TO.C,C12*%
G36*
G01*
X42422500Y-65530000D02*
X42077500Y-65530000D01*
G75*
G02*
X41930000Y-65382500I0J147500D01*
G01*
X41930000Y-65087500D01*
G75*
G02*
X42077500Y-64940000I147500J0D01*
G01*
X42422500Y-64940000D01*
G75*
G02*
X42570000Y-65087500I0J-147500D01*
G01*
X42570000Y-65382500D01*
G75*
G02*
X42422500Y-65530000I-147500J0D01*
G01*
G37*
G36*
G01*
X42422500Y-64560000D02*
X42077500Y-64560000D01*
G75*
G02*
X41930000Y-64412500I0J147500D01*
G01*
X41930000Y-64117500D01*
G75*
G02*
X42077500Y-63970000I147500J0D01*
G01*
X42422500Y-63970000D01*
G75*
G02*
X42570000Y-64117500I0J-147500D01*
G01*
X42570000Y-64412500D01*
G75*
G02*
X42422500Y-64560000I-147500J0D01*
G01*
G37*
%TD*%
%TO.C,C13*%
G36*
G01*
X53312500Y-71006250D02*
X53312500Y-70493750D01*
G75*
G02*
X53531250Y-70275000I218750J0D01*
G01*
X53968750Y-70275000D01*
G75*
G02*
X54187500Y-70493750I0J-218750D01*
G01*
X54187500Y-71006250D01*
G75*
G02*
X53968750Y-71225000I-218750J0D01*
G01*
X53531250Y-71225000D01*
G75*
G02*
X53312500Y-71006250I0J218750D01*
G01*
G37*
G36*
G01*
X54887500Y-71006250D02*
X54887500Y-70493750D01*
G75*
G02*
X55106250Y-70275000I218750J0D01*
G01*
X55543750Y-70275000D01*
G75*
G02*
X55762500Y-70493750I0J-218750D01*
G01*
X55762500Y-71006250D01*
G75*
G02*
X55543750Y-71225000I-218750J0D01*
G01*
X55106250Y-71225000D01*
G75*
G02*
X54887500Y-71006250I0J218750D01*
G01*
G37*
%TD*%
%TO.C,C14*%
G36*
G01*
X58293750Y-57900000D02*
X57781250Y-57900000D01*
G75*
G02*
X57562500Y-57681250I0J218750D01*
G01*
X57562500Y-57243750D01*
G75*
G02*
X57781250Y-57025000I218750J0D01*
G01*
X58293750Y-57025000D01*
G75*
G02*
X58512500Y-57243750I0J-218750D01*
G01*
X58512500Y-57681250D01*
G75*
G02*
X58293750Y-57900000I-218750J0D01*
G01*
G37*
G36*
G01*
X58293750Y-59475000D02*
X57781250Y-59475000D01*
G75*
G02*
X57562500Y-59256250I0J218750D01*
G01*
X57562500Y-58818750D01*
G75*
G02*
X57781250Y-58600000I218750J0D01*
G01*
X58293750Y-58600000D01*
G75*
G02*
X58512500Y-58818750I0J-218750D01*
G01*
X58512500Y-59256250D01*
G75*
G02*
X58293750Y-59475000I-218750J0D01*
G01*
G37*
%TD*%
%TO.C,C15*%
G36*
G01*
X38690000Y-58172500D02*
X38690000Y-57827500D01*
G75*
G02*
X38837500Y-57680000I147500J0D01*
G01*
X39132500Y-57680000D01*
G75*
G02*
X39280000Y-57827500I0J-147500D01*
G01*
X39280000Y-58172500D01*
G75*
G02*
X39132500Y-58320000I-147500J0D01*
G01*
X38837500Y-58320000D01*
G75*
G02*
X38690000Y-58172500I0J147500D01*
G01*
G37*
G36*
G01*
X37720000Y-58172500D02*
X37720000Y-57827500D01*
G75*
G02*
X37867500Y-57680000I147500J0D01*
G01*
X38162500Y-57680000D01*
G75*
G02*
X38310000Y-57827500I0J-147500D01*
G01*
X38310000Y-58172500D01*
G75*
G02*
X38162500Y-58320000I-147500J0D01*
G01*
X37867500Y-58320000D01*
G75*
G02*
X37720000Y-58172500I0J147500D01*
G01*
G37*
%TD*%
%TO.C,C16*%
G36*
G01*
X39280000Y-63827500D02*
X39280000Y-64172500D01*
G75*
G02*
X39132500Y-64320000I-147500J0D01*
G01*
X38837500Y-64320000D01*
G75*
G02*
X38690000Y-64172500I0J147500D01*
G01*
X38690000Y-63827500D01*
G75*
G02*
X38837500Y-63680000I147500J0D01*
G01*
X39132500Y-63680000D01*
G75*
G02*
X39280000Y-63827500I0J-147500D01*
G01*
G37*
G36*
G01*
X38310000Y-63827500D02*
X38310000Y-64172500D01*
G75*
G02*
X38162500Y-64320000I-147500J0D01*
G01*
X37867500Y-64320000D01*
G75*
G02*
X37720000Y-64172500I0J147500D01*
G01*
X37720000Y-63827500D01*
G75*
G02*
X37867500Y-63680000I147500J0D01*
G01*
X38162500Y-63680000D01*
G75*
G02*
X38310000Y-63827500I0J-147500D01*
G01*
G37*
%TD*%
D13*
%TO.C,D1*%
X78800000Y-61250000D03*
X75500000Y-61250000D03*
%TD*%
%TO.C,D2*%
X63500000Y-67250000D03*
X66800000Y-67250000D03*
%TD*%
%TO.C,D3*%
G36*
G01*
X71437500Y-38993750D02*
X71437500Y-39506250D01*
G75*
G02*
X71218750Y-39725000I-218750J0D01*
G01*
X70781250Y-39725000D01*
G75*
G02*
X70562500Y-39506250I0J218750D01*
G01*
X70562500Y-38993750D01*
G75*
G02*
X70781250Y-38775000I218750J0D01*
G01*
X71218750Y-38775000D01*
G75*
G02*
X71437500Y-38993750I0J-218750D01*
G01*
G37*
G36*
G01*
X73012500Y-38993750D02*
X73012500Y-39506250D01*
G75*
G02*
X72793750Y-39725000I-218750J0D01*
G01*
X72356250Y-39725000D01*
G75*
G02*
X72137500Y-39506250I0J218750D01*
G01*
X72137500Y-38993750D01*
G75*
G02*
X72356250Y-38775000I218750J0D01*
G01*
X72793750Y-38775000D01*
G75*
G02*
X73012500Y-38993750I0J-218750D01*
G01*
G37*
%TD*%
%TO.C,D4*%
G36*
G01*
X43756250Y-70475000D02*
X43243750Y-70475000D01*
G75*
G02*
X43025000Y-70256250I0J218750D01*
G01*
X43025000Y-69818750D01*
G75*
G02*
X43243750Y-69600000I218750J0D01*
G01*
X43756250Y-69600000D01*
G75*
G02*
X43975000Y-69818750I0J-218750D01*
G01*
X43975000Y-70256250D01*
G75*
G02*
X43756250Y-70475000I-218750J0D01*
G01*
G37*
G36*
G01*
X43756250Y-68900000D02*
X43243750Y-68900000D01*
G75*
G02*
X43025000Y-68681250I0J218750D01*
G01*
X43025000Y-68243750D01*
G75*
G02*
X43243750Y-68025000I218750J0D01*
G01*
X43756250Y-68025000D01*
G75*
G02*
X43975000Y-68243750I0J-218750D01*
G01*
X43975000Y-68681250D01*
G75*
G02*
X43756250Y-68900000I-218750J0D01*
G01*
G37*
%TD*%
%TO.C,F1*%
G36*
G01*
X69875000Y-61875000D02*
X69875000Y-60625000D01*
G75*
G02*
X70125000Y-60375000I250000J0D01*
G01*
X70875000Y-60375000D01*
G75*
G02*
X71125000Y-60625000I0J-250000D01*
G01*
X71125000Y-61875000D01*
G75*
G02*
X70875000Y-62125000I-250000J0D01*
G01*
X70125000Y-62125000D01*
G75*
G02*
X69875000Y-61875000I0J250000D01*
G01*
G37*
G36*
G01*
X72675000Y-61875000D02*
X72675000Y-60625000D01*
G75*
G02*
X72925000Y-60375000I250000J0D01*
G01*
X73675000Y-60375000D01*
G75*
G02*
X73925000Y-60625000I0J-250000D01*
G01*
X73925000Y-61875000D01*
G75*
G02*
X73675000Y-62125000I-250000J0D01*
G01*
X72925000Y-62125000D01*
G75*
G02*
X72675000Y-61875000I0J250000D01*
G01*
G37*
%TD*%
%TO.C,FB1*%
G36*
G01*
X70956250Y-66237500D02*
X70043750Y-66237500D01*
G75*
G02*
X69800000Y-65993750I0J243750D01*
G01*
X69800000Y-65506250D01*
G75*
G02*
X70043750Y-65262500I243750J0D01*
G01*
X70956250Y-65262500D01*
G75*
G02*
X71200000Y-65506250I0J-243750D01*
G01*
X71200000Y-65993750D01*
G75*
G02*
X70956250Y-66237500I-243750J0D01*
G01*
G37*
G36*
G01*
X70956250Y-64362500D02*
X70043750Y-64362500D01*
G75*
G02*
X69800000Y-64118750I0J243750D01*
G01*
X69800000Y-63631250D01*
G75*
G02*
X70043750Y-63387500I243750J0D01*
G01*
X70956250Y-63387500D01*
G75*
G02*
X71200000Y-63631250I0J-243750D01*
G01*
X71200000Y-64118750D01*
G75*
G02*
X70956250Y-64362500I-243750J0D01*
G01*
G37*
%TD*%
D14*
%TO.C,J5*%
X81900000Y-53550000D03*
X81900000Y-52900000D03*
X81900000Y-52250000D03*
X81900000Y-51600000D03*
X81900000Y-50950000D03*
D15*
X82125000Y-55450000D03*
D16*
X84575000Y-53450000D03*
X84575000Y-51050000D03*
D15*
X82125000Y-49050000D03*
%TD*%
D17*
%TO.C,L1*%
X63500000Y-70200000D03*
X63500000Y-74300000D03*
%TD*%
%TO.C,L2*%
G36*
G01*
X38720000Y-66672500D02*
X38720000Y-66327500D01*
G75*
G02*
X38867500Y-66180000I147500J0D01*
G01*
X39162500Y-66180000D01*
G75*
G02*
X39310000Y-66327500I0J-147500D01*
G01*
X39310000Y-66672500D01*
G75*
G02*
X39162500Y-66820000I-147500J0D01*
G01*
X38867500Y-66820000D01*
G75*
G02*
X38720000Y-66672500I0J147500D01*
G01*
G37*
G36*
G01*
X39690000Y-66672500D02*
X39690000Y-66327500D01*
G75*
G02*
X39837500Y-66180000I147500J0D01*
G01*
X40132500Y-66180000D01*
G75*
G02*
X40280000Y-66327500I0J-147500D01*
G01*
X40280000Y-66672500D01*
G75*
G02*
X40132500Y-66820000I-147500J0D01*
G01*
X39837500Y-66820000D01*
G75*
G02*
X39690000Y-66672500I0J147500D01*
G01*
G37*
%TD*%
D18*
%TO.C,Q1*%
X75450000Y-63750000D03*
X73550000Y-63750000D03*
X74500000Y-65750000D03*
%TD*%
%TO.C,R1*%
G36*
G01*
X73243750Y-71312500D02*
X73756250Y-71312500D01*
G75*
G02*
X73975000Y-71531250I0J-218750D01*
G01*
X73975000Y-71968750D01*
G75*
G02*
X73756250Y-72187500I-218750J0D01*
G01*
X73243750Y-72187500D01*
G75*
G02*
X73025000Y-71968750I0J218750D01*
G01*
X73025000Y-71531250D01*
G75*
G02*
X73243750Y-71312500I218750J0D01*
G01*
G37*
G36*
G01*
X73243750Y-69737500D02*
X73756250Y-69737500D01*
G75*
G02*
X73975000Y-69956250I0J-218750D01*
G01*
X73975000Y-70393750D01*
G75*
G02*
X73756250Y-70612500I-218750J0D01*
G01*
X73243750Y-70612500D01*
G75*
G02*
X73025000Y-70393750I0J218750D01*
G01*
X73025000Y-69956250D01*
G75*
G02*
X73243750Y-69737500I218750J0D01*
G01*
G37*
%TD*%
%TO.C,R2*%
G36*
G01*
X75506250Y-72187500D02*
X74993750Y-72187500D01*
G75*
G02*
X74775000Y-71968750I0J218750D01*
G01*
X74775000Y-71531250D01*
G75*
G02*
X74993750Y-71312500I218750J0D01*
G01*
X75506250Y-71312500D01*
G75*
G02*
X75725000Y-71531250I0J-218750D01*
G01*
X75725000Y-71968750D01*
G75*
G02*
X75506250Y-72187500I-218750J0D01*
G01*
G37*
G36*
G01*
X75506250Y-70612500D02*
X74993750Y-70612500D01*
G75*
G02*
X74775000Y-70393750I0J218750D01*
G01*
X74775000Y-69956250D01*
G75*
G02*
X74993750Y-69737500I218750J0D01*
G01*
X75506250Y-69737500D01*
G75*
G02*
X75725000Y-69956250I0J-218750D01*
G01*
X75725000Y-70393750D01*
G75*
G02*
X75506250Y-70612500I-218750J0D01*
G01*
G37*
%TD*%
%TO.C,R3*%
G36*
G01*
X73756250Y-75512500D02*
X73243750Y-75512500D01*
G75*
G02*
X73025000Y-75293750I0J218750D01*
G01*
X73025000Y-74856250D01*
G75*
G02*
X73243750Y-74637500I218750J0D01*
G01*
X73756250Y-74637500D01*
G75*
G02*
X73975000Y-74856250I0J-218750D01*
G01*
X73975000Y-75293750D01*
G75*
G02*
X73756250Y-75512500I-218750J0D01*
G01*
G37*
G36*
G01*
X73756250Y-73937500D02*
X73243750Y-73937500D01*
G75*
G02*
X73025000Y-73718750I0J218750D01*
G01*
X73025000Y-73281250D01*
G75*
G02*
X73243750Y-73062500I218750J0D01*
G01*
X73756250Y-73062500D01*
G75*
G02*
X73975000Y-73281250I0J-218750D01*
G01*
X73975000Y-73718750D01*
G75*
G02*
X73756250Y-73937500I-218750J0D01*
G01*
G37*
%TD*%
%TO.C,R4*%
G36*
G01*
X74993750Y-73062500D02*
X75506250Y-73062500D01*
G75*
G02*
X75725000Y-73281250I0J-218750D01*
G01*
X75725000Y-73718750D01*
G75*
G02*
X75506250Y-73937500I-218750J0D01*
G01*
X74993750Y-73937500D01*
G75*
G02*
X74775000Y-73718750I0J218750D01*
G01*
X74775000Y-73281250D01*
G75*
G02*
X74993750Y-73062500I218750J0D01*
G01*
G37*
G36*
G01*
X74993750Y-74637500D02*
X75506250Y-74637500D01*
G75*
G02*
X75725000Y-74856250I0J-218750D01*
G01*
X75725000Y-75293750D01*
G75*
G02*
X75506250Y-75512500I-218750J0D01*
G01*
X74993750Y-75512500D01*
G75*
G02*
X74775000Y-75293750I0J218750D01*
G01*
X74775000Y-74856250D01*
G75*
G02*
X74993750Y-74637500I218750J0D01*
G01*
G37*
%TD*%
%TO.C,R5*%
G36*
G01*
X77256250Y-73925000D02*
X76743750Y-73925000D01*
G75*
G02*
X76525000Y-73706250I0J218750D01*
G01*
X76525000Y-73268750D01*
G75*
G02*
X76743750Y-73050000I218750J0D01*
G01*
X77256250Y-73050000D01*
G75*
G02*
X77475000Y-73268750I0J-218750D01*
G01*
X77475000Y-73706250D01*
G75*
G02*
X77256250Y-73925000I-218750J0D01*
G01*
G37*
G36*
G01*
X77256250Y-75500000D02*
X76743750Y-75500000D01*
G75*
G02*
X76525000Y-75281250I0J218750D01*
G01*
X76525000Y-74843750D01*
G75*
G02*
X76743750Y-74625000I218750J0D01*
G01*
X77256250Y-74625000D01*
G75*
G02*
X77475000Y-74843750I0J-218750D01*
G01*
X77475000Y-75281250D01*
G75*
G02*
X77256250Y-75500000I-218750J0D01*
G01*
G37*
%TD*%
%TO.C,R6*%
G36*
G01*
X72162500Y-41706250D02*
X72162500Y-41193750D01*
G75*
G02*
X72381250Y-40975000I218750J0D01*
G01*
X72818750Y-40975000D01*
G75*
G02*
X73037500Y-41193750I0J-218750D01*
G01*
X73037500Y-41706250D01*
G75*
G02*
X72818750Y-41925000I-218750J0D01*
G01*
X72381250Y-41925000D01*
G75*
G02*
X72162500Y-41706250I0J218750D01*
G01*
G37*
G36*
G01*
X70587500Y-41706250D02*
X70587500Y-41193750D01*
G75*
G02*
X70806250Y-40975000I218750J0D01*
G01*
X71243750Y-40975000D01*
G75*
G02*
X71462500Y-41193750I0J-218750D01*
G01*
X71462500Y-41706250D01*
G75*
G02*
X71243750Y-41925000I-218750J0D01*
G01*
X70806250Y-41925000D01*
G75*
G02*
X70587500Y-41706250I0J218750D01*
G01*
G37*
%TD*%
%TO.C,R7*%
G36*
G01*
X37425000Y-52922500D02*
X37425000Y-52577500D01*
G75*
G02*
X37572500Y-52430000I147500J0D01*
G01*
X37867500Y-52430000D01*
G75*
G02*
X38015000Y-52577500I0J-147500D01*
G01*
X38015000Y-52922500D01*
G75*
G02*
X37867500Y-53070000I-147500J0D01*
G01*
X37572500Y-53070000D01*
G75*
G02*
X37425000Y-52922500I0J147500D01*
G01*
G37*
G36*
G01*
X36455000Y-52922500D02*
X36455000Y-52577500D01*
G75*
G02*
X36602500Y-52430000I147500J0D01*
G01*
X36897500Y-52430000D01*
G75*
G02*
X37045000Y-52577500I0J-147500D01*
G01*
X37045000Y-52922500D01*
G75*
G02*
X36897500Y-53070000I-147500J0D01*
G01*
X36602500Y-53070000D01*
G75*
G02*
X36455000Y-52922500I0J147500D01*
G01*
G37*
%TD*%
%TO.C,R8*%
G36*
G01*
X42545000Y-61577500D02*
X42545000Y-61922500D01*
G75*
G02*
X42397500Y-62070000I-147500J0D01*
G01*
X42102500Y-62070000D01*
G75*
G02*
X41955000Y-61922500I0J147500D01*
G01*
X41955000Y-61577500D01*
G75*
G02*
X42102500Y-61430000I147500J0D01*
G01*
X42397500Y-61430000D01*
G75*
G02*
X42545000Y-61577500I0J-147500D01*
G01*
G37*
G36*
G01*
X41575000Y-61577500D02*
X41575000Y-61922500D01*
G75*
G02*
X41427500Y-62070000I-147500J0D01*
G01*
X41132500Y-62070000D01*
G75*
G02*
X40985000Y-61922500I0J147500D01*
G01*
X40985000Y-61577500D01*
G75*
G02*
X41132500Y-61430000I147500J0D01*
G01*
X41427500Y-61430000D01*
G75*
G02*
X41575000Y-61577500I0J-147500D01*
G01*
G37*
%TD*%
%TO.C,R9*%
G36*
G01*
X41243750Y-68025000D02*
X41756250Y-68025000D01*
G75*
G02*
X41975000Y-68243750I0J-218750D01*
G01*
X41975000Y-68681250D01*
G75*
G02*
X41756250Y-68900000I-218750J0D01*
G01*
X41243750Y-68900000D01*
G75*
G02*
X41025000Y-68681250I0J218750D01*
G01*
X41025000Y-68243750D01*
G75*
G02*
X41243750Y-68025000I218750J0D01*
G01*
G37*
G36*
G01*
X41243750Y-69600000D02*
X41756250Y-69600000D01*
G75*
G02*
X41975000Y-69818750I0J-218750D01*
G01*
X41975000Y-70256250D01*
G75*
G02*
X41756250Y-70475000I-218750J0D01*
G01*
X41243750Y-70475000D01*
G75*
G02*
X41025000Y-70256250I0J218750D01*
G01*
X41025000Y-69818750D01*
G75*
G02*
X41243750Y-69600000I218750J0D01*
G01*
G37*
%TD*%
%TO.C,R10*%
G36*
G01*
X50295000Y-53077500D02*
X50295000Y-53422500D01*
G75*
G02*
X50147500Y-53570000I-147500J0D01*
G01*
X49852500Y-53570000D01*
G75*
G02*
X49705000Y-53422500I0J147500D01*
G01*
X49705000Y-53077500D01*
G75*
G02*
X49852500Y-52930000I147500J0D01*
G01*
X50147500Y-52930000D01*
G75*
G02*
X50295000Y-53077500I0J-147500D01*
G01*
G37*
G36*
G01*
X51265000Y-53077500D02*
X51265000Y-53422500D01*
G75*
G02*
X51117500Y-53570000I-147500J0D01*
G01*
X50822500Y-53570000D01*
G75*
G02*
X50675000Y-53422500I0J147500D01*
G01*
X50675000Y-53077500D01*
G75*
G02*
X50822500Y-52930000I147500J0D01*
G01*
X51117500Y-52930000D01*
G75*
G02*
X51265000Y-53077500I0J-147500D01*
G01*
G37*
%TD*%
%TO.C,R11*%
G36*
G01*
X47485000Y-53422500D02*
X47485000Y-53077500D01*
G75*
G02*
X47632500Y-52930000I147500J0D01*
G01*
X47927500Y-52930000D01*
G75*
G02*
X48075000Y-53077500I0J-147500D01*
G01*
X48075000Y-53422500D01*
G75*
G02*
X47927500Y-53570000I-147500J0D01*
G01*
X47632500Y-53570000D01*
G75*
G02*
X47485000Y-53422500I0J147500D01*
G01*
G37*
G36*
G01*
X48455000Y-53422500D02*
X48455000Y-53077500D01*
G75*
G02*
X48602500Y-52930000I147500J0D01*
G01*
X48897500Y-52930000D01*
G75*
G02*
X49045000Y-53077500I0J-147500D01*
G01*
X49045000Y-53422500D01*
G75*
G02*
X48897500Y-53570000I-147500J0D01*
G01*
X48602500Y-53570000D01*
G75*
G02*
X48455000Y-53422500I0J147500D01*
G01*
G37*
%TD*%
D19*
%TO.C,U1*%
X69550000Y-73350000D03*
X70500000Y-73350000D03*
X71450000Y-73350000D03*
X71450000Y-71150000D03*
X69550000Y-71150000D03*
X70500000Y-71150000D03*
%TD*%
%TO.C,U2*%
G36*
G01*
X43550000Y-59075000D02*
X43550000Y-58925000D01*
G75*
G02*
X43625000Y-58850000I75000J0D01*
G01*
X45025000Y-58850000D01*
G75*
G02*
X45100000Y-58925000I0J-75000D01*
G01*
X45100000Y-59075000D01*
G75*
G02*
X45025000Y-59150000I-75000J0D01*
G01*
X43625000Y-59150000D01*
G75*
G02*
X43550000Y-59075000I0J75000D01*
G01*
G37*
G36*
G01*
X43550000Y-59575000D02*
X43550000Y-59425000D01*
G75*
G02*
X43625000Y-59350000I75000J0D01*
G01*
X45025000Y-59350000D01*
G75*
G02*
X45100000Y-59425000I0J-75000D01*
G01*
X45100000Y-59575000D01*
G75*
G02*
X45025000Y-59650000I-75000J0D01*
G01*
X43625000Y-59650000D01*
G75*
G02*
X43550000Y-59575000I0J75000D01*
G01*
G37*
G36*
G01*
X43550000Y-60075000D02*
X43550000Y-59925000D01*
G75*
G02*
X43625000Y-59850000I75000J0D01*
G01*
X45025000Y-59850000D01*
G75*
G02*
X45100000Y-59925000I0J-75000D01*
G01*
X45100000Y-60075000D01*
G75*
G02*
X45025000Y-60150000I-75000J0D01*
G01*
X43625000Y-60150000D01*
G75*
G02*
X43550000Y-60075000I0J75000D01*
G01*
G37*
G36*
G01*
X43550000Y-60575000D02*
X43550000Y-60425000D01*
G75*
G02*
X43625000Y-60350000I75000J0D01*
G01*
X45025000Y-60350000D01*
G75*
G02*
X45100000Y-60425000I0J-75000D01*
G01*
X45100000Y-60575000D01*
G75*
G02*
X45025000Y-60650000I-75000J0D01*
G01*
X43625000Y-60650000D01*
G75*
G02*
X43550000Y-60575000I0J75000D01*
G01*
G37*
G36*
G01*
X43550000Y-61075000D02*
X43550000Y-60925000D01*
G75*
G02*
X43625000Y-60850000I75000J0D01*
G01*
X45025000Y-60850000D01*
G75*
G02*
X45100000Y-60925000I0J-75000D01*
G01*
X45100000Y-61075000D01*
G75*
G02*
X45025000Y-61150000I-75000J0D01*
G01*
X43625000Y-61150000D01*
G75*
G02*
X43550000Y-61075000I0J75000D01*
G01*
G37*
G36*
G01*
X43550000Y-61575000D02*
X43550000Y-61425000D01*
G75*
G02*
X43625000Y-61350000I75000J0D01*
G01*
X45025000Y-61350000D01*
G75*
G02*
X45100000Y-61425000I0J-75000D01*
G01*
X45100000Y-61575000D01*
G75*
G02*
X45025000Y-61650000I-75000J0D01*
G01*
X43625000Y-61650000D01*
G75*
G02*
X43550000Y-61575000I0J75000D01*
G01*
G37*
G36*
G01*
X43550000Y-62075000D02*
X43550000Y-61925000D01*
G75*
G02*
X43625000Y-61850000I75000J0D01*
G01*
X45025000Y-61850000D01*
G75*
G02*
X45100000Y-61925000I0J-75000D01*
G01*
X45100000Y-62075000D01*
G75*
G02*
X45025000Y-62150000I-75000J0D01*
G01*
X43625000Y-62150000D01*
G75*
G02*
X43550000Y-62075000I0J75000D01*
G01*
G37*
G36*
G01*
X43550000Y-62575000D02*
X43550000Y-62425000D01*
G75*
G02*
X43625000Y-62350000I75000J0D01*
G01*
X45025000Y-62350000D01*
G75*
G02*
X45100000Y-62425000I0J-75000D01*
G01*
X45100000Y-62575000D01*
G75*
G02*
X45025000Y-62650000I-75000J0D01*
G01*
X43625000Y-62650000D01*
G75*
G02*
X43550000Y-62575000I0J75000D01*
G01*
G37*
G36*
G01*
X43550000Y-63075000D02*
X43550000Y-62925000D01*
G75*
G02*
X43625000Y-62850000I75000J0D01*
G01*
X45025000Y-62850000D01*
G75*
G02*
X45100000Y-62925000I0J-75000D01*
G01*
X45100000Y-63075000D01*
G75*
G02*
X45025000Y-63150000I-75000J0D01*
G01*
X43625000Y-63150000D01*
G75*
G02*
X43550000Y-63075000I0J75000D01*
G01*
G37*
G36*
G01*
X43550000Y-63575000D02*
X43550000Y-63425000D01*
G75*
G02*
X43625000Y-63350000I75000J0D01*
G01*
X45025000Y-63350000D01*
G75*
G02*
X45100000Y-63425000I0J-75000D01*
G01*
X45100000Y-63575000D01*
G75*
G02*
X45025000Y-63650000I-75000J0D01*
G01*
X43625000Y-63650000D01*
G75*
G02*
X43550000Y-63575000I0J75000D01*
G01*
G37*
G36*
G01*
X43550000Y-64075000D02*
X43550000Y-63925000D01*
G75*
G02*
X43625000Y-63850000I75000J0D01*
G01*
X45025000Y-63850000D01*
G75*
G02*
X45100000Y-63925000I0J-75000D01*
G01*
X45100000Y-64075000D01*
G75*
G02*
X45025000Y-64150000I-75000J0D01*
G01*
X43625000Y-64150000D01*
G75*
G02*
X43550000Y-64075000I0J75000D01*
G01*
G37*
G36*
G01*
X43550000Y-64575000D02*
X43550000Y-64425000D01*
G75*
G02*
X43625000Y-64350000I75000J0D01*
G01*
X45025000Y-64350000D01*
G75*
G02*
X45100000Y-64425000I0J-75000D01*
G01*
X45100000Y-64575000D01*
G75*
G02*
X45025000Y-64650000I-75000J0D01*
G01*
X43625000Y-64650000D01*
G75*
G02*
X43550000Y-64575000I0J75000D01*
G01*
G37*
G36*
G01*
X43550000Y-65075000D02*
X43550000Y-64925000D01*
G75*
G02*
X43625000Y-64850000I75000J0D01*
G01*
X45025000Y-64850000D01*
G75*
G02*
X45100000Y-64925000I0J-75000D01*
G01*
X45100000Y-65075000D01*
G75*
G02*
X45025000Y-65150000I-75000J0D01*
G01*
X43625000Y-65150000D01*
G75*
G02*
X43550000Y-65075000I0J75000D01*
G01*
G37*
G36*
G01*
X43550000Y-65575000D02*
X43550000Y-65425000D01*
G75*
G02*
X43625000Y-65350000I75000J0D01*
G01*
X45025000Y-65350000D01*
G75*
G02*
X45100000Y-65425000I0J-75000D01*
G01*
X45100000Y-65575000D01*
G75*
G02*
X45025000Y-65650000I-75000J0D01*
G01*
X43625000Y-65650000D01*
G75*
G02*
X43550000Y-65575000I0J75000D01*
G01*
G37*
G36*
G01*
X43550000Y-66075000D02*
X43550000Y-65925000D01*
G75*
G02*
X43625000Y-65850000I75000J0D01*
G01*
X45025000Y-65850000D01*
G75*
G02*
X45100000Y-65925000I0J-75000D01*
G01*
X45100000Y-66075000D01*
G75*
G02*
X45025000Y-66150000I-75000J0D01*
G01*
X43625000Y-66150000D01*
G75*
G02*
X43550000Y-66075000I0J75000D01*
G01*
G37*
G36*
G01*
X43550000Y-66575000D02*
X43550000Y-66425000D01*
G75*
G02*
X43625000Y-66350000I75000J0D01*
G01*
X45025000Y-66350000D01*
G75*
G02*
X45100000Y-66425000I0J-75000D01*
G01*
X45100000Y-66575000D01*
G75*
G02*
X45025000Y-66650000I-75000J0D01*
G01*
X43625000Y-66650000D01*
G75*
G02*
X43550000Y-66575000I0J75000D01*
G01*
G37*
G36*
G01*
X46100000Y-69125000D02*
X46100000Y-67725000D01*
G75*
G02*
X46175000Y-67650000I75000J0D01*
G01*
X46325000Y-67650000D01*
G75*
G02*
X46400000Y-67725000I0J-75000D01*
G01*
X46400000Y-69125000D01*
G75*
G02*
X46325000Y-69200000I-75000J0D01*
G01*
X46175000Y-69200000D01*
G75*
G02*
X46100000Y-69125000I0J75000D01*
G01*
G37*
G36*
G01*
X46600000Y-69125000D02*
X46600000Y-67725000D01*
G75*
G02*
X46675000Y-67650000I75000J0D01*
G01*
X46825000Y-67650000D01*
G75*
G02*
X46900000Y-67725000I0J-75000D01*
G01*
X46900000Y-69125000D01*
G75*
G02*
X46825000Y-69200000I-75000J0D01*
G01*
X46675000Y-69200000D01*
G75*
G02*
X46600000Y-69125000I0J75000D01*
G01*
G37*
G36*
G01*
X47100000Y-69125000D02*
X47100000Y-67725000D01*
G75*
G02*
X47175000Y-67650000I75000J0D01*
G01*
X47325000Y-67650000D01*
G75*
G02*
X47400000Y-67725000I0J-75000D01*
G01*
X47400000Y-69125000D01*
G75*
G02*
X47325000Y-69200000I-75000J0D01*
G01*
X47175000Y-69200000D01*
G75*
G02*
X47100000Y-69125000I0J75000D01*
G01*
G37*
G36*
G01*
X47600000Y-69125000D02*
X47600000Y-67725000D01*
G75*
G02*
X47675000Y-67650000I75000J0D01*
G01*
X47825000Y-67650000D01*
G75*
G02*
X47900000Y-67725000I0J-75000D01*
G01*
X47900000Y-69125000D01*
G75*
G02*
X47825000Y-69200000I-75000J0D01*
G01*
X47675000Y-69200000D01*
G75*
G02*
X47600000Y-69125000I0J75000D01*
G01*
G37*
G36*
G01*
X48100000Y-69125000D02*
X48100000Y-67725000D01*
G75*
G02*
X48175000Y-67650000I75000J0D01*
G01*
X48325000Y-67650000D01*
G75*
G02*
X48400000Y-67725000I0J-75000D01*
G01*
X48400000Y-69125000D01*
G75*
G02*
X48325000Y-69200000I-75000J0D01*
G01*
X48175000Y-69200000D01*
G75*
G02*
X48100000Y-69125000I0J75000D01*
G01*
G37*
G36*
G01*
X48600000Y-69125000D02*
X48600000Y-67725000D01*
G75*
G02*
X48675000Y-67650000I75000J0D01*
G01*
X48825000Y-67650000D01*
G75*
G02*
X48900000Y-67725000I0J-75000D01*
G01*
X48900000Y-69125000D01*
G75*
G02*
X48825000Y-69200000I-75000J0D01*
G01*
X48675000Y-69200000D01*
G75*
G02*
X48600000Y-69125000I0J75000D01*
G01*
G37*
G36*
G01*
X49100000Y-69125000D02*
X49100000Y-67725000D01*
G75*
G02*
X49175000Y-67650000I75000J0D01*
G01*
X49325000Y-67650000D01*
G75*
G02*
X49400000Y-67725000I0J-75000D01*
G01*
X49400000Y-69125000D01*
G75*
G02*
X49325000Y-69200000I-75000J0D01*
G01*
X49175000Y-69200000D01*
G75*
G02*
X49100000Y-69125000I0J75000D01*
G01*
G37*
G36*
G01*
X49600000Y-69125000D02*
X49600000Y-67725000D01*
G75*
G02*
X49675000Y-67650000I75000J0D01*
G01*
X49825000Y-67650000D01*
G75*
G02*
X49900000Y-67725000I0J-75000D01*
G01*
X49900000Y-69125000D01*
G75*
G02*
X49825000Y-69200000I-75000J0D01*
G01*
X49675000Y-69200000D01*
G75*
G02*
X49600000Y-69125000I0J75000D01*
G01*
G37*
G36*
G01*
X50100000Y-69125000D02*
X50100000Y-67725000D01*
G75*
G02*
X50175000Y-67650000I75000J0D01*
G01*
X50325000Y-67650000D01*
G75*
G02*
X50400000Y-67725000I0J-75000D01*
G01*
X50400000Y-69125000D01*
G75*
G02*
X50325000Y-69200000I-75000J0D01*
G01*
X50175000Y-69200000D01*
G75*
G02*
X50100000Y-69125000I0J75000D01*
G01*
G37*
G36*
G01*
X50600000Y-69125000D02*
X50600000Y-67725000D01*
G75*
G02*
X50675000Y-67650000I75000J0D01*
G01*
X50825000Y-67650000D01*
G75*
G02*
X50900000Y-67725000I0J-75000D01*
G01*
X50900000Y-69125000D01*
G75*
G02*
X50825000Y-69200000I-75000J0D01*
G01*
X50675000Y-69200000D01*
G75*
G02*
X50600000Y-69125000I0J75000D01*
G01*
G37*
G36*
G01*
X51100000Y-69125000D02*
X51100000Y-67725000D01*
G75*
G02*
X51175000Y-67650000I75000J0D01*
G01*
X51325000Y-67650000D01*
G75*
G02*
X51400000Y-67725000I0J-75000D01*
G01*
X51400000Y-69125000D01*
G75*
G02*
X51325000Y-69200000I-75000J0D01*
G01*
X51175000Y-69200000D01*
G75*
G02*
X51100000Y-69125000I0J75000D01*
G01*
G37*
G36*
G01*
X51600000Y-69125000D02*
X51600000Y-67725000D01*
G75*
G02*
X51675000Y-67650000I75000J0D01*
G01*
X51825000Y-67650000D01*
G75*
G02*
X51900000Y-67725000I0J-75000D01*
G01*
X51900000Y-69125000D01*
G75*
G02*
X51825000Y-69200000I-75000J0D01*
G01*
X51675000Y-69200000D01*
G75*
G02*
X51600000Y-69125000I0J75000D01*
G01*
G37*
G36*
G01*
X52100000Y-69125000D02*
X52100000Y-67725000D01*
G75*
G02*
X52175000Y-67650000I75000J0D01*
G01*
X52325000Y-67650000D01*
G75*
G02*
X52400000Y-67725000I0J-75000D01*
G01*
X52400000Y-69125000D01*
G75*
G02*
X52325000Y-69200000I-75000J0D01*
G01*
X52175000Y-69200000D01*
G75*
G02*
X52100000Y-69125000I0J75000D01*
G01*
G37*
G36*
G01*
X52600000Y-69125000D02*
X52600000Y-67725000D01*
G75*
G02*
X52675000Y-67650000I75000J0D01*
G01*
X52825000Y-67650000D01*
G75*
G02*
X52900000Y-67725000I0J-75000D01*
G01*
X52900000Y-69125000D01*
G75*
G02*
X52825000Y-69200000I-75000J0D01*
G01*
X52675000Y-69200000D01*
G75*
G02*
X52600000Y-69125000I0J75000D01*
G01*
G37*
G36*
G01*
X53100000Y-69125000D02*
X53100000Y-67725000D01*
G75*
G02*
X53175000Y-67650000I75000J0D01*
G01*
X53325000Y-67650000D01*
G75*
G02*
X53400000Y-67725000I0J-75000D01*
G01*
X53400000Y-69125000D01*
G75*
G02*
X53325000Y-69200000I-75000J0D01*
G01*
X53175000Y-69200000D01*
G75*
G02*
X53100000Y-69125000I0J75000D01*
G01*
G37*
G36*
G01*
X53600000Y-69125000D02*
X53600000Y-67725000D01*
G75*
G02*
X53675000Y-67650000I75000J0D01*
G01*
X53825000Y-67650000D01*
G75*
G02*
X53900000Y-67725000I0J-75000D01*
G01*
X53900000Y-69125000D01*
G75*
G02*
X53825000Y-69200000I-75000J0D01*
G01*
X53675000Y-69200000D01*
G75*
G02*
X53600000Y-69125000I0J75000D01*
G01*
G37*
G36*
G01*
X54900000Y-66575000D02*
X54900000Y-66425000D01*
G75*
G02*
X54975000Y-66350000I75000J0D01*
G01*
X56375000Y-66350000D01*
G75*
G02*
X56450000Y-66425000I0J-75000D01*
G01*
X56450000Y-66575000D01*
G75*
G02*
X56375000Y-66650000I-75000J0D01*
G01*
X54975000Y-66650000D01*
G75*
G02*
X54900000Y-66575000I0J75000D01*
G01*
G37*
G36*
G01*
X54900000Y-66075000D02*
X54900000Y-65925000D01*
G75*
G02*
X54975000Y-65850000I75000J0D01*
G01*
X56375000Y-65850000D01*
G75*
G02*
X56450000Y-65925000I0J-75000D01*
G01*
X56450000Y-66075000D01*
G75*
G02*
X56375000Y-66150000I-75000J0D01*
G01*
X54975000Y-66150000D01*
G75*
G02*
X54900000Y-66075000I0J75000D01*
G01*
G37*
G36*
G01*
X54900000Y-65575000D02*
X54900000Y-65425000D01*
G75*
G02*
X54975000Y-65350000I75000J0D01*
G01*
X56375000Y-65350000D01*
G75*
G02*
X56450000Y-65425000I0J-75000D01*
G01*
X56450000Y-65575000D01*
G75*
G02*
X56375000Y-65650000I-75000J0D01*
G01*
X54975000Y-65650000D01*
G75*
G02*
X54900000Y-65575000I0J75000D01*
G01*
G37*
G36*
G01*
X54900000Y-65075000D02*
X54900000Y-64925000D01*
G75*
G02*
X54975000Y-64850000I75000J0D01*
G01*
X56375000Y-64850000D01*
G75*
G02*
X56450000Y-64925000I0J-75000D01*
G01*
X56450000Y-65075000D01*
G75*
G02*
X56375000Y-65150000I-75000J0D01*
G01*
X54975000Y-65150000D01*
G75*
G02*
X54900000Y-65075000I0J75000D01*
G01*
G37*
G36*
G01*
X54900000Y-64575000D02*
X54900000Y-64425000D01*
G75*
G02*
X54975000Y-64350000I75000J0D01*
G01*
X56375000Y-64350000D01*
G75*
G02*
X56450000Y-64425000I0J-75000D01*
G01*
X56450000Y-64575000D01*
G75*
G02*
X56375000Y-64650000I-75000J0D01*
G01*
X54975000Y-64650000D01*
G75*
G02*
X54900000Y-64575000I0J75000D01*
G01*
G37*
G36*
G01*
X54900000Y-64075000D02*
X54900000Y-63925000D01*
G75*
G02*
X54975000Y-63850000I75000J0D01*
G01*
X56375000Y-63850000D01*
G75*
G02*
X56450000Y-63925000I0J-75000D01*
G01*
X56450000Y-64075000D01*
G75*
G02*
X56375000Y-64150000I-75000J0D01*
G01*
X54975000Y-64150000D01*
G75*
G02*
X54900000Y-64075000I0J75000D01*
G01*
G37*
G36*
G01*
X54900000Y-63575000D02*
X54900000Y-63425000D01*
G75*
G02*
X54975000Y-63350000I75000J0D01*
G01*
X56375000Y-63350000D01*
G75*
G02*
X56450000Y-63425000I0J-75000D01*
G01*
X56450000Y-63575000D01*
G75*
G02*
X56375000Y-63650000I-75000J0D01*
G01*
X54975000Y-63650000D01*
G75*
G02*
X54900000Y-63575000I0J75000D01*
G01*
G37*
G36*
G01*
X54900000Y-63075000D02*
X54900000Y-62925000D01*
G75*
G02*
X54975000Y-62850000I75000J0D01*
G01*
X56375000Y-62850000D01*
G75*
G02*
X56450000Y-62925000I0J-75000D01*
G01*
X56450000Y-63075000D01*
G75*
G02*
X56375000Y-63150000I-75000J0D01*
G01*
X54975000Y-63150000D01*
G75*
G02*
X54900000Y-63075000I0J75000D01*
G01*
G37*
G36*
G01*
X54900000Y-62575000D02*
X54900000Y-62425000D01*
G75*
G02*
X54975000Y-62350000I75000J0D01*
G01*
X56375000Y-62350000D01*
G75*
G02*
X56450000Y-62425000I0J-75000D01*
G01*
X56450000Y-62575000D01*
G75*
G02*
X56375000Y-62650000I-75000J0D01*
G01*
X54975000Y-62650000D01*
G75*
G02*
X54900000Y-62575000I0J75000D01*
G01*
G37*
G36*
G01*
X54900000Y-62075000D02*
X54900000Y-61925000D01*
G75*
G02*
X54975000Y-61850000I75000J0D01*
G01*
X56375000Y-61850000D01*
G75*
G02*
X56450000Y-61925000I0J-75000D01*
G01*
X56450000Y-62075000D01*
G75*
G02*
X56375000Y-62150000I-75000J0D01*
G01*
X54975000Y-62150000D01*
G75*
G02*
X54900000Y-62075000I0J75000D01*
G01*
G37*
G36*
G01*
X54900000Y-61575000D02*
X54900000Y-61425000D01*
G75*
G02*
X54975000Y-61350000I75000J0D01*
G01*
X56375000Y-61350000D01*
G75*
G02*
X56450000Y-61425000I0J-75000D01*
G01*
X56450000Y-61575000D01*
G75*
G02*
X56375000Y-61650000I-75000J0D01*
G01*
X54975000Y-61650000D01*
G75*
G02*
X54900000Y-61575000I0J75000D01*
G01*
G37*
G36*
G01*
X54900000Y-61075000D02*
X54900000Y-60925000D01*
G75*
G02*
X54975000Y-60850000I75000J0D01*
G01*
X56375000Y-60850000D01*
G75*
G02*
X56450000Y-60925000I0J-75000D01*
G01*
X56450000Y-61075000D01*
G75*
G02*
X56375000Y-61150000I-75000J0D01*
G01*
X54975000Y-61150000D01*
G75*
G02*
X54900000Y-61075000I0J75000D01*
G01*
G37*
G36*
G01*
X54900000Y-60575000D02*
X54900000Y-60425000D01*
G75*
G02*
X54975000Y-60350000I75000J0D01*
G01*
X56375000Y-60350000D01*
G75*
G02*
X56450000Y-60425000I0J-75000D01*
G01*
X56450000Y-60575000D01*
G75*
G02*
X56375000Y-60650000I-75000J0D01*
G01*
X54975000Y-60650000D01*
G75*
G02*
X54900000Y-60575000I0J75000D01*
G01*
G37*
G36*
G01*
X54900000Y-60075000D02*
X54900000Y-59925000D01*
G75*
G02*
X54975000Y-59850000I75000J0D01*
G01*
X56375000Y-59850000D01*
G75*
G02*
X56450000Y-59925000I0J-75000D01*
G01*
X56450000Y-60075000D01*
G75*
G02*
X56375000Y-60150000I-75000J0D01*
G01*
X54975000Y-60150000D01*
G75*
G02*
X54900000Y-60075000I0J75000D01*
G01*
G37*
G36*
G01*
X54900000Y-59575000D02*
X54900000Y-59425000D01*
G75*
G02*
X54975000Y-59350000I75000J0D01*
G01*
X56375000Y-59350000D01*
G75*
G02*
X56450000Y-59425000I0J-75000D01*
G01*
X56450000Y-59575000D01*
G75*
G02*
X56375000Y-59650000I-75000J0D01*
G01*
X54975000Y-59650000D01*
G75*
G02*
X54900000Y-59575000I0J75000D01*
G01*
G37*
G36*
G01*
X54900000Y-59075000D02*
X54900000Y-58925000D01*
G75*
G02*
X54975000Y-58850000I75000J0D01*
G01*
X56375000Y-58850000D01*
G75*
G02*
X56450000Y-58925000I0J-75000D01*
G01*
X56450000Y-59075000D01*
G75*
G02*
X56375000Y-59150000I-75000J0D01*
G01*
X54975000Y-59150000D01*
G75*
G02*
X54900000Y-59075000I0J75000D01*
G01*
G37*
G36*
G01*
X53600000Y-57775000D02*
X53600000Y-56375000D01*
G75*
G02*
X53675000Y-56300000I75000J0D01*
G01*
X53825000Y-56300000D01*
G75*
G02*
X53900000Y-56375000I0J-75000D01*
G01*
X53900000Y-57775000D01*
G75*
G02*
X53825000Y-57850000I-75000J0D01*
G01*
X53675000Y-57850000D01*
G75*
G02*
X53600000Y-57775000I0J75000D01*
G01*
G37*
G36*
G01*
X53100000Y-57775000D02*
X53100000Y-56375000D01*
G75*
G02*
X53175000Y-56300000I75000J0D01*
G01*
X53325000Y-56300000D01*
G75*
G02*
X53400000Y-56375000I0J-75000D01*
G01*
X53400000Y-57775000D01*
G75*
G02*
X53325000Y-57850000I-75000J0D01*
G01*
X53175000Y-57850000D01*
G75*
G02*
X53100000Y-57775000I0J75000D01*
G01*
G37*
G36*
G01*
X52600000Y-57775000D02*
X52600000Y-56375000D01*
G75*
G02*
X52675000Y-56300000I75000J0D01*
G01*
X52825000Y-56300000D01*
G75*
G02*
X52900000Y-56375000I0J-75000D01*
G01*
X52900000Y-57775000D01*
G75*
G02*
X52825000Y-57850000I-75000J0D01*
G01*
X52675000Y-57850000D01*
G75*
G02*
X52600000Y-57775000I0J75000D01*
G01*
G37*
G36*
G01*
X52100000Y-57775000D02*
X52100000Y-56375000D01*
G75*
G02*
X52175000Y-56300000I75000J0D01*
G01*
X52325000Y-56300000D01*
G75*
G02*
X52400000Y-56375000I0J-75000D01*
G01*
X52400000Y-57775000D01*
G75*
G02*
X52325000Y-57850000I-75000J0D01*
G01*
X52175000Y-57850000D01*
G75*
G02*
X52100000Y-57775000I0J75000D01*
G01*
G37*
G36*
G01*
X51600000Y-57775000D02*
X51600000Y-56375000D01*
G75*
G02*
X51675000Y-56300000I75000J0D01*
G01*
X51825000Y-56300000D01*
G75*
G02*
X51900000Y-56375000I0J-75000D01*
G01*
X51900000Y-57775000D01*
G75*
G02*
X51825000Y-57850000I-75000J0D01*
G01*
X51675000Y-57850000D01*
G75*
G02*
X51600000Y-57775000I0J75000D01*
G01*
G37*
G36*
G01*
X51100000Y-57775000D02*
X51100000Y-56375000D01*
G75*
G02*
X51175000Y-56300000I75000J0D01*
G01*
X51325000Y-56300000D01*
G75*
G02*
X51400000Y-56375000I0J-75000D01*
G01*
X51400000Y-57775000D01*
G75*
G02*
X51325000Y-57850000I-75000J0D01*
G01*
X51175000Y-57850000D01*
G75*
G02*
X51100000Y-57775000I0J75000D01*
G01*
G37*
G36*
G01*
X50600000Y-57775000D02*
X50600000Y-56375000D01*
G75*
G02*
X50675000Y-56300000I75000J0D01*
G01*
X50825000Y-56300000D01*
G75*
G02*
X50900000Y-56375000I0J-75000D01*
G01*
X50900000Y-57775000D01*
G75*
G02*
X50825000Y-57850000I-75000J0D01*
G01*
X50675000Y-57850000D01*
G75*
G02*
X50600000Y-57775000I0J75000D01*
G01*
G37*
G36*
G01*
X50100000Y-57775000D02*
X50100000Y-56375000D01*
G75*
G02*
X50175000Y-56300000I75000J0D01*
G01*
X50325000Y-56300000D01*
G75*
G02*
X50400000Y-56375000I0J-75000D01*
G01*
X50400000Y-57775000D01*
G75*
G02*
X50325000Y-57850000I-75000J0D01*
G01*
X50175000Y-57850000D01*
G75*
G02*
X50100000Y-57775000I0J75000D01*
G01*
G37*
G36*
G01*
X49600000Y-57775000D02*
X49600000Y-56375000D01*
G75*
G02*
X49675000Y-56300000I75000J0D01*
G01*
X49825000Y-56300000D01*
G75*
G02*
X49900000Y-56375000I0J-75000D01*
G01*
X49900000Y-57775000D01*
G75*
G02*
X49825000Y-57850000I-75000J0D01*
G01*
X49675000Y-57850000D01*
G75*
G02*
X49600000Y-57775000I0J75000D01*
G01*
G37*
G36*
G01*
X49100000Y-57775000D02*
X49100000Y-56375000D01*
G75*
G02*
X49175000Y-56300000I75000J0D01*
G01*
X49325000Y-56300000D01*
G75*
G02*
X49400000Y-56375000I0J-75000D01*
G01*
X49400000Y-57775000D01*
G75*
G02*
X49325000Y-57850000I-75000J0D01*
G01*
X49175000Y-57850000D01*
G75*
G02*
X49100000Y-57775000I0J75000D01*
G01*
G37*
G36*
G01*
X48600000Y-57775000D02*
X48600000Y-56375000D01*
G75*
G02*
X48675000Y-56300000I75000J0D01*
G01*
X48825000Y-56300000D01*
G75*
G02*
X48900000Y-56375000I0J-75000D01*
G01*
X48900000Y-57775000D01*
G75*
G02*
X48825000Y-57850000I-75000J0D01*
G01*
X48675000Y-57850000D01*
G75*
G02*
X48600000Y-57775000I0J75000D01*
G01*
G37*
G36*
G01*
X48100000Y-57775000D02*
X48100000Y-56375000D01*
G75*
G02*
X48175000Y-56300000I75000J0D01*
G01*
X48325000Y-56300000D01*
G75*
G02*
X48400000Y-56375000I0J-75000D01*
G01*
X48400000Y-57775000D01*
G75*
G02*
X48325000Y-57850000I-75000J0D01*
G01*
X48175000Y-57850000D01*
G75*
G02*
X48100000Y-57775000I0J75000D01*
G01*
G37*
G36*
G01*
X47600000Y-57775000D02*
X47600000Y-56375000D01*
G75*
G02*
X47675000Y-56300000I75000J0D01*
G01*
X47825000Y-56300000D01*
G75*
G02*
X47900000Y-56375000I0J-75000D01*
G01*
X47900000Y-57775000D01*
G75*
G02*
X47825000Y-57850000I-75000J0D01*
G01*
X47675000Y-57850000D01*
G75*
G02*
X47600000Y-57775000I0J75000D01*
G01*
G37*
G36*
G01*
X47100000Y-57775000D02*
X47100000Y-56375000D01*
G75*
G02*
X47175000Y-56300000I75000J0D01*
G01*
X47325000Y-56300000D01*
G75*
G02*
X47400000Y-56375000I0J-75000D01*
G01*
X47400000Y-57775000D01*
G75*
G02*
X47325000Y-57850000I-75000J0D01*
G01*
X47175000Y-57850000D01*
G75*
G02*
X47100000Y-57775000I0J75000D01*
G01*
G37*
G36*
G01*
X46600000Y-57775000D02*
X46600000Y-56375000D01*
G75*
G02*
X46675000Y-56300000I75000J0D01*
G01*
X46825000Y-56300000D01*
G75*
G02*
X46900000Y-56375000I0J-75000D01*
G01*
X46900000Y-57775000D01*
G75*
G02*
X46825000Y-57850000I-75000J0D01*
G01*
X46675000Y-57850000D01*
G75*
G02*
X46600000Y-57775000I0J75000D01*
G01*
G37*
G36*
G01*
X46100000Y-57775000D02*
X46100000Y-56375000D01*
G75*
G02*
X46175000Y-56300000I75000J0D01*
G01*
X46325000Y-56300000D01*
G75*
G02*
X46400000Y-56375000I0J-75000D01*
G01*
X46400000Y-57775000D01*
G75*
G02*
X46325000Y-57850000I-75000J0D01*
G01*
X46175000Y-57850000D01*
G75*
G02*
X46100000Y-57775000I0J75000D01*
G01*
G37*
%TD*%
D20*
%TO.C,U3*%
X74875000Y-52575000D03*
X74875000Y-53525000D03*
X74875000Y-51625000D03*
X77075000Y-51625000D03*
X77075000Y-52575000D03*
X77075000Y-53525000D03*
%TD*%
D21*
%TO.C,Y1*%
X37650000Y-59900000D03*
X37650000Y-62100000D03*
X39350000Y-62100000D03*
X39350000Y-59900000D03*
%TD*%
M02*
