%TF.GenerationSoftware,KiCad,Pcbnew,(5.1.6)-1*%
%TF.CreationDate,2020-09-25T18:38:39+02:00*%
%TF.ProjectId,STM32F4_REV2,53544d33-3246-4345-9f52-4556322e6b69,rev?*%
%TF.SameCoordinates,Original*%
%TF.FileFunction,Soldermask,Bot*%
%TF.FilePolarity,Negative*%
%FSLAX46Y46*%
G04 Gerber Fmt 4.6, Leading zero omitted, Abs format (unit mm)*
G04 Created by KiCad (PCBNEW (5.1.6)-1) date 2020-09-25 18:38:39*
%MOMM*%
%LPD*%
G01*
G04 APERTURE LIST*
%ADD10C,1.252000*%
%ADD11C,1.000000*%
%ADD12C,8.700000*%
%ADD13R,2.500000X2.500000*%
%ADD14C,2.500000*%
%ADD15O,0.900000X1.400000*%
%ADD16O,1.850000X1.600000*%
G04 APERTURE END LIST*
D10*
%TO.C,REF\u002A\u002A*%
X75250000Y-81000000D03*
%TD*%
%TO.C,REF\u002A\u002A*%
X75250000Y-41000000D03*
%TD*%
%TO.C,REF\u002A\u002A*%
X42500000Y-41000000D03*
%TD*%
D11*
%TO.C,SW1*%
X32920000Y-50500000D03*
X32920000Y-53500000D03*
%TD*%
D12*
%TO.C,H1*%
X81250000Y-41000000D03*
D11*
X84475000Y-41000000D03*
X83530419Y-43280419D03*
X81250000Y-44225000D03*
X78969581Y-43280419D03*
X78025000Y-41000000D03*
X78969581Y-38719581D03*
X81250000Y-37775000D03*
X83530419Y-38719581D03*
%TD*%
%TO.C,H2*%
X83530419Y-78719581D03*
X81250000Y-77775000D03*
X78969581Y-78719581D03*
X78025000Y-81000000D03*
X78969581Y-83280419D03*
X81250000Y-84225000D03*
X83530419Y-83280419D03*
X84475000Y-81000000D03*
D12*
X81250000Y-81000000D03*
%TD*%
%TO.C,H3*%
X36250000Y-81000000D03*
D11*
X39475000Y-81000000D03*
X38530419Y-83280419D03*
X36250000Y-84225000D03*
X33969581Y-83280419D03*
X33025000Y-81000000D03*
X33969581Y-78719581D03*
X36250000Y-77775000D03*
X38530419Y-78719581D03*
%TD*%
%TO.C,H4*%
X38530419Y-38719581D03*
X36250000Y-37775000D03*
X33969581Y-38719581D03*
X33025000Y-41000000D03*
X33969581Y-43280419D03*
X36250000Y-44225000D03*
X38530419Y-43280419D03*
X39475000Y-41000000D03*
D12*
X36250000Y-41000000D03*
%TD*%
D13*
%TO.C,J1*%
X81250000Y-70500000D03*
D14*
X81250000Y-67000000D03*
%TD*%
D15*
%TO.C,J3*%
X47500000Y-41000000D03*
X48750000Y-41000000D03*
X50000000Y-41000000D03*
G36*
G01*
X51700000Y-40525000D02*
X51700000Y-41475000D01*
G75*
G02*
X51475000Y-41700000I-225000J0D01*
G01*
X51025000Y-41700000D01*
G75*
G02*
X50800000Y-41475000I0J225000D01*
G01*
X50800000Y-40525000D01*
G75*
G02*
X51025000Y-40300000I225000J0D01*
G01*
X51475000Y-40300000D01*
G75*
G02*
X51700000Y-40525000I0J-225000D01*
G01*
G37*
%TD*%
%TO.C,J4*%
G36*
G01*
X47050000Y-81475000D02*
X47050000Y-80525000D01*
G75*
G02*
X47275000Y-80300000I225000J0D01*
G01*
X47725000Y-80300000D01*
G75*
G02*
X47950000Y-80525000I0J-225000D01*
G01*
X47950000Y-81475000D01*
G75*
G02*
X47725000Y-81700000I-225000J0D01*
G01*
X47275000Y-81700000D01*
G75*
G02*
X47050000Y-81475000I0J225000D01*
G01*
G37*
X48750000Y-81000000D03*
X50000000Y-81000000D03*
X51250000Y-81000000D03*
%TD*%
D16*
%TO.C,J5*%
X84575000Y-55550000D03*
X84575000Y-48950000D03*
%TD*%
M02*
