%TF.GenerationSoftware,KiCad,Pcbnew,(5.1.6)-1*%
%TF.CreationDate,2020-09-25T18:38:39+02:00*%
%TF.ProjectId,STM32F4_REV2,53544d33-3246-4345-9f52-4556322e6b69,rev?*%
%TF.SameCoordinates,Original*%
%TF.FileFunction,Soldermask,Top*%
%TF.FilePolarity,Negative*%
%FSLAX46Y46*%
G04 Gerber Fmt 4.6, Leading zero omitted, Abs format (unit mm)*
G04 Created by KiCad (PCBNEW (5.1.6)-1) date 2020-09-25 18:38:39*
%MOMM*%
%LPD*%
G01*
G04 APERTURE LIST*
%ADD10C,1.252000*%
%ADD11C,1.000000*%
%ADD12R,1.600000X0.800000*%
%ADD13R,0.900000X1.100000*%
%ADD14R,0.840000X2.500000*%
%ADD15R,1.000000X1.300000*%
%ADD16C,8.700000*%
%ADD17R,2.500000X2.500000*%
%ADD18C,2.500000*%
%ADD19O,0.900000X1.400000*%
%ADD20R,1.450000X0.500000*%
%ADD21O,1.850000X1.600000*%
%ADD22R,1.500000X1.700000*%
%ADD23R,1.700000X2.000000*%
%ADD24R,2.600000X2.000000*%
%ADD25R,0.900000X1.000000*%
%ADD26R,0.750000X1.160000*%
%ADD27R,1.160000X0.750000*%
%ADD28R,1.300000X1.500000*%
G04 APERTURE END LIST*
D10*
%TO.C,REF\u002A\u002A*%
X75250000Y-81000000D03*
%TD*%
%TO.C,REF\u002A\u002A*%
X75250000Y-41000000D03*
%TD*%
%TO.C,REF\u002A\u002A*%
X42500000Y-41000000D03*
%TD*%
D11*
%TO.C,SW1*%
X32920000Y-50500000D03*
X32920000Y-53500000D03*
D12*
X34680000Y-49750000D03*
X34680000Y-52750000D03*
X34680000Y-54250000D03*
D13*
X31820000Y-48350000D03*
X31820000Y-55650000D03*
X34030000Y-55650000D03*
X34030000Y-48350000D03*
%TD*%
D14*
%TO.C,J2*%
X59710000Y-42950000D03*
X59710000Y-39050000D03*
X60980000Y-42950000D03*
X60980000Y-39050000D03*
X62250000Y-42950000D03*
X62250000Y-39050000D03*
X63520000Y-42950000D03*
X63520000Y-39050000D03*
X64790000Y-42950000D03*
X64790000Y-39050000D03*
%TD*%
%TO.C,C1*%
G36*
G01*
X69825000Y-68655000D02*
X69825000Y-67345000D01*
G75*
G02*
X70095000Y-67075000I270000J0D01*
G01*
X70905000Y-67075000D01*
G75*
G02*
X71175000Y-67345000I0J-270000D01*
G01*
X71175000Y-68655000D01*
G75*
G02*
X70905000Y-68925000I-270000J0D01*
G01*
X70095000Y-68925000D01*
G75*
G02*
X69825000Y-68655000I0J270000D01*
G01*
G37*
G36*
G01*
X72625000Y-68655000D02*
X72625000Y-67345000D01*
G75*
G02*
X72895000Y-67075000I270000J0D01*
G01*
X73705000Y-67075000D01*
G75*
G02*
X73975000Y-67345000I0J-270000D01*
G01*
X73975000Y-68655000D01*
G75*
G02*
X73705000Y-68925000I-270000J0D01*
G01*
X72895000Y-68925000D01*
G75*
G02*
X72625000Y-68655000I0J270000D01*
G01*
G37*
%TD*%
%TO.C,C2*%
G36*
G01*
X62825000Y-77905000D02*
X62825000Y-76595000D01*
G75*
G02*
X63095000Y-76325000I270000J0D01*
G01*
X63905000Y-76325000D01*
G75*
G02*
X64175000Y-76595000I0J-270000D01*
G01*
X64175000Y-77905000D01*
G75*
G02*
X63905000Y-78175000I-270000J0D01*
G01*
X63095000Y-78175000D01*
G75*
G02*
X62825000Y-77905000I0J270000D01*
G01*
G37*
G36*
G01*
X65625000Y-77905000D02*
X65625000Y-76595000D01*
G75*
G02*
X65895000Y-76325000I270000J0D01*
G01*
X66705000Y-76325000D01*
G75*
G02*
X66975000Y-76595000I0J-270000D01*
G01*
X66975000Y-77905000D01*
G75*
G02*
X66705000Y-78175000I-270000J0D01*
G01*
X65895000Y-78175000D01*
G75*
G02*
X65625000Y-77905000I0J270000D01*
G01*
G37*
%TD*%
%TO.C,C3*%
G36*
G01*
X65625000Y-80655000D02*
X65625000Y-79345000D01*
G75*
G02*
X65895000Y-79075000I270000J0D01*
G01*
X66705000Y-79075000D01*
G75*
G02*
X66975000Y-79345000I0J-270000D01*
G01*
X66975000Y-80655000D01*
G75*
G02*
X66705000Y-80925000I-270000J0D01*
G01*
X65895000Y-80925000D01*
G75*
G02*
X65625000Y-80655000I0J270000D01*
G01*
G37*
G36*
G01*
X62825000Y-80655000D02*
X62825000Y-79345000D01*
G75*
G02*
X63095000Y-79075000I270000J0D01*
G01*
X63905000Y-79075000D01*
G75*
G02*
X64175000Y-79345000I0J-270000D01*
G01*
X64175000Y-80655000D01*
G75*
G02*
X63905000Y-80925000I-270000J0D01*
G01*
X63095000Y-80925000D01*
G75*
G02*
X62825000Y-80655000I0J270000D01*
G01*
G37*
%TD*%
%TO.C,C4*%
G36*
G01*
X67218750Y-70975000D02*
X67781250Y-70975000D01*
G75*
G02*
X68025000Y-71218750I0J-243750D01*
G01*
X68025000Y-71706250D01*
G75*
G02*
X67781250Y-71950000I-243750J0D01*
G01*
X67218750Y-71950000D01*
G75*
G02*
X66975000Y-71706250I0J243750D01*
G01*
X66975000Y-71218750D01*
G75*
G02*
X67218750Y-70975000I243750J0D01*
G01*
G37*
G36*
G01*
X67218750Y-72550000D02*
X67781250Y-72550000D01*
G75*
G02*
X68025000Y-72793750I0J-243750D01*
G01*
X68025000Y-73281250D01*
G75*
G02*
X67781250Y-73525000I-243750J0D01*
G01*
X67218750Y-73525000D01*
G75*
G02*
X66975000Y-73281250I0J243750D01*
G01*
X66975000Y-72793750D01*
G75*
G02*
X67218750Y-72550000I243750J0D01*
G01*
G37*
%TD*%
%TO.C,C5*%
G36*
G01*
X42912500Y-54718750D02*
X42912500Y-55281250D01*
G75*
G02*
X42668750Y-55525000I-243750J0D01*
G01*
X42181250Y-55525000D01*
G75*
G02*
X41937500Y-55281250I0J243750D01*
G01*
X41937500Y-54718750D01*
G75*
G02*
X42181250Y-54475000I243750J0D01*
G01*
X42668750Y-54475000D01*
G75*
G02*
X42912500Y-54718750I0J-243750D01*
G01*
G37*
G36*
G01*
X44487500Y-54718750D02*
X44487500Y-55281250D01*
G75*
G02*
X44243750Y-55525000I-243750J0D01*
G01*
X43756250Y-55525000D01*
G75*
G02*
X43512500Y-55281250I0J243750D01*
G01*
X43512500Y-54718750D01*
G75*
G02*
X43756250Y-54475000I243750J0D01*
G01*
X44243750Y-54475000D01*
G75*
G02*
X44487500Y-54718750I0J-243750D01*
G01*
G37*
%TD*%
%TO.C,C6*%
G36*
G01*
X42447500Y-58375000D02*
X42052500Y-58375000D01*
G75*
G02*
X41880000Y-58202500I0J172500D01*
G01*
X41880000Y-57857500D01*
G75*
G02*
X42052500Y-57685000I172500J0D01*
G01*
X42447500Y-57685000D01*
G75*
G02*
X42620000Y-57857500I0J-172500D01*
G01*
X42620000Y-58202500D01*
G75*
G02*
X42447500Y-58375000I-172500J0D01*
G01*
G37*
G36*
G01*
X42447500Y-59345000D02*
X42052500Y-59345000D01*
G75*
G02*
X41880000Y-59172500I0J172500D01*
G01*
X41880000Y-58827500D01*
G75*
G02*
X42052500Y-58655000I172500J0D01*
G01*
X42447500Y-58655000D01*
G75*
G02*
X42620000Y-58827500I0J-172500D01*
G01*
X42620000Y-59172500D01*
G75*
G02*
X42447500Y-59345000I-172500J0D01*
G01*
G37*
%TD*%
%TO.C,C7*%
G36*
G01*
X47845000Y-70302500D02*
X47845000Y-70697500D01*
G75*
G02*
X47672500Y-70870000I-172500J0D01*
G01*
X47327500Y-70870000D01*
G75*
G02*
X47155000Y-70697500I0J172500D01*
G01*
X47155000Y-70302500D01*
G75*
G02*
X47327500Y-70130000I172500J0D01*
G01*
X47672500Y-70130000D01*
G75*
G02*
X47845000Y-70302500I0J-172500D01*
G01*
G37*
G36*
G01*
X46875000Y-70302500D02*
X46875000Y-70697500D01*
G75*
G02*
X46702500Y-70870000I-172500J0D01*
G01*
X46357500Y-70870000D01*
G75*
G02*
X46185000Y-70697500I0J172500D01*
G01*
X46185000Y-70302500D01*
G75*
G02*
X46357500Y-70130000I172500J0D01*
G01*
X46702500Y-70130000D01*
G75*
G02*
X46875000Y-70302500I0J-172500D01*
G01*
G37*
%TD*%
%TO.C,C8*%
G36*
G01*
X55875000Y-69197500D02*
X55875000Y-68802500D01*
G75*
G02*
X56047500Y-68630000I172500J0D01*
G01*
X56392500Y-68630000D01*
G75*
G02*
X56565000Y-68802500I0J-172500D01*
G01*
X56565000Y-69197500D01*
G75*
G02*
X56392500Y-69370000I-172500J0D01*
G01*
X56047500Y-69370000D01*
G75*
G02*
X55875000Y-69197500I0J172500D01*
G01*
G37*
G36*
G01*
X54905000Y-69197500D02*
X54905000Y-68802500D01*
G75*
G02*
X55077500Y-68630000I172500J0D01*
G01*
X55422500Y-68630000D01*
G75*
G02*
X55595000Y-68802500I0J-172500D01*
G01*
X55595000Y-69197500D01*
G75*
G02*
X55422500Y-69370000I-172500J0D01*
G01*
X55077500Y-69370000D01*
G75*
G02*
X54905000Y-69197500I0J172500D01*
G01*
G37*
%TD*%
%TO.C,C9*%
G36*
G01*
X56447500Y-57815000D02*
X56052500Y-57815000D01*
G75*
G02*
X55880000Y-57642500I0J172500D01*
G01*
X55880000Y-57297500D01*
G75*
G02*
X56052500Y-57125000I172500J0D01*
G01*
X56447500Y-57125000D01*
G75*
G02*
X56620000Y-57297500I0J-172500D01*
G01*
X56620000Y-57642500D01*
G75*
G02*
X56447500Y-57815000I-172500J0D01*
G01*
G37*
G36*
G01*
X56447500Y-56845000D02*
X56052500Y-56845000D01*
G75*
G02*
X55880000Y-56672500I0J172500D01*
G01*
X55880000Y-56327500D01*
G75*
G02*
X56052500Y-56155000I172500J0D01*
G01*
X56447500Y-56155000D01*
G75*
G02*
X56620000Y-56327500I0J-172500D01*
G01*
X56620000Y-56672500D01*
G75*
G02*
X56447500Y-56845000I-172500J0D01*
G01*
G37*
%TD*%
%TO.C,C10*%
G36*
G01*
X46625000Y-55197500D02*
X46625000Y-54802500D01*
G75*
G02*
X46797500Y-54630000I172500J0D01*
G01*
X47142500Y-54630000D01*
G75*
G02*
X47315000Y-54802500I0J-172500D01*
G01*
X47315000Y-55197500D01*
G75*
G02*
X47142500Y-55370000I-172500J0D01*
G01*
X46797500Y-55370000D01*
G75*
G02*
X46625000Y-55197500I0J172500D01*
G01*
G37*
G36*
G01*
X45655000Y-55197500D02*
X45655000Y-54802500D01*
G75*
G02*
X45827500Y-54630000I172500J0D01*
G01*
X46172500Y-54630000D01*
G75*
G02*
X46345000Y-54802500I0J-172500D01*
G01*
X46345000Y-55197500D01*
G75*
G02*
X46172500Y-55370000I-172500J0D01*
G01*
X45827500Y-55370000D01*
G75*
G02*
X45655000Y-55197500I0J172500D01*
G01*
G37*
%TD*%
%TO.C,C11*%
G36*
G01*
X41197500Y-65595000D02*
X40802500Y-65595000D01*
G75*
G02*
X40630000Y-65422500I0J172500D01*
G01*
X40630000Y-65077500D01*
G75*
G02*
X40802500Y-64905000I172500J0D01*
G01*
X41197500Y-64905000D01*
G75*
G02*
X41370000Y-65077500I0J-172500D01*
G01*
X41370000Y-65422500D01*
G75*
G02*
X41197500Y-65595000I-172500J0D01*
G01*
G37*
G36*
G01*
X41197500Y-64625000D02*
X40802500Y-64625000D01*
G75*
G02*
X40630000Y-64452500I0J172500D01*
G01*
X40630000Y-64107500D01*
G75*
G02*
X40802500Y-63935000I172500J0D01*
G01*
X41197500Y-63935000D01*
G75*
G02*
X41370000Y-64107500I0J-172500D01*
G01*
X41370000Y-64452500D01*
G75*
G02*
X41197500Y-64625000I-172500J0D01*
G01*
G37*
%TD*%
%TO.C,C12*%
G36*
G01*
X42447500Y-65580000D02*
X42052500Y-65580000D01*
G75*
G02*
X41880000Y-65407500I0J172500D01*
G01*
X41880000Y-65062500D01*
G75*
G02*
X42052500Y-64890000I172500J0D01*
G01*
X42447500Y-64890000D01*
G75*
G02*
X42620000Y-65062500I0J-172500D01*
G01*
X42620000Y-65407500D01*
G75*
G02*
X42447500Y-65580000I-172500J0D01*
G01*
G37*
G36*
G01*
X42447500Y-64610000D02*
X42052500Y-64610000D01*
G75*
G02*
X41880000Y-64437500I0J172500D01*
G01*
X41880000Y-64092500D01*
G75*
G02*
X42052500Y-63920000I172500J0D01*
G01*
X42447500Y-63920000D01*
G75*
G02*
X42620000Y-64092500I0J-172500D01*
G01*
X42620000Y-64437500D01*
G75*
G02*
X42447500Y-64610000I-172500J0D01*
G01*
G37*
%TD*%
%TO.C,C13*%
G36*
G01*
X53262500Y-71031250D02*
X53262500Y-70468750D01*
G75*
G02*
X53506250Y-70225000I243750J0D01*
G01*
X53993750Y-70225000D01*
G75*
G02*
X54237500Y-70468750I0J-243750D01*
G01*
X54237500Y-71031250D01*
G75*
G02*
X53993750Y-71275000I-243750J0D01*
G01*
X53506250Y-71275000D01*
G75*
G02*
X53262500Y-71031250I0J243750D01*
G01*
G37*
G36*
G01*
X54837500Y-71031250D02*
X54837500Y-70468750D01*
G75*
G02*
X55081250Y-70225000I243750J0D01*
G01*
X55568750Y-70225000D01*
G75*
G02*
X55812500Y-70468750I0J-243750D01*
G01*
X55812500Y-71031250D01*
G75*
G02*
X55568750Y-71275000I-243750J0D01*
G01*
X55081250Y-71275000D01*
G75*
G02*
X54837500Y-71031250I0J243750D01*
G01*
G37*
%TD*%
%TO.C,C14*%
G36*
G01*
X58318750Y-57950000D02*
X57756250Y-57950000D01*
G75*
G02*
X57512500Y-57706250I0J243750D01*
G01*
X57512500Y-57218750D01*
G75*
G02*
X57756250Y-56975000I243750J0D01*
G01*
X58318750Y-56975000D01*
G75*
G02*
X58562500Y-57218750I0J-243750D01*
G01*
X58562500Y-57706250D01*
G75*
G02*
X58318750Y-57950000I-243750J0D01*
G01*
G37*
G36*
G01*
X58318750Y-59525000D02*
X57756250Y-59525000D01*
G75*
G02*
X57512500Y-59281250I0J243750D01*
G01*
X57512500Y-58793750D01*
G75*
G02*
X57756250Y-58550000I243750J0D01*
G01*
X58318750Y-58550000D01*
G75*
G02*
X58562500Y-58793750I0J-243750D01*
G01*
X58562500Y-59281250D01*
G75*
G02*
X58318750Y-59525000I-243750J0D01*
G01*
G37*
%TD*%
%TO.C,C15*%
G36*
G01*
X38640000Y-58197500D02*
X38640000Y-57802500D01*
G75*
G02*
X38812500Y-57630000I172500J0D01*
G01*
X39157500Y-57630000D01*
G75*
G02*
X39330000Y-57802500I0J-172500D01*
G01*
X39330000Y-58197500D01*
G75*
G02*
X39157500Y-58370000I-172500J0D01*
G01*
X38812500Y-58370000D01*
G75*
G02*
X38640000Y-58197500I0J172500D01*
G01*
G37*
G36*
G01*
X37670000Y-58197500D02*
X37670000Y-57802500D01*
G75*
G02*
X37842500Y-57630000I172500J0D01*
G01*
X38187500Y-57630000D01*
G75*
G02*
X38360000Y-57802500I0J-172500D01*
G01*
X38360000Y-58197500D01*
G75*
G02*
X38187500Y-58370000I-172500J0D01*
G01*
X37842500Y-58370000D01*
G75*
G02*
X37670000Y-58197500I0J172500D01*
G01*
G37*
%TD*%
%TO.C,C16*%
G36*
G01*
X39330000Y-63802500D02*
X39330000Y-64197500D01*
G75*
G02*
X39157500Y-64370000I-172500J0D01*
G01*
X38812500Y-64370000D01*
G75*
G02*
X38640000Y-64197500I0J172500D01*
G01*
X38640000Y-63802500D01*
G75*
G02*
X38812500Y-63630000I172500J0D01*
G01*
X39157500Y-63630000D01*
G75*
G02*
X39330000Y-63802500I0J-172500D01*
G01*
G37*
G36*
G01*
X38360000Y-63802500D02*
X38360000Y-64197500D01*
G75*
G02*
X38187500Y-64370000I-172500J0D01*
G01*
X37842500Y-64370000D01*
G75*
G02*
X37670000Y-64197500I0J172500D01*
G01*
X37670000Y-63802500D01*
G75*
G02*
X37842500Y-63630000I172500J0D01*
G01*
X38187500Y-63630000D01*
G75*
G02*
X38360000Y-63802500I0J-172500D01*
G01*
G37*
%TD*%
D15*
%TO.C,D1*%
X78800000Y-61250000D03*
X75500000Y-61250000D03*
%TD*%
%TO.C,D2*%
X63500000Y-67250000D03*
X66800000Y-67250000D03*
%TD*%
%TO.C,D3*%
G36*
G01*
X71487500Y-38968750D02*
X71487500Y-39531250D01*
G75*
G02*
X71243750Y-39775000I-243750J0D01*
G01*
X70756250Y-39775000D01*
G75*
G02*
X70512500Y-39531250I0J243750D01*
G01*
X70512500Y-38968750D01*
G75*
G02*
X70756250Y-38725000I243750J0D01*
G01*
X71243750Y-38725000D01*
G75*
G02*
X71487500Y-38968750I0J-243750D01*
G01*
G37*
G36*
G01*
X73062500Y-38968750D02*
X73062500Y-39531250D01*
G75*
G02*
X72818750Y-39775000I-243750J0D01*
G01*
X72331250Y-39775000D01*
G75*
G02*
X72087500Y-39531250I0J243750D01*
G01*
X72087500Y-38968750D01*
G75*
G02*
X72331250Y-38725000I243750J0D01*
G01*
X72818750Y-38725000D01*
G75*
G02*
X73062500Y-38968750I0J-243750D01*
G01*
G37*
%TD*%
%TO.C,D4*%
G36*
G01*
X43781250Y-70525000D02*
X43218750Y-70525000D01*
G75*
G02*
X42975000Y-70281250I0J243750D01*
G01*
X42975000Y-69793750D01*
G75*
G02*
X43218750Y-69550000I243750J0D01*
G01*
X43781250Y-69550000D01*
G75*
G02*
X44025000Y-69793750I0J-243750D01*
G01*
X44025000Y-70281250D01*
G75*
G02*
X43781250Y-70525000I-243750J0D01*
G01*
G37*
G36*
G01*
X43781250Y-68950000D02*
X43218750Y-68950000D01*
G75*
G02*
X42975000Y-68706250I0J243750D01*
G01*
X42975000Y-68218750D01*
G75*
G02*
X43218750Y-67975000I243750J0D01*
G01*
X43781250Y-67975000D01*
G75*
G02*
X44025000Y-68218750I0J-243750D01*
G01*
X44025000Y-68706250D01*
G75*
G02*
X43781250Y-68950000I-243750J0D01*
G01*
G37*
%TD*%
%TO.C,F1*%
G36*
G01*
X69825000Y-61905000D02*
X69825000Y-60595000D01*
G75*
G02*
X70095000Y-60325000I270000J0D01*
G01*
X70905000Y-60325000D01*
G75*
G02*
X71175000Y-60595000I0J-270000D01*
G01*
X71175000Y-61905000D01*
G75*
G02*
X70905000Y-62175000I-270000J0D01*
G01*
X70095000Y-62175000D01*
G75*
G02*
X69825000Y-61905000I0J270000D01*
G01*
G37*
G36*
G01*
X72625000Y-61905000D02*
X72625000Y-60595000D01*
G75*
G02*
X72895000Y-60325000I270000J0D01*
G01*
X73705000Y-60325000D01*
G75*
G02*
X73975000Y-60595000I0J-270000D01*
G01*
X73975000Y-61905000D01*
G75*
G02*
X73705000Y-62175000I-270000J0D01*
G01*
X72895000Y-62175000D01*
G75*
G02*
X72625000Y-61905000I0J270000D01*
G01*
G37*
%TD*%
%TO.C,FB1*%
G36*
G01*
X70981250Y-66287500D02*
X70018750Y-66287500D01*
G75*
G02*
X69750000Y-66018750I0J268750D01*
G01*
X69750000Y-65481250D01*
G75*
G02*
X70018750Y-65212500I268750J0D01*
G01*
X70981250Y-65212500D01*
G75*
G02*
X71250000Y-65481250I0J-268750D01*
G01*
X71250000Y-66018750D01*
G75*
G02*
X70981250Y-66287500I-268750J0D01*
G01*
G37*
G36*
G01*
X70981250Y-64412500D02*
X70018750Y-64412500D01*
G75*
G02*
X69750000Y-64143750I0J268750D01*
G01*
X69750000Y-63606250D01*
G75*
G02*
X70018750Y-63337500I268750J0D01*
G01*
X70981250Y-63337500D01*
G75*
G02*
X71250000Y-63606250I0J-268750D01*
G01*
X71250000Y-64143750D01*
G75*
G02*
X70981250Y-64412500I-268750J0D01*
G01*
G37*
%TD*%
D16*
%TO.C,H1*%
X81250000Y-41000000D03*
D11*
X84475000Y-41000000D03*
X83530419Y-43280419D03*
X81250000Y-44225000D03*
X78969581Y-43280419D03*
X78025000Y-41000000D03*
X78969581Y-38719581D03*
X81250000Y-37775000D03*
X83530419Y-38719581D03*
%TD*%
%TO.C,H2*%
X83530419Y-78719581D03*
X81250000Y-77775000D03*
X78969581Y-78719581D03*
X78025000Y-81000000D03*
X78969581Y-83280419D03*
X81250000Y-84225000D03*
X83530419Y-83280419D03*
X84475000Y-81000000D03*
D16*
X81250000Y-81000000D03*
%TD*%
%TO.C,H3*%
X36250000Y-81000000D03*
D11*
X39475000Y-81000000D03*
X38530419Y-83280419D03*
X36250000Y-84225000D03*
X33969581Y-83280419D03*
X33025000Y-81000000D03*
X33969581Y-78719581D03*
X36250000Y-77775000D03*
X38530419Y-78719581D03*
%TD*%
%TO.C,H4*%
X38530419Y-38719581D03*
X36250000Y-37775000D03*
X33969581Y-38719581D03*
X33025000Y-41000000D03*
X33969581Y-43280419D03*
X36250000Y-44225000D03*
X38530419Y-43280419D03*
X39475000Y-41000000D03*
D16*
X36250000Y-41000000D03*
%TD*%
D17*
%TO.C,J1*%
X81250000Y-70500000D03*
D18*
X81250000Y-67000000D03*
%TD*%
D19*
%TO.C,J3*%
X47500000Y-41000000D03*
X48750000Y-41000000D03*
X50000000Y-41000000D03*
G36*
G01*
X51700000Y-40525000D02*
X51700000Y-41475000D01*
G75*
G02*
X51475000Y-41700000I-225000J0D01*
G01*
X51025000Y-41700000D01*
G75*
G02*
X50800000Y-41475000I0J225000D01*
G01*
X50800000Y-40525000D01*
G75*
G02*
X51025000Y-40300000I225000J0D01*
G01*
X51475000Y-40300000D01*
G75*
G02*
X51700000Y-40525000I0J-225000D01*
G01*
G37*
%TD*%
%TO.C,J4*%
G36*
G01*
X47050000Y-81475000D02*
X47050000Y-80525000D01*
G75*
G02*
X47275000Y-80300000I225000J0D01*
G01*
X47725000Y-80300000D01*
G75*
G02*
X47950000Y-80525000I0J-225000D01*
G01*
X47950000Y-81475000D01*
G75*
G02*
X47725000Y-81700000I-225000J0D01*
G01*
X47275000Y-81700000D01*
G75*
G02*
X47050000Y-81475000I0J225000D01*
G01*
G37*
X48750000Y-81000000D03*
X50000000Y-81000000D03*
X51250000Y-81000000D03*
%TD*%
D20*
%TO.C,J5*%
X81900000Y-53550000D03*
X81900000Y-52900000D03*
X81900000Y-52250000D03*
X81900000Y-51600000D03*
X81900000Y-50950000D03*
D21*
X84575000Y-55550000D03*
X84575000Y-48950000D03*
D22*
X82125000Y-55450000D03*
D23*
X84575000Y-53450000D03*
X84575000Y-51050000D03*
D22*
X82125000Y-49050000D03*
%TD*%
D24*
%TO.C,L1*%
X63500000Y-70200000D03*
X63500000Y-74300000D03*
%TD*%
%TO.C,L2*%
G36*
G01*
X38670000Y-66697500D02*
X38670000Y-66302500D01*
G75*
G02*
X38842500Y-66130000I172500J0D01*
G01*
X39187500Y-66130000D01*
G75*
G02*
X39360000Y-66302500I0J-172500D01*
G01*
X39360000Y-66697500D01*
G75*
G02*
X39187500Y-66870000I-172500J0D01*
G01*
X38842500Y-66870000D01*
G75*
G02*
X38670000Y-66697500I0J172500D01*
G01*
G37*
G36*
G01*
X39640000Y-66697500D02*
X39640000Y-66302500D01*
G75*
G02*
X39812500Y-66130000I172500J0D01*
G01*
X40157500Y-66130000D01*
G75*
G02*
X40330000Y-66302500I0J-172500D01*
G01*
X40330000Y-66697500D01*
G75*
G02*
X40157500Y-66870000I-172500J0D01*
G01*
X39812500Y-66870000D01*
G75*
G02*
X39640000Y-66697500I0J172500D01*
G01*
G37*
%TD*%
D25*
%TO.C,Q1*%
X75450000Y-63750000D03*
X73550000Y-63750000D03*
X74500000Y-65750000D03*
%TD*%
%TO.C,R1*%
G36*
G01*
X73218750Y-71262500D02*
X73781250Y-71262500D01*
G75*
G02*
X74025000Y-71506250I0J-243750D01*
G01*
X74025000Y-71993750D01*
G75*
G02*
X73781250Y-72237500I-243750J0D01*
G01*
X73218750Y-72237500D01*
G75*
G02*
X72975000Y-71993750I0J243750D01*
G01*
X72975000Y-71506250D01*
G75*
G02*
X73218750Y-71262500I243750J0D01*
G01*
G37*
G36*
G01*
X73218750Y-69687500D02*
X73781250Y-69687500D01*
G75*
G02*
X74025000Y-69931250I0J-243750D01*
G01*
X74025000Y-70418750D01*
G75*
G02*
X73781250Y-70662500I-243750J0D01*
G01*
X73218750Y-70662500D01*
G75*
G02*
X72975000Y-70418750I0J243750D01*
G01*
X72975000Y-69931250D01*
G75*
G02*
X73218750Y-69687500I243750J0D01*
G01*
G37*
%TD*%
%TO.C,R2*%
G36*
G01*
X75531250Y-72237500D02*
X74968750Y-72237500D01*
G75*
G02*
X74725000Y-71993750I0J243750D01*
G01*
X74725000Y-71506250D01*
G75*
G02*
X74968750Y-71262500I243750J0D01*
G01*
X75531250Y-71262500D01*
G75*
G02*
X75775000Y-71506250I0J-243750D01*
G01*
X75775000Y-71993750D01*
G75*
G02*
X75531250Y-72237500I-243750J0D01*
G01*
G37*
G36*
G01*
X75531250Y-70662500D02*
X74968750Y-70662500D01*
G75*
G02*
X74725000Y-70418750I0J243750D01*
G01*
X74725000Y-69931250D01*
G75*
G02*
X74968750Y-69687500I243750J0D01*
G01*
X75531250Y-69687500D01*
G75*
G02*
X75775000Y-69931250I0J-243750D01*
G01*
X75775000Y-70418750D01*
G75*
G02*
X75531250Y-70662500I-243750J0D01*
G01*
G37*
%TD*%
%TO.C,R3*%
G36*
G01*
X73781250Y-75562500D02*
X73218750Y-75562500D01*
G75*
G02*
X72975000Y-75318750I0J243750D01*
G01*
X72975000Y-74831250D01*
G75*
G02*
X73218750Y-74587500I243750J0D01*
G01*
X73781250Y-74587500D01*
G75*
G02*
X74025000Y-74831250I0J-243750D01*
G01*
X74025000Y-75318750D01*
G75*
G02*
X73781250Y-75562500I-243750J0D01*
G01*
G37*
G36*
G01*
X73781250Y-73987500D02*
X73218750Y-73987500D01*
G75*
G02*
X72975000Y-73743750I0J243750D01*
G01*
X72975000Y-73256250D01*
G75*
G02*
X73218750Y-73012500I243750J0D01*
G01*
X73781250Y-73012500D01*
G75*
G02*
X74025000Y-73256250I0J-243750D01*
G01*
X74025000Y-73743750D01*
G75*
G02*
X73781250Y-73987500I-243750J0D01*
G01*
G37*
%TD*%
%TO.C,R4*%
G36*
G01*
X74968750Y-73012500D02*
X75531250Y-73012500D01*
G75*
G02*
X75775000Y-73256250I0J-243750D01*
G01*
X75775000Y-73743750D01*
G75*
G02*
X75531250Y-73987500I-243750J0D01*
G01*
X74968750Y-73987500D01*
G75*
G02*
X74725000Y-73743750I0J243750D01*
G01*
X74725000Y-73256250D01*
G75*
G02*
X74968750Y-73012500I243750J0D01*
G01*
G37*
G36*
G01*
X74968750Y-74587500D02*
X75531250Y-74587500D01*
G75*
G02*
X75775000Y-74831250I0J-243750D01*
G01*
X75775000Y-75318750D01*
G75*
G02*
X75531250Y-75562500I-243750J0D01*
G01*
X74968750Y-75562500D01*
G75*
G02*
X74725000Y-75318750I0J243750D01*
G01*
X74725000Y-74831250D01*
G75*
G02*
X74968750Y-74587500I243750J0D01*
G01*
G37*
%TD*%
%TO.C,R5*%
G36*
G01*
X77281250Y-73975000D02*
X76718750Y-73975000D01*
G75*
G02*
X76475000Y-73731250I0J243750D01*
G01*
X76475000Y-73243750D01*
G75*
G02*
X76718750Y-73000000I243750J0D01*
G01*
X77281250Y-73000000D01*
G75*
G02*
X77525000Y-73243750I0J-243750D01*
G01*
X77525000Y-73731250D01*
G75*
G02*
X77281250Y-73975000I-243750J0D01*
G01*
G37*
G36*
G01*
X77281250Y-75550000D02*
X76718750Y-75550000D01*
G75*
G02*
X76475000Y-75306250I0J243750D01*
G01*
X76475000Y-74818750D01*
G75*
G02*
X76718750Y-74575000I243750J0D01*
G01*
X77281250Y-74575000D01*
G75*
G02*
X77525000Y-74818750I0J-243750D01*
G01*
X77525000Y-75306250D01*
G75*
G02*
X77281250Y-75550000I-243750J0D01*
G01*
G37*
%TD*%
%TO.C,R6*%
G36*
G01*
X72112500Y-41731250D02*
X72112500Y-41168750D01*
G75*
G02*
X72356250Y-40925000I243750J0D01*
G01*
X72843750Y-40925000D01*
G75*
G02*
X73087500Y-41168750I0J-243750D01*
G01*
X73087500Y-41731250D01*
G75*
G02*
X72843750Y-41975000I-243750J0D01*
G01*
X72356250Y-41975000D01*
G75*
G02*
X72112500Y-41731250I0J243750D01*
G01*
G37*
G36*
G01*
X70537500Y-41731250D02*
X70537500Y-41168750D01*
G75*
G02*
X70781250Y-40925000I243750J0D01*
G01*
X71268750Y-40925000D01*
G75*
G02*
X71512500Y-41168750I0J-243750D01*
G01*
X71512500Y-41731250D01*
G75*
G02*
X71268750Y-41975000I-243750J0D01*
G01*
X70781250Y-41975000D01*
G75*
G02*
X70537500Y-41731250I0J243750D01*
G01*
G37*
%TD*%
%TO.C,R7*%
G36*
G01*
X37375000Y-52947500D02*
X37375000Y-52552500D01*
G75*
G02*
X37547500Y-52380000I172500J0D01*
G01*
X37892500Y-52380000D01*
G75*
G02*
X38065000Y-52552500I0J-172500D01*
G01*
X38065000Y-52947500D01*
G75*
G02*
X37892500Y-53120000I-172500J0D01*
G01*
X37547500Y-53120000D01*
G75*
G02*
X37375000Y-52947500I0J172500D01*
G01*
G37*
G36*
G01*
X36405000Y-52947500D02*
X36405000Y-52552500D01*
G75*
G02*
X36577500Y-52380000I172500J0D01*
G01*
X36922500Y-52380000D01*
G75*
G02*
X37095000Y-52552500I0J-172500D01*
G01*
X37095000Y-52947500D01*
G75*
G02*
X36922500Y-53120000I-172500J0D01*
G01*
X36577500Y-53120000D01*
G75*
G02*
X36405000Y-52947500I0J172500D01*
G01*
G37*
%TD*%
%TO.C,R8*%
G36*
G01*
X42595000Y-61552500D02*
X42595000Y-61947500D01*
G75*
G02*
X42422500Y-62120000I-172500J0D01*
G01*
X42077500Y-62120000D01*
G75*
G02*
X41905000Y-61947500I0J172500D01*
G01*
X41905000Y-61552500D01*
G75*
G02*
X42077500Y-61380000I172500J0D01*
G01*
X42422500Y-61380000D01*
G75*
G02*
X42595000Y-61552500I0J-172500D01*
G01*
G37*
G36*
G01*
X41625000Y-61552500D02*
X41625000Y-61947500D01*
G75*
G02*
X41452500Y-62120000I-172500J0D01*
G01*
X41107500Y-62120000D01*
G75*
G02*
X40935000Y-61947500I0J172500D01*
G01*
X40935000Y-61552500D01*
G75*
G02*
X41107500Y-61380000I172500J0D01*
G01*
X41452500Y-61380000D01*
G75*
G02*
X41625000Y-61552500I0J-172500D01*
G01*
G37*
%TD*%
%TO.C,R9*%
G36*
G01*
X41218750Y-67975000D02*
X41781250Y-67975000D01*
G75*
G02*
X42025000Y-68218750I0J-243750D01*
G01*
X42025000Y-68706250D01*
G75*
G02*
X41781250Y-68950000I-243750J0D01*
G01*
X41218750Y-68950000D01*
G75*
G02*
X40975000Y-68706250I0J243750D01*
G01*
X40975000Y-68218750D01*
G75*
G02*
X41218750Y-67975000I243750J0D01*
G01*
G37*
G36*
G01*
X41218750Y-69550000D02*
X41781250Y-69550000D01*
G75*
G02*
X42025000Y-69793750I0J-243750D01*
G01*
X42025000Y-70281250D01*
G75*
G02*
X41781250Y-70525000I-243750J0D01*
G01*
X41218750Y-70525000D01*
G75*
G02*
X40975000Y-70281250I0J243750D01*
G01*
X40975000Y-69793750D01*
G75*
G02*
X41218750Y-69550000I243750J0D01*
G01*
G37*
%TD*%
%TO.C,R10*%
G36*
G01*
X50345000Y-53052500D02*
X50345000Y-53447500D01*
G75*
G02*
X50172500Y-53620000I-172500J0D01*
G01*
X49827500Y-53620000D01*
G75*
G02*
X49655000Y-53447500I0J172500D01*
G01*
X49655000Y-53052500D01*
G75*
G02*
X49827500Y-52880000I172500J0D01*
G01*
X50172500Y-52880000D01*
G75*
G02*
X50345000Y-53052500I0J-172500D01*
G01*
G37*
G36*
G01*
X51315000Y-53052500D02*
X51315000Y-53447500D01*
G75*
G02*
X51142500Y-53620000I-172500J0D01*
G01*
X50797500Y-53620000D01*
G75*
G02*
X50625000Y-53447500I0J172500D01*
G01*
X50625000Y-53052500D01*
G75*
G02*
X50797500Y-52880000I172500J0D01*
G01*
X51142500Y-52880000D01*
G75*
G02*
X51315000Y-53052500I0J-172500D01*
G01*
G37*
%TD*%
%TO.C,R11*%
G36*
G01*
X47435000Y-53447500D02*
X47435000Y-53052500D01*
G75*
G02*
X47607500Y-52880000I172500J0D01*
G01*
X47952500Y-52880000D01*
G75*
G02*
X48125000Y-53052500I0J-172500D01*
G01*
X48125000Y-53447500D01*
G75*
G02*
X47952500Y-53620000I-172500J0D01*
G01*
X47607500Y-53620000D01*
G75*
G02*
X47435000Y-53447500I0J172500D01*
G01*
G37*
G36*
G01*
X48405000Y-53447500D02*
X48405000Y-53052500D01*
G75*
G02*
X48577500Y-52880000I172500J0D01*
G01*
X48922500Y-52880000D01*
G75*
G02*
X49095000Y-53052500I0J-172500D01*
G01*
X49095000Y-53447500D01*
G75*
G02*
X48922500Y-53620000I-172500J0D01*
G01*
X48577500Y-53620000D01*
G75*
G02*
X48405000Y-53447500I0J172500D01*
G01*
G37*
%TD*%
D26*
%TO.C,U1*%
X69550000Y-73350000D03*
X70500000Y-73350000D03*
X71450000Y-73350000D03*
X71450000Y-71150000D03*
X69550000Y-71150000D03*
X70500000Y-71150000D03*
%TD*%
%TO.C,U2*%
G36*
G01*
X43500000Y-59100000D02*
X43500000Y-58900000D01*
G75*
G02*
X43600000Y-58800000I100000J0D01*
G01*
X45050000Y-58800000D01*
G75*
G02*
X45150000Y-58900000I0J-100000D01*
G01*
X45150000Y-59100000D01*
G75*
G02*
X45050000Y-59200000I-100000J0D01*
G01*
X43600000Y-59200000D01*
G75*
G02*
X43500000Y-59100000I0J100000D01*
G01*
G37*
G36*
G01*
X43500000Y-59600000D02*
X43500000Y-59400000D01*
G75*
G02*
X43600000Y-59300000I100000J0D01*
G01*
X45050000Y-59300000D01*
G75*
G02*
X45150000Y-59400000I0J-100000D01*
G01*
X45150000Y-59600000D01*
G75*
G02*
X45050000Y-59700000I-100000J0D01*
G01*
X43600000Y-59700000D01*
G75*
G02*
X43500000Y-59600000I0J100000D01*
G01*
G37*
G36*
G01*
X43500000Y-60100000D02*
X43500000Y-59900000D01*
G75*
G02*
X43600000Y-59800000I100000J0D01*
G01*
X45050000Y-59800000D01*
G75*
G02*
X45150000Y-59900000I0J-100000D01*
G01*
X45150000Y-60100000D01*
G75*
G02*
X45050000Y-60200000I-100000J0D01*
G01*
X43600000Y-60200000D01*
G75*
G02*
X43500000Y-60100000I0J100000D01*
G01*
G37*
G36*
G01*
X43500000Y-60600000D02*
X43500000Y-60400000D01*
G75*
G02*
X43600000Y-60300000I100000J0D01*
G01*
X45050000Y-60300000D01*
G75*
G02*
X45150000Y-60400000I0J-100000D01*
G01*
X45150000Y-60600000D01*
G75*
G02*
X45050000Y-60700000I-100000J0D01*
G01*
X43600000Y-60700000D01*
G75*
G02*
X43500000Y-60600000I0J100000D01*
G01*
G37*
G36*
G01*
X43500000Y-61100000D02*
X43500000Y-60900000D01*
G75*
G02*
X43600000Y-60800000I100000J0D01*
G01*
X45050000Y-60800000D01*
G75*
G02*
X45150000Y-60900000I0J-100000D01*
G01*
X45150000Y-61100000D01*
G75*
G02*
X45050000Y-61200000I-100000J0D01*
G01*
X43600000Y-61200000D01*
G75*
G02*
X43500000Y-61100000I0J100000D01*
G01*
G37*
G36*
G01*
X43500000Y-61600000D02*
X43500000Y-61400000D01*
G75*
G02*
X43600000Y-61300000I100000J0D01*
G01*
X45050000Y-61300000D01*
G75*
G02*
X45150000Y-61400000I0J-100000D01*
G01*
X45150000Y-61600000D01*
G75*
G02*
X45050000Y-61700000I-100000J0D01*
G01*
X43600000Y-61700000D01*
G75*
G02*
X43500000Y-61600000I0J100000D01*
G01*
G37*
G36*
G01*
X43500000Y-62100000D02*
X43500000Y-61900000D01*
G75*
G02*
X43600000Y-61800000I100000J0D01*
G01*
X45050000Y-61800000D01*
G75*
G02*
X45150000Y-61900000I0J-100000D01*
G01*
X45150000Y-62100000D01*
G75*
G02*
X45050000Y-62200000I-100000J0D01*
G01*
X43600000Y-62200000D01*
G75*
G02*
X43500000Y-62100000I0J100000D01*
G01*
G37*
G36*
G01*
X43500000Y-62600000D02*
X43500000Y-62400000D01*
G75*
G02*
X43600000Y-62300000I100000J0D01*
G01*
X45050000Y-62300000D01*
G75*
G02*
X45150000Y-62400000I0J-100000D01*
G01*
X45150000Y-62600000D01*
G75*
G02*
X45050000Y-62700000I-100000J0D01*
G01*
X43600000Y-62700000D01*
G75*
G02*
X43500000Y-62600000I0J100000D01*
G01*
G37*
G36*
G01*
X43500000Y-63100000D02*
X43500000Y-62900000D01*
G75*
G02*
X43600000Y-62800000I100000J0D01*
G01*
X45050000Y-62800000D01*
G75*
G02*
X45150000Y-62900000I0J-100000D01*
G01*
X45150000Y-63100000D01*
G75*
G02*
X45050000Y-63200000I-100000J0D01*
G01*
X43600000Y-63200000D01*
G75*
G02*
X43500000Y-63100000I0J100000D01*
G01*
G37*
G36*
G01*
X43500000Y-63600000D02*
X43500000Y-63400000D01*
G75*
G02*
X43600000Y-63300000I100000J0D01*
G01*
X45050000Y-63300000D01*
G75*
G02*
X45150000Y-63400000I0J-100000D01*
G01*
X45150000Y-63600000D01*
G75*
G02*
X45050000Y-63700000I-100000J0D01*
G01*
X43600000Y-63700000D01*
G75*
G02*
X43500000Y-63600000I0J100000D01*
G01*
G37*
G36*
G01*
X43500000Y-64100000D02*
X43500000Y-63900000D01*
G75*
G02*
X43600000Y-63800000I100000J0D01*
G01*
X45050000Y-63800000D01*
G75*
G02*
X45150000Y-63900000I0J-100000D01*
G01*
X45150000Y-64100000D01*
G75*
G02*
X45050000Y-64200000I-100000J0D01*
G01*
X43600000Y-64200000D01*
G75*
G02*
X43500000Y-64100000I0J100000D01*
G01*
G37*
G36*
G01*
X43500000Y-64600000D02*
X43500000Y-64400000D01*
G75*
G02*
X43600000Y-64300000I100000J0D01*
G01*
X45050000Y-64300000D01*
G75*
G02*
X45150000Y-64400000I0J-100000D01*
G01*
X45150000Y-64600000D01*
G75*
G02*
X45050000Y-64700000I-100000J0D01*
G01*
X43600000Y-64700000D01*
G75*
G02*
X43500000Y-64600000I0J100000D01*
G01*
G37*
G36*
G01*
X43500000Y-65100000D02*
X43500000Y-64900000D01*
G75*
G02*
X43600000Y-64800000I100000J0D01*
G01*
X45050000Y-64800000D01*
G75*
G02*
X45150000Y-64900000I0J-100000D01*
G01*
X45150000Y-65100000D01*
G75*
G02*
X45050000Y-65200000I-100000J0D01*
G01*
X43600000Y-65200000D01*
G75*
G02*
X43500000Y-65100000I0J100000D01*
G01*
G37*
G36*
G01*
X43500000Y-65600000D02*
X43500000Y-65400000D01*
G75*
G02*
X43600000Y-65300000I100000J0D01*
G01*
X45050000Y-65300000D01*
G75*
G02*
X45150000Y-65400000I0J-100000D01*
G01*
X45150000Y-65600000D01*
G75*
G02*
X45050000Y-65700000I-100000J0D01*
G01*
X43600000Y-65700000D01*
G75*
G02*
X43500000Y-65600000I0J100000D01*
G01*
G37*
G36*
G01*
X43500000Y-66100000D02*
X43500000Y-65900000D01*
G75*
G02*
X43600000Y-65800000I100000J0D01*
G01*
X45050000Y-65800000D01*
G75*
G02*
X45150000Y-65900000I0J-100000D01*
G01*
X45150000Y-66100000D01*
G75*
G02*
X45050000Y-66200000I-100000J0D01*
G01*
X43600000Y-66200000D01*
G75*
G02*
X43500000Y-66100000I0J100000D01*
G01*
G37*
G36*
G01*
X43500000Y-66600000D02*
X43500000Y-66400000D01*
G75*
G02*
X43600000Y-66300000I100000J0D01*
G01*
X45050000Y-66300000D01*
G75*
G02*
X45150000Y-66400000I0J-100000D01*
G01*
X45150000Y-66600000D01*
G75*
G02*
X45050000Y-66700000I-100000J0D01*
G01*
X43600000Y-66700000D01*
G75*
G02*
X43500000Y-66600000I0J100000D01*
G01*
G37*
G36*
G01*
X46050000Y-69150000D02*
X46050000Y-67700000D01*
G75*
G02*
X46150000Y-67600000I100000J0D01*
G01*
X46350000Y-67600000D01*
G75*
G02*
X46450000Y-67700000I0J-100000D01*
G01*
X46450000Y-69150000D01*
G75*
G02*
X46350000Y-69250000I-100000J0D01*
G01*
X46150000Y-69250000D01*
G75*
G02*
X46050000Y-69150000I0J100000D01*
G01*
G37*
G36*
G01*
X46550000Y-69150000D02*
X46550000Y-67700000D01*
G75*
G02*
X46650000Y-67600000I100000J0D01*
G01*
X46850000Y-67600000D01*
G75*
G02*
X46950000Y-67700000I0J-100000D01*
G01*
X46950000Y-69150000D01*
G75*
G02*
X46850000Y-69250000I-100000J0D01*
G01*
X46650000Y-69250000D01*
G75*
G02*
X46550000Y-69150000I0J100000D01*
G01*
G37*
G36*
G01*
X47050000Y-69150000D02*
X47050000Y-67700000D01*
G75*
G02*
X47150000Y-67600000I100000J0D01*
G01*
X47350000Y-67600000D01*
G75*
G02*
X47450000Y-67700000I0J-100000D01*
G01*
X47450000Y-69150000D01*
G75*
G02*
X47350000Y-69250000I-100000J0D01*
G01*
X47150000Y-69250000D01*
G75*
G02*
X47050000Y-69150000I0J100000D01*
G01*
G37*
G36*
G01*
X47550000Y-69150000D02*
X47550000Y-67700000D01*
G75*
G02*
X47650000Y-67600000I100000J0D01*
G01*
X47850000Y-67600000D01*
G75*
G02*
X47950000Y-67700000I0J-100000D01*
G01*
X47950000Y-69150000D01*
G75*
G02*
X47850000Y-69250000I-100000J0D01*
G01*
X47650000Y-69250000D01*
G75*
G02*
X47550000Y-69150000I0J100000D01*
G01*
G37*
G36*
G01*
X48050000Y-69150000D02*
X48050000Y-67700000D01*
G75*
G02*
X48150000Y-67600000I100000J0D01*
G01*
X48350000Y-67600000D01*
G75*
G02*
X48450000Y-67700000I0J-100000D01*
G01*
X48450000Y-69150000D01*
G75*
G02*
X48350000Y-69250000I-100000J0D01*
G01*
X48150000Y-69250000D01*
G75*
G02*
X48050000Y-69150000I0J100000D01*
G01*
G37*
G36*
G01*
X48550000Y-69150000D02*
X48550000Y-67700000D01*
G75*
G02*
X48650000Y-67600000I100000J0D01*
G01*
X48850000Y-67600000D01*
G75*
G02*
X48950000Y-67700000I0J-100000D01*
G01*
X48950000Y-69150000D01*
G75*
G02*
X48850000Y-69250000I-100000J0D01*
G01*
X48650000Y-69250000D01*
G75*
G02*
X48550000Y-69150000I0J100000D01*
G01*
G37*
G36*
G01*
X49050000Y-69150000D02*
X49050000Y-67700000D01*
G75*
G02*
X49150000Y-67600000I100000J0D01*
G01*
X49350000Y-67600000D01*
G75*
G02*
X49450000Y-67700000I0J-100000D01*
G01*
X49450000Y-69150000D01*
G75*
G02*
X49350000Y-69250000I-100000J0D01*
G01*
X49150000Y-69250000D01*
G75*
G02*
X49050000Y-69150000I0J100000D01*
G01*
G37*
G36*
G01*
X49550000Y-69150000D02*
X49550000Y-67700000D01*
G75*
G02*
X49650000Y-67600000I100000J0D01*
G01*
X49850000Y-67600000D01*
G75*
G02*
X49950000Y-67700000I0J-100000D01*
G01*
X49950000Y-69150000D01*
G75*
G02*
X49850000Y-69250000I-100000J0D01*
G01*
X49650000Y-69250000D01*
G75*
G02*
X49550000Y-69150000I0J100000D01*
G01*
G37*
G36*
G01*
X50050000Y-69150000D02*
X50050000Y-67700000D01*
G75*
G02*
X50150000Y-67600000I100000J0D01*
G01*
X50350000Y-67600000D01*
G75*
G02*
X50450000Y-67700000I0J-100000D01*
G01*
X50450000Y-69150000D01*
G75*
G02*
X50350000Y-69250000I-100000J0D01*
G01*
X50150000Y-69250000D01*
G75*
G02*
X50050000Y-69150000I0J100000D01*
G01*
G37*
G36*
G01*
X50550000Y-69150000D02*
X50550000Y-67700000D01*
G75*
G02*
X50650000Y-67600000I100000J0D01*
G01*
X50850000Y-67600000D01*
G75*
G02*
X50950000Y-67700000I0J-100000D01*
G01*
X50950000Y-69150000D01*
G75*
G02*
X50850000Y-69250000I-100000J0D01*
G01*
X50650000Y-69250000D01*
G75*
G02*
X50550000Y-69150000I0J100000D01*
G01*
G37*
G36*
G01*
X51050000Y-69150000D02*
X51050000Y-67700000D01*
G75*
G02*
X51150000Y-67600000I100000J0D01*
G01*
X51350000Y-67600000D01*
G75*
G02*
X51450000Y-67700000I0J-100000D01*
G01*
X51450000Y-69150000D01*
G75*
G02*
X51350000Y-69250000I-100000J0D01*
G01*
X51150000Y-69250000D01*
G75*
G02*
X51050000Y-69150000I0J100000D01*
G01*
G37*
G36*
G01*
X51550000Y-69150000D02*
X51550000Y-67700000D01*
G75*
G02*
X51650000Y-67600000I100000J0D01*
G01*
X51850000Y-67600000D01*
G75*
G02*
X51950000Y-67700000I0J-100000D01*
G01*
X51950000Y-69150000D01*
G75*
G02*
X51850000Y-69250000I-100000J0D01*
G01*
X51650000Y-69250000D01*
G75*
G02*
X51550000Y-69150000I0J100000D01*
G01*
G37*
G36*
G01*
X52050000Y-69150000D02*
X52050000Y-67700000D01*
G75*
G02*
X52150000Y-67600000I100000J0D01*
G01*
X52350000Y-67600000D01*
G75*
G02*
X52450000Y-67700000I0J-100000D01*
G01*
X52450000Y-69150000D01*
G75*
G02*
X52350000Y-69250000I-100000J0D01*
G01*
X52150000Y-69250000D01*
G75*
G02*
X52050000Y-69150000I0J100000D01*
G01*
G37*
G36*
G01*
X52550000Y-69150000D02*
X52550000Y-67700000D01*
G75*
G02*
X52650000Y-67600000I100000J0D01*
G01*
X52850000Y-67600000D01*
G75*
G02*
X52950000Y-67700000I0J-100000D01*
G01*
X52950000Y-69150000D01*
G75*
G02*
X52850000Y-69250000I-100000J0D01*
G01*
X52650000Y-69250000D01*
G75*
G02*
X52550000Y-69150000I0J100000D01*
G01*
G37*
G36*
G01*
X53050000Y-69150000D02*
X53050000Y-67700000D01*
G75*
G02*
X53150000Y-67600000I100000J0D01*
G01*
X53350000Y-67600000D01*
G75*
G02*
X53450000Y-67700000I0J-100000D01*
G01*
X53450000Y-69150000D01*
G75*
G02*
X53350000Y-69250000I-100000J0D01*
G01*
X53150000Y-69250000D01*
G75*
G02*
X53050000Y-69150000I0J100000D01*
G01*
G37*
G36*
G01*
X53550000Y-69150000D02*
X53550000Y-67700000D01*
G75*
G02*
X53650000Y-67600000I100000J0D01*
G01*
X53850000Y-67600000D01*
G75*
G02*
X53950000Y-67700000I0J-100000D01*
G01*
X53950000Y-69150000D01*
G75*
G02*
X53850000Y-69250000I-100000J0D01*
G01*
X53650000Y-69250000D01*
G75*
G02*
X53550000Y-69150000I0J100000D01*
G01*
G37*
G36*
G01*
X54850000Y-66600000D02*
X54850000Y-66400000D01*
G75*
G02*
X54950000Y-66300000I100000J0D01*
G01*
X56400000Y-66300000D01*
G75*
G02*
X56500000Y-66400000I0J-100000D01*
G01*
X56500000Y-66600000D01*
G75*
G02*
X56400000Y-66700000I-100000J0D01*
G01*
X54950000Y-66700000D01*
G75*
G02*
X54850000Y-66600000I0J100000D01*
G01*
G37*
G36*
G01*
X54850000Y-66100000D02*
X54850000Y-65900000D01*
G75*
G02*
X54950000Y-65800000I100000J0D01*
G01*
X56400000Y-65800000D01*
G75*
G02*
X56500000Y-65900000I0J-100000D01*
G01*
X56500000Y-66100000D01*
G75*
G02*
X56400000Y-66200000I-100000J0D01*
G01*
X54950000Y-66200000D01*
G75*
G02*
X54850000Y-66100000I0J100000D01*
G01*
G37*
G36*
G01*
X54850000Y-65600000D02*
X54850000Y-65400000D01*
G75*
G02*
X54950000Y-65300000I100000J0D01*
G01*
X56400000Y-65300000D01*
G75*
G02*
X56500000Y-65400000I0J-100000D01*
G01*
X56500000Y-65600000D01*
G75*
G02*
X56400000Y-65700000I-100000J0D01*
G01*
X54950000Y-65700000D01*
G75*
G02*
X54850000Y-65600000I0J100000D01*
G01*
G37*
G36*
G01*
X54850000Y-65100000D02*
X54850000Y-64900000D01*
G75*
G02*
X54950000Y-64800000I100000J0D01*
G01*
X56400000Y-64800000D01*
G75*
G02*
X56500000Y-64900000I0J-100000D01*
G01*
X56500000Y-65100000D01*
G75*
G02*
X56400000Y-65200000I-100000J0D01*
G01*
X54950000Y-65200000D01*
G75*
G02*
X54850000Y-65100000I0J100000D01*
G01*
G37*
G36*
G01*
X54850000Y-64600000D02*
X54850000Y-64400000D01*
G75*
G02*
X54950000Y-64300000I100000J0D01*
G01*
X56400000Y-64300000D01*
G75*
G02*
X56500000Y-64400000I0J-100000D01*
G01*
X56500000Y-64600000D01*
G75*
G02*
X56400000Y-64700000I-100000J0D01*
G01*
X54950000Y-64700000D01*
G75*
G02*
X54850000Y-64600000I0J100000D01*
G01*
G37*
G36*
G01*
X54850000Y-64100000D02*
X54850000Y-63900000D01*
G75*
G02*
X54950000Y-63800000I100000J0D01*
G01*
X56400000Y-63800000D01*
G75*
G02*
X56500000Y-63900000I0J-100000D01*
G01*
X56500000Y-64100000D01*
G75*
G02*
X56400000Y-64200000I-100000J0D01*
G01*
X54950000Y-64200000D01*
G75*
G02*
X54850000Y-64100000I0J100000D01*
G01*
G37*
G36*
G01*
X54850000Y-63600000D02*
X54850000Y-63400000D01*
G75*
G02*
X54950000Y-63300000I100000J0D01*
G01*
X56400000Y-63300000D01*
G75*
G02*
X56500000Y-63400000I0J-100000D01*
G01*
X56500000Y-63600000D01*
G75*
G02*
X56400000Y-63700000I-100000J0D01*
G01*
X54950000Y-63700000D01*
G75*
G02*
X54850000Y-63600000I0J100000D01*
G01*
G37*
G36*
G01*
X54850000Y-63100000D02*
X54850000Y-62900000D01*
G75*
G02*
X54950000Y-62800000I100000J0D01*
G01*
X56400000Y-62800000D01*
G75*
G02*
X56500000Y-62900000I0J-100000D01*
G01*
X56500000Y-63100000D01*
G75*
G02*
X56400000Y-63200000I-100000J0D01*
G01*
X54950000Y-63200000D01*
G75*
G02*
X54850000Y-63100000I0J100000D01*
G01*
G37*
G36*
G01*
X54850000Y-62600000D02*
X54850000Y-62400000D01*
G75*
G02*
X54950000Y-62300000I100000J0D01*
G01*
X56400000Y-62300000D01*
G75*
G02*
X56500000Y-62400000I0J-100000D01*
G01*
X56500000Y-62600000D01*
G75*
G02*
X56400000Y-62700000I-100000J0D01*
G01*
X54950000Y-62700000D01*
G75*
G02*
X54850000Y-62600000I0J100000D01*
G01*
G37*
G36*
G01*
X54850000Y-62100000D02*
X54850000Y-61900000D01*
G75*
G02*
X54950000Y-61800000I100000J0D01*
G01*
X56400000Y-61800000D01*
G75*
G02*
X56500000Y-61900000I0J-100000D01*
G01*
X56500000Y-62100000D01*
G75*
G02*
X56400000Y-62200000I-100000J0D01*
G01*
X54950000Y-62200000D01*
G75*
G02*
X54850000Y-62100000I0J100000D01*
G01*
G37*
G36*
G01*
X54850000Y-61600000D02*
X54850000Y-61400000D01*
G75*
G02*
X54950000Y-61300000I100000J0D01*
G01*
X56400000Y-61300000D01*
G75*
G02*
X56500000Y-61400000I0J-100000D01*
G01*
X56500000Y-61600000D01*
G75*
G02*
X56400000Y-61700000I-100000J0D01*
G01*
X54950000Y-61700000D01*
G75*
G02*
X54850000Y-61600000I0J100000D01*
G01*
G37*
G36*
G01*
X54850000Y-61100000D02*
X54850000Y-60900000D01*
G75*
G02*
X54950000Y-60800000I100000J0D01*
G01*
X56400000Y-60800000D01*
G75*
G02*
X56500000Y-60900000I0J-100000D01*
G01*
X56500000Y-61100000D01*
G75*
G02*
X56400000Y-61200000I-100000J0D01*
G01*
X54950000Y-61200000D01*
G75*
G02*
X54850000Y-61100000I0J100000D01*
G01*
G37*
G36*
G01*
X54850000Y-60600000D02*
X54850000Y-60400000D01*
G75*
G02*
X54950000Y-60300000I100000J0D01*
G01*
X56400000Y-60300000D01*
G75*
G02*
X56500000Y-60400000I0J-100000D01*
G01*
X56500000Y-60600000D01*
G75*
G02*
X56400000Y-60700000I-100000J0D01*
G01*
X54950000Y-60700000D01*
G75*
G02*
X54850000Y-60600000I0J100000D01*
G01*
G37*
G36*
G01*
X54850000Y-60100000D02*
X54850000Y-59900000D01*
G75*
G02*
X54950000Y-59800000I100000J0D01*
G01*
X56400000Y-59800000D01*
G75*
G02*
X56500000Y-59900000I0J-100000D01*
G01*
X56500000Y-60100000D01*
G75*
G02*
X56400000Y-60200000I-100000J0D01*
G01*
X54950000Y-60200000D01*
G75*
G02*
X54850000Y-60100000I0J100000D01*
G01*
G37*
G36*
G01*
X54850000Y-59600000D02*
X54850000Y-59400000D01*
G75*
G02*
X54950000Y-59300000I100000J0D01*
G01*
X56400000Y-59300000D01*
G75*
G02*
X56500000Y-59400000I0J-100000D01*
G01*
X56500000Y-59600000D01*
G75*
G02*
X56400000Y-59700000I-100000J0D01*
G01*
X54950000Y-59700000D01*
G75*
G02*
X54850000Y-59600000I0J100000D01*
G01*
G37*
G36*
G01*
X54850000Y-59100000D02*
X54850000Y-58900000D01*
G75*
G02*
X54950000Y-58800000I100000J0D01*
G01*
X56400000Y-58800000D01*
G75*
G02*
X56500000Y-58900000I0J-100000D01*
G01*
X56500000Y-59100000D01*
G75*
G02*
X56400000Y-59200000I-100000J0D01*
G01*
X54950000Y-59200000D01*
G75*
G02*
X54850000Y-59100000I0J100000D01*
G01*
G37*
G36*
G01*
X53550000Y-57800000D02*
X53550000Y-56350000D01*
G75*
G02*
X53650000Y-56250000I100000J0D01*
G01*
X53850000Y-56250000D01*
G75*
G02*
X53950000Y-56350000I0J-100000D01*
G01*
X53950000Y-57800000D01*
G75*
G02*
X53850000Y-57900000I-100000J0D01*
G01*
X53650000Y-57900000D01*
G75*
G02*
X53550000Y-57800000I0J100000D01*
G01*
G37*
G36*
G01*
X53050000Y-57800000D02*
X53050000Y-56350000D01*
G75*
G02*
X53150000Y-56250000I100000J0D01*
G01*
X53350000Y-56250000D01*
G75*
G02*
X53450000Y-56350000I0J-100000D01*
G01*
X53450000Y-57800000D01*
G75*
G02*
X53350000Y-57900000I-100000J0D01*
G01*
X53150000Y-57900000D01*
G75*
G02*
X53050000Y-57800000I0J100000D01*
G01*
G37*
G36*
G01*
X52550000Y-57800000D02*
X52550000Y-56350000D01*
G75*
G02*
X52650000Y-56250000I100000J0D01*
G01*
X52850000Y-56250000D01*
G75*
G02*
X52950000Y-56350000I0J-100000D01*
G01*
X52950000Y-57800000D01*
G75*
G02*
X52850000Y-57900000I-100000J0D01*
G01*
X52650000Y-57900000D01*
G75*
G02*
X52550000Y-57800000I0J100000D01*
G01*
G37*
G36*
G01*
X52050000Y-57800000D02*
X52050000Y-56350000D01*
G75*
G02*
X52150000Y-56250000I100000J0D01*
G01*
X52350000Y-56250000D01*
G75*
G02*
X52450000Y-56350000I0J-100000D01*
G01*
X52450000Y-57800000D01*
G75*
G02*
X52350000Y-57900000I-100000J0D01*
G01*
X52150000Y-57900000D01*
G75*
G02*
X52050000Y-57800000I0J100000D01*
G01*
G37*
G36*
G01*
X51550000Y-57800000D02*
X51550000Y-56350000D01*
G75*
G02*
X51650000Y-56250000I100000J0D01*
G01*
X51850000Y-56250000D01*
G75*
G02*
X51950000Y-56350000I0J-100000D01*
G01*
X51950000Y-57800000D01*
G75*
G02*
X51850000Y-57900000I-100000J0D01*
G01*
X51650000Y-57900000D01*
G75*
G02*
X51550000Y-57800000I0J100000D01*
G01*
G37*
G36*
G01*
X51050000Y-57800000D02*
X51050000Y-56350000D01*
G75*
G02*
X51150000Y-56250000I100000J0D01*
G01*
X51350000Y-56250000D01*
G75*
G02*
X51450000Y-56350000I0J-100000D01*
G01*
X51450000Y-57800000D01*
G75*
G02*
X51350000Y-57900000I-100000J0D01*
G01*
X51150000Y-57900000D01*
G75*
G02*
X51050000Y-57800000I0J100000D01*
G01*
G37*
G36*
G01*
X50550000Y-57800000D02*
X50550000Y-56350000D01*
G75*
G02*
X50650000Y-56250000I100000J0D01*
G01*
X50850000Y-56250000D01*
G75*
G02*
X50950000Y-56350000I0J-100000D01*
G01*
X50950000Y-57800000D01*
G75*
G02*
X50850000Y-57900000I-100000J0D01*
G01*
X50650000Y-57900000D01*
G75*
G02*
X50550000Y-57800000I0J100000D01*
G01*
G37*
G36*
G01*
X50050000Y-57800000D02*
X50050000Y-56350000D01*
G75*
G02*
X50150000Y-56250000I100000J0D01*
G01*
X50350000Y-56250000D01*
G75*
G02*
X50450000Y-56350000I0J-100000D01*
G01*
X50450000Y-57800000D01*
G75*
G02*
X50350000Y-57900000I-100000J0D01*
G01*
X50150000Y-57900000D01*
G75*
G02*
X50050000Y-57800000I0J100000D01*
G01*
G37*
G36*
G01*
X49550000Y-57800000D02*
X49550000Y-56350000D01*
G75*
G02*
X49650000Y-56250000I100000J0D01*
G01*
X49850000Y-56250000D01*
G75*
G02*
X49950000Y-56350000I0J-100000D01*
G01*
X49950000Y-57800000D01*
G75*
G02*
X49850000Y-57900000I-100000J0D01*
G01*
X49650000Y-57900000D01*
G75*
G02*
X49550000Y-57800000I0J100000D01*
G01*
G37*
G36*
G01*
X49050000Y-57800000D02*
X49050000Y-56350000D01*
G75*
G02*
X49150000Y-56250000I100000J0D01*
G01*
X49350000Y-56250000D01*
G75*
G02*
X49450000Y-56350000I0J-100000D01*
G01*
X49450000Y-57800000D01*
G75*
G02*
X49350000Y-57900000I-100000J0D01*
G01*
X49150000Y-57900000D01*
G75*
G02*
X49050000Y-57800000I0J100000D01*
G01*
G37*
G36*
G01*
X48550000Y-57800000D02*
X48550000Y-56350000D01*
G75*
G02*
X48650000Y-56250000I100000J0D01*
G01*
X48850000Y-56250000D01*
G75*
G02*
X48950000Y-56350000I0J-100000D01*
G01*
X48950000Y-57800000D01*
G75*
G02*
X48850000Y-57900000I-100000J0D01*
G01*
X48650000Y-57900000D01*
G75*
G02*
X48550000Y-57800000I0J100000D01*
G01*
G37*
G36*
G01*
X48050000Y-57800000D02*
X48050000Y-56350000D01*
G75*
G02*
X48150000Y-56250000I100000J0D01*
G01*
X48350000Y-56250000D01*
G75*
G02*
X48450000Y-56350000I0J-100000D01*
G01*
X48450000Y-57800000D01*
G75*
G02*
X48350000Y-57900000I-100000J0D01*
G01*
X48150000Y-57900000D01*
G75*
G02*
X48050000Y-57800000I0J100000D01*
G01*
G37*
G36*
G01*
X47550000Y-57800000D02*
X47550000Y-56350000D01*
G75*
G02*
X47650000Y-56250000I100000J0D01*
G01*
X47850000Y-56250000D01*
G75*
G02*
X47950000Y-56350000I0J-100000D01*
G01*
X47950000Y-57800000D01*
G75*
G02*
X47850000Y-57900000I-100000J0D01*
G01*
X47650000Y-57900000D01*
G75*
G02*
X47550000Y-57800000I0J100000D01*
G01*
G37*
G36*
G01*
X47050000Y-57800000D02*
X47050000Y-56350000D01*
G75*
G02*
X47150000Y-56250000I100000J0D01*
G01*
X47350000Y-56250000D01*
G75*
G02*
X47450000Y-56350000I0J-100000D01*
G01*
X47450000Y-57800000D01*
G75*
G02*
X47350000Y-57900000I-100000J0D01*
G01*
X47150000Y-57900000D01*
G75*
G02*
X47050000Y-57800000I0J100000D01*
G01*
G37*
G36*
G01*
X46550000Y-57800000D02*
X46550000Y-56350000D01*
G75*
G02*
X46650000Y-56250000I100000J0D01*
G01*
X46850000Y-56250000D01*
G75*
G02*
X46950000Y-56350000I0J-100000D01*
G01*
X46950000Y-57800000D01*
G75*
G02*
X46850000Y-57900000I-100000J0D01*
G01*
X46650000Y-57900000D01*
G75*
G02*
X46550000Y-57800000I0J100000D01*
G01*
G37*
G36*
G01*
X46050000Y-57800000D02*
X46050000Y-56350000D01*
G75*
G02*
X46150000Y-56250000I100000J0D01*
G01*
X46350000Y-56250000D01*
G75*
G02*
X46450000Y-56350000I0J-100000D01*
G01*
X46450000Y-57800000D01*
G75*
G02*
X46350000Y-57900000I-100000J0D01*
G01*
X46150000Y-57900000D01*
G75*
G02*
X46050000Y-57800000I0J100000D01*
G01*
G37*
%TD*%
D27*
%TO.C,U3*%
X74875000Y-52575000D03*
X74875000Y-53525000D03*
X74875000Y-51625000D03*
X77075000Y-51625000D03*
X77075000Y-52575000D03*
X77075000Y-53525000D03*
%TD*%
D28*
%TO.C,Y1*%
X37650000Y-59900000D03*
X37650000Y-62100000D03*
X39350000Y-62100000D03*
X39350000Y-59900000D03*
%TD*%
M02*
