%TF.GenerationSoftware,KiCad,Pcbnew,(5.1.6)-1*%
%TF.CreationDate,2020-09-25T18:38:39+02:00*%
%TF.ProjectId,STM32F4_REV2,53544d33-3246-4345-9f52-4556322e6b69,rev?*%
%TF.SameCoordinates,Original*%
%TF.FileFunction,Copper,L1,Top*%
%TF.FilePolarity,Positive*%
%FSLAX46Y46*%
G04 Gerber Fmt 4.6, Leading zero omitted, Abs format (unit mm)*
G04 Created by KiCad (PCBNEW (5.1.6)-1) date 2020-09-25 18:38:39*
%MOMM*%
%LPD*%
G01*
G04 APERTURE LIST*
%TA.AperFunction,SMDPad,CuDef*%
%ADD10R,1.500000X0.700000*%
%TD*%
%TA.AperFunction,SMDPad,CuDef*%
%ADD11R,0.800000X1.000000*%
%TD*%
%TA.AperFunction,SMDPad,CuDef*%
%ADD12R,0.740000X2.400000*%
%TD*%
%TA.AperFunction,SMDPad,CuDef*%
%ADD13R,0.900000X1.200000*%
%TD*%
%TA.AperFunction,ComponentPad*%
%ADD14C,8.600000*%
%TD*%
%TA.AperFunction,ComponentPad*%
%ADD15C,0.900000*%
%TD*%
%TA.AperFunction,ComponentPad*%
%ADD16R,2.400000X2.400000*%
%TD*%
%TA.AperFunction,ComponentPad*%
%ADD17C,2.400000*%
%TD*%
%TA.AperFunction,ComponentPad*%
%ADD18O,0.800000X1.300000*%
%TD*%
%TA.AperFunction,SMDPad,CuDef*%
%ADD19R,1.350000X0.400000*%
%TD*%
%TA.AperFunction,ComponentPad*%
%ADD20O,1.750000X1.500000*%
%TD*%
%TA.AperFunction,SMDPad,CuDef*%
%ADD21R,1.400000X1.600000*%
%TD*%
%TA.AperFunction,SMDPad,CuDef*%
%ADD22R,1.600000X1.900000*%
%TD*%
%TA.AperFunction,SMDPad,CuDef*%
%ADD23R,2.500000X1.900000*%
%TD*%
%TA.AperFunction,SMDPad,CuDef*%
%ADD24R,0.800000X0.900000*%
%TD*%
%TA.AperFunction,SMDPad,CuDef*%
%ADD25R,0.650000X1.060000*%
%TD*%
%TA.AperFunction,SMDPad,CuDef*%
%ADD26R,1.060000X0.650000*%
%TD*%
%TA.AperFunction,SMDPad,CuDef*%
%ADD27R,1.200000X1.400000*%
%TD*%
%TA.AperFunction,ViaPad*%
%ADD28C,0.800000*%
%TD*%
%TA.AperFunction,Conductor*%
%ADD29C,1.000000*%
%TD*%
%TA.AperFunction,Conductor*%
%ADD30C,0.750000*%
%TD*%
%TA.AperFunction,Conductor*%
%ADD31C,0.300000*%
%TD*%
%TA.AperFunction,Conductor*%
%ADD32C,0.500000*%
%TD*%
%TA.AperFunction,Conductor*%
%ADD33C,0.400000*%
%TD*%
%TA.AperFunction,Conductor*%
%ADD34C,0.261112*%
%TD*%
G04 APERTURE END LIST*
D10*
%TO.P,SW1,1*%
%TO.N,+3V3*%
X34680000Y-49750000D03*
%TO.P,SW1,2*%
%TO.N,Net-(R7-Pad1)*%
X34680000Y-52750000D03*
%TO.P,SW1,3*%
%TO.N,GND*%
X34680000Y-54250000D03*
D11*
%TO.P,SW1,*%
%TO.N,*%
X31820000Y-48350000D03*
X31820000Y-55650000D03*
X34030000Y-55650000D03*
X34030000Y-48350000D03*
%TD*%
D12*
%TO.P,J2,10*%
%TO.N,NRST*%
X59710000Y-42950000D03*
%TO.P,J2,9*%
%TO.N,GND*%
X59710000Y-39050000D03*
%TO.P,J2,8*%
%TO.N,Net-(J2-Pad8)*%
X60980000Y-42950000D03*
%TO.P,J2,7*%
%TO.N,Net-(J2-Pad7)*%
X60980000Y-39050000D03*
%TO.P,J2,6*%
%TO.N,SWO*%
X62250000Y-42950000D03*
%TO.P,J2,5*%
%TO.N,GND*%
X62250000Y-39050000D03*
%TO.P,J2,4*%
%TO.N,SWCLK*%
X63520000Y-42950000D03*
%TO.P,J2,3*%
%TO.N,GND*%
X63520000Y-39050000D03*
%TO.P,J2,2*%
%TO.N,SWDIO*%
X64790000Y-42950000D03*
%TO.P,J2,1*%
%TO.N,+3V3*%
X64790000Y-39050000D03*
%TD*%
%TO.P,C1,1*%
%TO.N,BUCK_IN*%
%TA.AperFunction,SMDPad,CuDef*%
G36*
G01*
X69875000Y-68625000D02*
X69875000Y-67375000D01*
G75*
G02*
X70125000Y-67125000I250000J0D01*
G01*
X70875000Y-67125000D01*
G75*
G02*
X71125000Y-67375000I0J-250000D01*
G01*
X71125000Y-68625000D01*
G75*
G02*
X70875000Y-68875000I-250000J0D01*
G01*
X70125000Y-68875000D01*
G75*
G02*
X69875000Y-68625000I0J250000D01*
G01*
G37*
%TD.AperFunction*%
%TO.P,C1,2*%
%TO.N,GND*%
%TA.AperFunction,SMDPad,CuDef*%
G36*
G01*
X72675000Y-68625000D02*
X72675000Y-67375000D01*
G75*
G02*
X72925000Y-67125000I250000J0D01*
G01*
X73675000Y-67125000D01*
G75*
G02*
X73925000Y-67375000I0J-250000D01*
G01*
X73925000Y-68625000D01*
G75*
G02*
X73675000Y-68875000I-250000J0D01*
G01*
X72925000Y-68875000D01*
G75*
G02*
X72675000Y-68625000I0J250000D01*
G01*
G37*
%TD.AperFunction*%
%TD*%
%TO.P,C2,1*%
%TO.N,+3V3*%
%TA.AperFunction,SMDPad,CuDef*%
G36*
G01*
X62875000Y-77875000D02*
X62875000Y-76625000D01*
G75*
G02*
X63125000Y-76375000I250000J0D01*
G01*
X63875000Y-76375000D01*
G75*
G02*
X64125000Y-76625000I0J-250000D01*
G01*
X64125000Y-77875000D01*
G75*
G02*
X63875000Y-78125000I-250000J0D01*
G01*
X63125000Y-78125000D01*
G75*
G02*
X62875000Y-77875000I0J250000D01*
G01*
G37*
%TD.AperFunction*%
%TO.P,C2,2*%
%TO.N,GND*%
%TA.AperFunction,SMDPad,CuDef*%
G36*
G01*
X65675000Y-77875000D02*
X65675000Y-76625000D01*
G75*
G02*
X65925000Y-76375000I250000J0D01*
G01*
X66675000Y-76375000D01*
G75*
G02*
X66925000Y-76625000I0J-250000D01*
G01*
X66925000Y-77875000D01*
G75*
G02*
X66675000Y-78125000I-250000J0D01*
G01*
X65925000Y-78125000D01*
G75*
G02*
X65675000Y-77875000I0J250000D01*
G01*
G37*
%TD.AperFunction*%
%TD*%
%TO.P,C3,2*%
%TO.N,GND*%
%TA.AperFunction,SMDPad,CuDef*%
G36*
G01*
X65675000Y-80625000D02*
X65675000Y-79375000D01*
G75*
G02*
X65925000Y-79125000I250000J0D01*
G01*
X66675000Y-79125000D01*
G75*
G02*
X66925000Y-79375000I0J-250000D01*
G01*
X66925000Y-80625000D01*
G75*
G02*
X66675000Y-80875000I-250000J0D01*
G01*
X65925000Y-80875000D01*
G75*
G02*
X65675000Y-80625000I0J250000D01*
G01*
G37*
%TD.AperFunction*%
%TO.P,C3,1*%
%TO.N,+3V3*%
%TA.AperFunction,SMDPad,CuDef*%
G36*
G01*
X62875000Y-80625000D02*
X62875000Y-79375000D01*
G75*
G02*
X63125000Y-79125000I250000J0D01*
G01*
X63875000Y-79125000D01*
G75*
G02*
X64125000Y-79375000I0J-250000D01*
G01*
X64125000Y-80625000D01*
G75*
G02*
X63875000Y-80875000I-250000J0D01*
G01*
X63125000Y-80875000D01*
G75*
G02*
X62875000Y-80625000I0J250000D01*
G01*
G37*
%TD.AperFunction*%
%TD*%
%TO.P,C4,1*%
%TO.N,BUCK_SW*%
%TA.AperFunction,SMDPad,CuDef*%
G36*
G01*
X67243750Y-71025000D02*
X67756250Y-71025000D01*
G75*
G02*
X67975000Y-71243750I0J-218750D01*
G01*
X67975000Y-71681250D01*
G75*
G02*
X67756250Y-71900000I-218750J0D01*
G01*
X67243750Y-71900000D01*
G75*
G02*
X67025000Y-71681250I0J218750D01*
G01*
X67025000Y-71243750D01*
G75*
G02*
X67243750Y-71025000I218750J0D01*
G01*
G37*
%TD.AperFunction*%
%TO.P,C4,2*%
%TO.N,BUCK_BST*%
%TA.AperFunction,SMDPad,CuDef*%
G36*
G01*
X67243750Y-72600000D02*
X67756250Y-72600000D01*
G75*
G02*
X67975000Y-72818750I0J-218750D01*
G01*
X67975000Y-73256250D01*
G75*
G02*
X67756250Y-73475000I-218750J0D01*
G01*
X67243750Y-73475000D01*
G75*
G02*
X67025000Y-73256250I0J218750D01*
G01*
X67025000Y-72818750D01*
G75*
G02*
X67243750Y-72600000I218750J0D01*
G01*
G37*
%TD.AperFunction*%
%TD*%
%TO.P,C5,2*%
%TO.N,GND*%
%TA.AperFunction,SMDPad,CuDef*%
G36*
G01*
X42862500Y-54743750D02*
X42862500Y-55256250D01*
G75*
G02*
X42643750Y-55475000I-218750J0D01*
G01*
X42206250Y-55475000D01*
G75*
G02*
X41987500Y-55256250I0J218750D01*
G01*
X41987500Y-54743750D01*
G75*
G02*
X42206250Y-54525000I218750J0D01*
G01*
X42643750Y-54525000D01*
G75*
G02*
X42862500Y-54743750I0J-218750D01*
G01*
G37*
%TD.AperFunction*%
%TO.P,C5,1*%
%TO.N,+3V3*%
%TA.AperFunction,SMDPad,CuDef*%
G36*
G01*
X44437500Y-54743750D02*
X44437500Y-55256250D01*
G75*
G02*
X44218750Y-55475000I-218750J0D01*
G01*
X43781250Y-55475000D01*
G75*
G02*
X43562500Y-55256250I0J218750D01*
G01*
X43562500Y-54743750D01*
G75*
G02*
X43781250Y-54525000I218750J0D01*
G01*
X44218750Y-54525000D01*
G75*
G02*
X44437500Y-54743750I0J-218750D01*
G01*
G37*
%TD.AperFunction*%
%TD*%
%TO.P,C6,2*%
%TO.N,GND*%
%TA.AperFunction,SMDPad,CuDef*%
G36*
G01*
X42422500Y-58325000D02*
X42077500Y-58325000D01*
G75*
G02*
X41930000Y-58177500I0J147500D01*
G01*
X41930000Y-57882500D01*
G75*
G02*
X42077500Y-57735000I147500J0D01*
G01*
X42422500Y-57735000D01*
G75*
G02*
X42570000Y-57882500I0J-147500D01*
G01*
X42570000Y-58177500D01*
G75*
G02*
X42422500Y-58325000I-147500J0D01*
G01*
G37*
%TD.AperFunction*%
%TO.P,C6,1*%
%TO.N,+3V3*%
%TA.AperFunction,SMDPad,CuDef*%
G36*
G01*
X42422500Y-59295000D02*
X42077500Y-59295000D01*
G75*
G02*
X41930000Y-59147500I0J147500D01*
G01*
X41930000Y-58852500D01*
G75*
G02*
X42077500Y-58705000I147500J0D01*
G01*
X42422500Y-58705000D01*
G75*
G02*
X42570000Y-58852500I0J-147500D01*
G01*
X42570000Y-59147500D01*
G75*
G02*
X42422500Y-59295000I-147500J0D01*
G01*
G37*
%TD.AperFunction*%
%TD*%
%TO.P,C7,1*%
%TO.N,+3V3*%
%TA.AperFunction,SMDPad,CuDef*%
G36*
G01*
X47795000Y-70327500D02*
X47795000Y-70672500D01*
G75*
G02*
X47647500Y-70820000I-147500J0D01*
G01*
X47352500Y-70820000D01*
G75*
G02*
X47205000Y-70672500I0J147500D01*
G01*
X47205000Y-70327500D01*
G75*
G02*
X47352500Y-70180000I147500J0D01*
G01*
X47647500Y-70180000D01*
G75*
G02*
X47795000Y-70327500I0J-147500D01*
G01*
G37*
%TD.AperFunction*%
%TO.P,C7,2*%
%TO.N,GND*%
%TA.AperFunction,SMDPad,CuDef*%
G36*
G01*
X46825000Y-70327500D02*
X46825000Y-70672500D01*
G75*
G02*
X46677500Y-70820000I-147500J0D01*
G01*
X46382500Y-70820000D01*
G75*
G02*
X46235000Y-70672500I0J147500D01*
G01*
X46235000Y-70327500D01*
G75*
G02*
X46382500Y-70180000I147500J0D01*
G01*
X46677500Y-70180000D01*
G75*
G02*
X46825000Y-70327500I0J-147500D01*
G01*
G37*
%TD.AperFunction*%
%TD*%
%TO.P,C8,2*%
%TO.N,GND*%
%TA.AperFunction,SMDPad,CuDef*%
G36*
G01*
X55925000Y-69172500D02*
X55925000Y-68827500D01*
G75*
G02*
X56072500Y-68680000I147500J0D01*
G01*
X56367500Y-68680000D01*
G75*
G02*
X56515000Y-68827500I0J-147500D01*
G01*
X56515000Y-69172500D01*
G75*
G02*
X56367500Y-69320000I-147500J0D01*
G01*
X56072500Y-69320000D01*
G75*
G02*
X55925000Y-69172500I0J147500D01*
G01*
G37*
%TD.AperFunction*%
%TO.P,C8,1*%
%TO.N,+3V3*%
%TA.AperFunction,SMDPad,CuDef*%
G36*
G01*
X54955000Y-69172500D02*
X54955000Y-68827500D01*
G75*
G02*
X55102500Y-68680000I147500J0D01*
G01*
X55397500Y-68680000D01*
G75*
G02*
X55545000Y-68827500I0J-147500D01*
G01*
X55545000Y-69172500D01*
G75*
G02*
X55397500Y-69320000I-147500J0D01*
G01*
X55102500Y-69320000D01*
G75*
G02*
X54955000Y-69172500I0J147500D01*
G01*
G37*
%TD.AperFunction*%
%TD*%
%TO.P,C9,1*%
%TO.N,+3V3*%
%TA.AperFunction,SMDPad,CuDef*%
G36*
G01*
X56422500Y-57765000D02*
X56077500Y-57765000D01*
G75*
G02*
X55930000Y-57617500I0J147500D01*
G01*
X55930000Y-57322500D01*
G75*
G02*
X56077500Y-57175000I147500J0D01*
G01*
X56422500Y-57175000D01*
G75*
G02*
X56570000Y-57322500I0J-147500D01*
G01*
X56570000Y-57617500D01*
G75*
G02*
X56422500Y-57765000I-147500J0D01*
G01*
G37*
%TD.AperFunction*%
%TO.P,C9,2*%
%TO.N,GND*%
%TA.AperFunction,SMDPad,CuDef*%
G36*
G01*
X56422500Y-56795000D02*
X56077500Y-56795000D01*
G75*
G02*
X55930000Y-56647500I0J147500D01*
G01*
X55930000Y-56352500D01*
G75*
G02*
X56077500Y-56205000I147500J0D01*
G01*
X56422500Y-56205000D01*
G75*
G02*
X56570000Y-56352500I0J-147500D01*
G01*
X56570000Y-56647500D01*
G75*
G02*
X56422500Y-56795000I-147500J0D01*
G01*
G37*
%TD.AperFunction*%
%TD*%
%TO.P,C10,2*%
%TO.N,GND*%
%TA.AperFunction,SMDPad,CuDef*%
G36*
G01*
X46675000Y-55172500D02*
X46675000Y-54827500D01*
G75*
G02*
X46822500Y-54680000I147500J0D01*
G01*
X47117500Y-54680000D01*
G75*
G02*
X47265000Y-54827500I0J-147500D01*
G01*
X47265000Y-55172500D01*
G75*
G02*
X47117500Y-55320000I-147500J0D01*
G01*
X46822500Y-55320000D01*
G75*
G02*
X46675000Y-55172500I0J147500D01*
G01*
G37*
%TD.AperFunction*%
%TO.P,C10,1*%
%TO.N,+3V3*%
%TA.AperFunction,SMDPad,CuDef*%
G36*
G01*
X45705000Y-55172500D02*
X45705000Y-54827500D01*
G75*
G02*
X45852500Y-54680000I147500J0D01*
G01*
X46147500Y-54680000D01*
G75*
G02*
X46295000Y-54827500I0J-147500D01*
G01*
X46295000Y-55172500D01*
G75*
G02*
X46147500Y-55320000I-147500J0D01*
G01*
X45852500Y-55320000D01*
G75*
G02*
X45705000Y-55172500I0J147500D01*
G01*
G37*
%TD.AperFunction*%
%TD*%
%TO.P,C11,1*%
%TO.N,+3.3VA*%
%TA.AperFunction,SMDPad,CuDef*%
G36*
G01*
X41172500Y-65545000D02*
X40827500Y-65545000D01*
G75*
G02*
X40680000Y-65397500I0J147500D01*
G01*
X40680000Y-65102500D01*
G75*
G02*
X40827500Y-64955000I147500J0D01*
G01*
X41172500Y-64955000D01*
G75*
G02*
X41320000Y-65102500I0J-147500D01*
G01*
X41320000Y-65397500D01*
G75*
G02*
X41172500Y-65545000I-147500J0D01*
G01*
G37*
%TD.AperFunction*%
%TO.P,C11,2*%
%TO.N,GND*%
%TA.AperFunction,SMDPad,CuDef*%
G36*
G01*
X41172500Y-64575000D02*
X40827500Y-64575000D01*
G75*
G02*
X40680000Y-64427500I0J147500D01*
G01*
X40680000Y-64132500D01*
G75*
G02*
X40827500Y-63985000I147500J0D01*
G01*
X41172500Y-63985000D01*
G75*
G02*
X41320000Y-64132500I0J-147500D01*
G01*
X41320000Y-64427500D01*
G75*
G02*
X41172500Y-64575000I-147500J0D01*
G01*
G37*
%TD.AperFunction*%
%TD*%
%TO.P,C12,1*%
%TO.N,+3.3VA*%
%TA.AperFunction,SMDPad,CuDef*%
G36*
G01*
X42422500Y-65530000D02*
X42077500Y-65530000D01*
G75*
G02*
X41930000Y-65382500I0J147500D01*
G01*
X41930000Y-65087500D01*
G75*
G02*
X42077500Y-64940000I147500J0D01*
G01*
X42422500Y-64940000D01*
G75*
G02*
X42570000Y-65087500I0J-147500D01*
G01*
X42570000Y-65382500D01*
G75*
G02*
X42422500Y-65530000I-147500J0D01*
G01*
G37*
%TD.AperFunction*%
%TO.P,C12,2*%
%TO.N,GND*%
%TA.AperFunction,SMDPad,CuDef*%
G36*
G01*
X42422500Y-64560000D02*
X42077500Y-64560000D01*
G75*
G02*
X41930000Y-64412500I0J147500D01*
G01*
X41930000Y-64117500D01*
G75*
G02*
X42077500Y-63970000I147500J0D01*
G01*
X42422500Y-63970000D01*
G75*
G02*
X42570000Y-64117500I0J-147500D01*
G01*
X42570000Y-64412500D01*
G75*
G02*
X42422500Y-64560000I-147500J0D01*
G01*
G37*
%TD.AperFunction*%
%TD*%
%TO.P,C13,1*%
%TO.N,Net-(C13-Pad1)*%
%TA.AperFunction,SMDPad,CuDef*%
G36*
G01*
X53312500Y-71006250D02*
X53312500Y-70493750D01*
G75*
G02*
X53531250Y-70275000I218750J0D01*
G01*
X53968750Y-70275000D01*
G75*
G02*
X54187500Y-70493750I0J-218750D01*
G01*
X54187500Y-71006250D01*
G75*
G02*
X53968750Y-71225000I-218750J0D01*
G01*
X53531250Y-71225000D01*
G75*
G02*
X53312500Y-71006250I0J218750D01*
G01*
G37*
%TD.AperFunction*%
%TO.P,C13,2*%
%TO.N,GND*%
%TA.AperFunction,SMDPad,CuDef*%
G36*
G01*
X54887500Y-71006250D02*
X54887500Y-70493750D01*
G75*
G02*
X55106250Y-70275000I218750J0D01*
G01*
X55543750Y-70275000D01*
G75*
G02*
X55762500Y-70493750I0J-218750D01*
G01*
X55762500Y-71006250D01*
G75*
G02*
X55543750Y-71225000I-218750J0D01*
G01*
X55106250Y-71225000D01*
G75*
G02*
X54887500Y-71006250I0J218750D01*
G01*
G37*
%TD.AperFunction*%
%TD*%
%TO.P,C14,2*%
%TO.N,GND*%
%TA.AperFunction,SMDPad,CuDef*%
G36*
G01*
X58293750Y-57900000D02*
X57781250Y-57900000D01*
G75*
G02*
X57562500Y-57681250I0J218750D01*
G01*
X57562500Y-57243750D01*
G75*
G02*
X57781250Y-57025000I218750J0D01*
G01*
X58293750Y-57025000D01*
G75*
G02*
X58512500Y-57243750I0J-218750D01*
G01*
X58512500Y-57681250D01*
G75*
G02*
X58293750Y-57900000I-218750J0D01*
G01*
G37*
%TD.AperFunction*%
%TO.P,C14,1*%
%TO.N,Net-(C14-Pad1)*%
%TA.AperFunction,SMDPad,CuDef*%
G36*
G01*
X58293750Y-59475000D02*
X57781250Y-59475000D01*
G75*
G02*
X57562500Y-59256250I0J218750D01*
G01*
X57562500Y-58818750D01*
G75*
G02*
X57781250Y-58600000I218750J0D01*
G01*
X58293750Y-58600000D01*
G75*
G02*
X58512500Y-58818750I0J-218750D01*
G01*
X58512500Y-59256250D01*
G75*
G02*
X58293750Y-59475000I-218750J0D01*
G01*
G37*
%TD.AperFunction*%
%TD*%
%TO.P,C15,2*%
%TO.N,GND*%
%TA.AperFunction,SMDPad,CuDef*%
G36*
G01*
X38690000Y-58172500D02*
X38690000Y-57827500D01*
G75*
G02*
X38837500Y-57680000I147500J0D01*
G01*
X39132500Y-57680000D01*
G75*
G02*
X39280000Y-57827500I0J-147500D01*
G01*
X39280000Y-58172500D01*
G75*
G02*
X39132500Y-58320000I-147500J0D01*
G01*
X38837500Y-58320000D01*
G75*
G02*
X38690000Y-58172500I0J147500D01*
G01*
G37*
%TD.AperFunction*%
%TO.P,C15,1*%
%TO.N,HSE_IN*%
%TA.AperFunction,SMDPad,CuDef*%
G36*
G01*
X37720000Y-58172500D02*
X37720000Y-57827500D01*
G75*
G02*
X37867500Y-57680000I147500J0D01*
G01*
X38162500Y-57680000D01*
G75*
G02*
X38310000Y-57827500I0J-147500D01*
G01*
X38310000Y-58172500D01*
G75*
G02*
X38162500Y-58320000I-147500J0D01*
G01*
X37867500Y-58320000D01*
G75*
G02*
X37720000Y-58172500I0J147500D01*
G01*
G37*
%TD.AperFunction*%
%TD*%
%TO.P,C16,1*%
%TO.N,Net-(C16-Pad1)*%
%TA.AperFunction,SMDPad,CuDef*%
G36*
G01*
X39280000Y-63827500D02*
X39280000Y-64172500D01*
G75*
G02*
X39132500Y-64320000I-147500J0D01*
G01*
X38837500Y-64320000D01*
G75*
G02*
X38690000Y-64172500I0J147500D01*
G01*
X38690000Y-63827500D01*
G75*
G02*
X38837500Y-63680000I147500J0D01*
G01*
X39132500Y-63680000D01*
G75*
G02*
X39280000Y-63827500I0J-147500D01*
G01*
G37*
%TD.AperFunction*%
%TO.P,C16,2*%
%TO.N,GND*%
%TA.AperFunction,SMDPad,CuDef*%
G36*
G01*
X38310000Y-63827500D02*
X38310000Y-64172500D01*
G75*
G02*
X38162500Y-64320000I-147500J0D01*
G01*
X37867500Y-64320000D01*
G75*
G02*
X37720000Y-64172500I0J147500D01*
G01*
X37720000Y-63827500D01*
G75*
G02*
X37867500Y-63680000I147500J0D01*
G01*
X38162500Y-63680000D01*
G75*
G02*
X38310000Y-63827500I0J-147500D01*
G01*
G37*
%TD.AperFunction*%
%TD*%
D13*
%TO.P,D1,2*%
%TO.N,+5V*%
X78800000Y-61250000D03*
%TO.P,D1,1*%
%TO.N,Net-(D1-Pad1)*%
X75500000Y-61250000D03*
%TD*%
%TO.P,D2,1*%
%TO.N,BUCK_SW*%
X63500000Y-67250000D03*
%TO.P,D2,2*%
%TO.N,GND*%
X66800000Y-67250000D03*
%TD*%
%TO.P,D3,2*%
%TO.N,+3V3*%
%TA.AperFunction,SMDPad,CuDef*%
G36*
G01*
X71437500Y-38993750D02*
X71437500Y-39506250D01*
G75*
G02*
X71218750Y-39725000I-218750J0D01*
G01*
X70781250Y-39725000D01*
G75*
G02*
X70562500Y-39506250I0J218750D01*
G01*
X70562500Y-38993750D01*
G75*
G02*
X70781250Y-38775000I218750J0D01*
G01*
X71218750Y-38775000D01*
G75*
G02*
X71437500Y-38993750I0J-218750D01*
G01*
G37*
%TD.AperFunction*%
%TO.P,D3,1*%
%TO.N,Net-(D3-Pad1)*%
%TA.AperFunction,SMDPad,CuDef*%
G36*
G01*
X73012500Y-38993750D02*
X73012500Y-39506250D01*
G75*
G02*
X72793750Y-39725000I-218750J0D01*
G01*
X72356250Y-39725000D01*
G75*
G02*
X72137500Y-39506250I0J218750D01*
G01*
X72137500Y-38993750D01*
G75*
G02*
X72356250Y-38775000I218750J0D01*
G01*
X72793750Y-38775000D01*
G75*
G02*
X73012500Y-38993750I0J-218750D01*
G01*
G37*
%TD.AperFunction*%
%TD*%
%TO.P,D4,1*%
%TO.N,Net-(D4-Pad1)*%
%TA.AperFunction,SMDPad,CuDef*%
G36*
G01*
X43756250Y-70475000D02*
X43243750Y-70475000D01*
G75*
G02*
X43025000Y-70256250I0J218750D01*
G01*
X43025000Y-69818750D01*
G75*
G02*
X43243750Y-69600000I218750J0D01*
G01*
X43756250Y-69600000D01*
G75*
G02*
X43975000Y-69818750I0J-218750D01*
G01*
X43975000Y-70256250D01*
G75*
G02*
X43756250Y-70475000I-218750J0D01*
G01*
G37*
%TD.AperFunction*%
%TO.P,D4,2*%
%TO.N,LED_STATUS*%
%TA.AperFunction,SMDPad,CuDef*%
G36*
G01*
X43756250Y-68900000D02*
X43243750Y-68900000D01*
G75*
G02*
X43025000Y-68681250I0J218750D01*
G01*
X43025000Y-68243750D01*
G75*
G02*
X43243750Y-68025000I218750J0D01*
G01*
X43756250Y-68025000D01*
G75*
G02*
X43975000Y-68243750I0J-218750D01*
G01*
X43975000Y-68681250D01*
G75*
G02*
X43756250Y-68900000I-218750J0D01*
G01*
G37*
%TD.AperFunction*%
%TD*%
%TO.P,F1,1*%
%TO.N,Net-(F1-Pad1)*%
%TA.AperFunction,SMDPad,CuDef*%
G36*
G01*
X69875000Y-61875000D02*
X69875000Y-60625000D01*
G75*
G02*
X70125000Y-60375000I250000J0D01*
G01*
X70875000Y-60375000D01*
G75*
G02*
X71125000Y-60625000I0J-250000D01*
G01*
X71125000Y-61875000D01*
G75*
G02*
X70875000Y-62125000I-250000J0D01*
G01*
X70125000Y-62125000D01*
G75*
G02*
X69875000Y-61875000I0J250000D01*
G01*
G37*
%TD.AperFunction*%
%TO.P,F1,2*%
%TO.N,Net-(D1-Pad1)*%
%TA.AperFunction,SMDPad,CuDef*%
G36*
G01*
X72675000Y-61875000D02*
X72675000Y-60625000D01*
G75*
G02*
X72925000Y-60375000I250000J0D01*
G01*
X73675000Y-60375000D01*
G75*
G02*
X73925000Y-60625000I0J-250000D01*
G01*
X73925000Y-61875000D01*
G75*
G02*
X73675000Y-62125000I-250000J0D01*
G01*
X72925000Y-62125000D01*
G75*
G02*
X72675000Y-61875000I0J250000D01*
G01*
G37*
%TD.AperFunction*%
%TD*%
%TO.P,FB1,1*%
%TO.N,BUCK_IN*%
%TA.AperFunction,SMDPad,CuDef*%
G36*
G01*
X70956250Y-66237500D02*
X70043750Y-66237500D01*
G75*
G02*
X69800000Y-65993750I0J243750D01*
G01*
X69800000Y-65506250D01*
G75*
G02*
X70043750Y-65262500I243750J0D01*
G01*
X70956250Y-65262500D01*
G75*
G02*
X71200000Y-65506250I0J-243750D01*
G01*
X71200000Y-65993750D01*
G75*
G02*
X70956250Y-66237500I-243750J0D01*
G01*
G37*
%TD.AperFunction*%
%TO.P,FB1,2*%
%TO.N,Net-(F1-Pad1)*%
%TA.AperFunction,SMDPad,CuDef*%
G36*
G01*
X70956250Y-64362500D02*
X70043750Y-64362500D01*
G75*
G02*
X69800000Y-64118750I0J243750D01*
G01*
X69800000Y-63631250D01*
G75*
G02*
X70043750Y-63387500I243750J0D01*
G01*
X70956250Y-63387500D01*
G75*
G02*
X71200000Y-63631250I0J-243750D01*
G01*
X71200000Y-64118750D01*
G75*
G02*
X70956250Y-64362500I-243750J0D01*
G01*
G37*
%TD.AperFunction*%
%TD*%
D14*
%TO.P,H1,1*%
%TO.N,GND*%
X81250000Y-41000000D03*
D15*
X84475000Y-41000000D03*
X83530419Y-43280419D03*
X81250000Y-44225000D03*
X78969581Y-43280419D03*
X78025000Y-41000000D03*
X78969581Y-38719581D03*
X81250000Y-37775000D03*
X83530419Y-38719581D03*
%TD*%
%TO.P,H2,1*%
%TO.N,GND*%
X83530419Y-78719581D03*
X81250000Y-77775000D03*
X78969581Y-78719581D03*
X78025000Y-81000000D03*
X78969581Y-83280419D03*
X81250000Y-84225000D03*
X83530419Y-83280419D03*
X84475000Y-81000000D03*
D14*
X81250000Y-81000000D03*
%TD*%
%TO.P,H3,1*%
%TO.N,GND*%
X36250000Y-81000000D03*
D15*
X39475000Y-81000000D03*
X38530419Y-83280419D03*
X36250000Y-84225000D03*
X33969581Y-83280419D03*
X33025000Y-81000000D03*
X33969581Y-78719581D03*
X36250000Y-77775000D03*
X38530419Y-78719581D03*
%TD*%
%TO.P,H4,1*%
%TO.N,GND*%
X38530419Y-38719581D03*
X36250000Y-37775000D03*
X33969581Y-38719581D03*
X33025000Y-41000000D03*
X33969581Y-43280419D03*
X36250000Y-44225000D03*
X38530419Y-43280419D03*
X39475000Y-41000000D03*
D14*
X36250000Y-41000000D03*
%TD*%
D16*
%TO.P,J1,1*%
%TO.N,+12V*%
X81250000Y-70500000D03*
D17*
%TO.P,J1,2*%
%TO.N,GND*%
X81250000Y-67000000D03*
%TD*%
D18*
%TO.P,J3,4*%
%TO.N,GND*%
X47500000Y-41000000D03*
%TO.P,J3,3*%
%TO.N,I2C1_SDA*%
X48750000Y-41000000D03*
%TO.P,J3,2*%
%TO.N,I2C1_SCL*%
X50000000Y-41000000D03*
%TO.P,J3,1*%
%TO.N,+3V3*%
%TA.AperFunction,ComponentPad*%
G36*
G01*
X51650000Y-40550000D02*
X51650000Y-41450000D01*
G75*
G02*
X51450000Y-41650000I-200000J0D01*
G01*
X51050000Y-41650000D01*
G75*
G02*
X50850000Y-41450000I0J200000D01*
G01*
X50850000Y-40550000D01*
G75*
G02*
X51050000Y-40350000I200000J0D01*
G01*
X51450000Y-40350000D01*
G75*
G02*
X51650000Y-40550000I0J-200000D01*
G01*
G37*
%TD.AperFunction*%
%TD*%
%TO.P,J4,1*%
%TO.N,+3V3*%
%TA.AperFunction,ComponentPad*%
G36*
G01*
X47100000Y-81450000D02*
X47100000Y-80550000D01*
G75*
G02*
X47300000Y-80350000I200000J0D01*
G01*
X47700000Y-80350000D01*
G75*
G02*
X47900000Y-80550000I0J-200000D01*
G01*
X47900000Y-81450000D01*
G75*
G02*
X47700000Y-81650000I-200000J0D01*
G01*
X47300000Y-81650000D01*
G75*
G02*
X47100000Y-81450000I0J200000D01*
G01*
G37*
%TD.AperFunction*%
%TO.P,J4,2*%
%TO.N,USART3_TX*%
X48750000Y-81000000D03*
%TO.P,J4,3*%
%TO.N,USART3_RX*%
X50000000Y-81000000D03*
%TO.P,J4,4*%
%TO.N,GND*%
X51250000Y-81000000D03*
%TD*%
D19*
%TO.P,J5,1*%
%TO.N,+5V*%
X81900000Y-53550000D03*
%TO.P,J5,2*%
%TO.N,USB_CONN_D-*%
X81900000Y-52900000D03*
%TO.P,J5,3*%
%TO.N,USB_CONN_D+*%
X81900000Y-52250000D03*
%TO.P,J5,4*%
%TO.N,Net-(J5-Pad4)*%
X81900000Y-51600000D03*
%TO.P,J5,5*%
%TO.N,GND*%
X81900000Y-50950000D03*
D20*
%TO.P,J5,6*%
%TO.N,Net-(J5-Pad6)*%
X84575000Y-55550000D03*
X84575000Y-48950000D03*
D21*
X82125000Y-55450000D03*
D22*
X84575000Y-53450000D03*
X84575000Y-51050000D03*
D21*
X82125000Y-49050000D03*
%TD*%
D23*
%TO.P,L1,1*%
%TO.N,BUCK_SW*%
X63500000Y-70200000D03*
%TO.P,L1,2*%
%TO.N,+3V3*%
X63500000Y-74300000D03*
%TD*%
%TO.P,L2,1*%
%TO.N,+3V3*%
%TA.AperFunction,SMDPad,CuDef*%
G36*
G01*
X38720000Y-66672500D02*
X38720000Y-66327500D01*
G75*
G02*
X38867500Y-66180000I147500J0D01*
G01*
X39162500Y-66180000D01*
G75*
G02*
X39310000Y-66327500I0J-147500D01*
G01*
X39310000Y-66672500D01*
G75*
G02*
X39162500Y-66820000I-147500J0D01*
G01*
X38867500Y-66820000D01*
G75*
G02*
X38720000Y-66672500I0J147500D01*
G01*
G37*
%TD.AperFunction*%
%TO.P,L2,2*%
%TO.N,+3.3VA*%
%TA.AperFunction,SMDPad,CuDef*%
G36*
G01*
X39690000Y-66672500D02*
X39690000Y-66327500D01*
G75*
G02*
X39837500Y-66180000I147500J0D01*
G01*
X40132500Y-66180000D01*
G75*
G02*
X40280000Y-66327500I0J-147500D01*
G01*
X40280000Y-66672500D01*
G75*
G02*
X40132500Y-66820000I-147500J0D01*
G01*
X39837500Y-66820000D01*
G75*
G02*
X39690000Y-66672500I0J147500D01*
G01*
G37*
%TD.AperFunction*%
%TD*%
D24*
%TO.P,Q1,1*%
%TO.N,GND*%
X75450000Y-63750000D03*
%TO.P,Q1,2*%
%TO.N,Net-(D1-Pad1)*%
X73550000Y-63750000D03*
%TO.P,Q1,3*%
%TO.N,+12V*%
X74500000Y-65750000D03*
%TD*%
%TO.P,R1,2*%
%TO.N,BUCK_EN*%
%TA.AperFunction,SMDPad,CuDef*%
G36*
G01*
X73243750Y-71312500D02*
X73756250Y-71312500D01*
G75*
G02*
X73975000Y-71531250I0J-218750D01*
G01*
X73975000Y-71968750D01*
G75*
G02*
X73756250Y-72187500I-218750J0D01*
G01*
X73243750Y-72187500D01*
G75*
G02*
X73025000Y-71968750I0J218750D01*
G01*
X73025000Y-71531250D01*
G75*
G02*
X73243750Y-71312500I218750J0D01*
G01*
G37*
%TD.AperFunction*%
%TO.P,R1,1*%
%TO.N,BUCK_IN*%
%TA.AperFunction,SMDPad,CuDef*%
G36*
G01*
X73243750Y-69737500D02*
X73756250Y-69737500D01*
G75*
G02*
X73975000Y-69956250I0J-218750D01*
G01*
X73975000Y-70393750D01*
G75*
G02*
X73756250Y-70612500I-218750J0D01*
G01*
X73243750Y-70612500D01*
G75*
G02*
X73025000Y-70393750I0J218750D01*
G01*
X73025000Y-69956250D01*
G75*
G02*
X73243750Y-69737500I218750J0D01*
G01*
G37*
%TD.AperFunction*%
%TD*%
%TO.P,R2,1*%
%TO.N,BUCK_EN*%
%TA.AperFunction,SMDPad,CuDef*%
G36*
G01*
X75506250Y-72187500D02*
X74993750Y-72187500D01*
G75*
G02*
X74775000Y-71968750I0J218750D01*
G01*
X74775000Y-71531250D01*
G75*
G02*
X74993750Y-71312500I218750J0D01*
G01*
X75506250Y-71312500D01*
G75*
G02*
X75725000Y-71531250I0J-218750D01*
G01*
X75725000Y-71968750D01*
G75*
G02*
X75506250Y-72187500I-218750J0D01*
G01*
G37*
%TD.AperFunction*%
%TO.P,R2,2*%
%TO.N,GND*%
%TA.AperFunction,SMDPad,CuDef*%
G36*
G01*
X75506250Y-70612500D02*
X74993750Y-70612500D01*
G75*
G02*
X74775000Y-70393750I0J218750D01*
G01*
X74775000Y-69956250D01*
G75*
G02*
X74993750Y-69737500I218750J0D01*
G01*
X75506250Y-69737500D01*
G75*
G02*
X75725000Y-69956250I0J-218750D01*
G01*
X75725000Y-70393750D01*
G75*
G02*
X75506250Y-70612500I-218750J0D01*
G01*
G37*
%TD.AperFunction*%
%TD*%
%TO.P,R3,1*%
%TO.N,+3V3*%
%TA.AperFunction,SMDPad,CuDef*%
G36*
G01*
X73756250Y-75512500D02*
X73243750Y-75512500D01*
G75*
G02*
X73025000Y-75293750I0J218750D01*
G01*
X73025000Y-74856250D01*
G75*
G02*
X73243750Y-74637500I218750J0D01*
G01*
X73756250Y-74637500D01*
G75*
G02*
X73975000Y-74856250I0J-218750D01*
G01*
X73975000Y-75293750D01*
G75*
G02*
X73756250Y-75512500I-218750J0D01*
G01*
G37*
%TD.AperFunction*%
%TO.P,R3,2*%
%TO.N,BUCK_FB*%
%TA.AperFunction,SMDPad,CuDef*%
G36*
G01*
X73756250Y-73937500D02*
X73243750Y-73937500D01*
G75*
G02*
X73025000Y-73718750I0J218750D01*
G01*
X73025000Y-73281250D01*
G75*
G02*
X73243750Y-73062500I218750J0D01*
G01*
X73756250Y-73062500D01*
G75*
G02*
X73975000Y-73281250I0J-218750D01*
G01*
X73975000Y-73718750D01*
G75*
G02*
X73756250Y-73937500I-218750J0D01*
G01*
G37*
%TD.AperFunction*%
%TD*%
%TO.P,R4,1*%
%TO.N,BUCK_FB*%
%TA.AperFunction,SMDPad,CuDef*%
G36*
G01*
X74993750Y-73062500D02*
X75506250Y-73062500D01*
G75*
G02*
X75725000Y-73281250I0J-218750D01*
G01*
X75725000Y-73718750D01*
G75*
G02*
X75506250Y-73937500I-218750J0D01*
G01*
X74993750Y-73937500D01*
G75*
G02*
X74775000Y-73718750I0J218750D01*
G01*
X74775000Y-73281250D01*
G75*
G02*
X74993750Y-73062500I218750J0D01*
G01*
G37*
%TD.AperFunction*%
%TO.P,R4,2*%
%TO.N,Net-(R4-Pad2)*%
%TA.AperFunction,SMDPad,CuDef*%
G36*
G01*
X74993750Y-74637500D02*
X75506250Y-74637500D01*
G75*
G02*
X75725000Y-74856250I0J-218750D01*
G01*
X75725000Y-75293750D01*
G75*
G02*
X75506250Y-75512500I-218750J0D01*
G01*
X74993750Y-75512500D01*
G75*
G02*
X74775000Y-75293750I0J218750D01*
G01*
X74775000Y-74856250D01*
G75*
G02*
X74993750Y-74637500I218750J0D01*
G01*
G37*
%TD.AperFunction*%
%TD*%
%TO.P,R5,2*%
%TO.N,GND*%
%TA.AperFunction,SMDPad,CuDef*%
G36*
G01*
X77256250Y-73925000D02*
X76743750Y-73925000D01*
G75*
G02*
X76525000Y-73706250I0J218750D01*
G01*
X76525000Y-73268750D01*
G75*
G02*
X76743750Y-73050000I218750J0D01*
G01*
X77256250Y-73050000D01*
G75*
G02*
X77475000Y-73268750I0J-218750D01*
G01*
X77475000Y-73706250D01*
G75*
G02*
X77256250Y-73925000I-218750J0D01*
G01*
G37*
%TD.AperFunction*%
%TO.P,R5,1*%
%TO.N,Net-(R4-Pad2)*%
%TA.AperFunction,SMDPad,CuDef*%
G36*
G01*
X77256250Y-75500000D02*
X76743750Y-75500000D01*
G75*
G02*
X76525000Y-75281250I0J218750D01*
G01*
X76525000Y-74843750D01*
G75*
G02*
X76743750Y-74625000I218750J0D01*
G01*
X77256250Y-74625000D01*
G75*
G02*
X77475000Y-74843750I0J-218750D01*
G01*
X77475000Y-75281250D01*
G75*
G02*
X77256250Y-75500000I-218750J0D01*
G01*
G37*
%TD.AperFunction*%
%TD*%
%TO.P,R6,2*%
%TO.N,Net-(D3-Pad1)*%
%TA.AperFunction,SMDPad,CuDef*%
G36*
G01*
X72162500Y-41706250D02*
X72162500Y-41193750D01*
G75*
G02*
X72381250Y-40975000I218750J0D01*
G01*
X72818750Y-40975000D01*
G75*
G02*
X73037500Y-41193750I0J-218750D01*
G01*
X73037500Y-41706250D01*
G75*
G02*
X72818750Y-41925000I-218750J0D01*
G01*
X72381250Y-41925000D01*
G75*
G02*
X72162500Y-41706250I0J218750D01*
G01*
G37*
%TD.AperFunction*%
%TO.P,R6,1*%
%TO.N,GND*%
%TA.AperFunction,SMDPad,CuDef*%
G36*
G01*
X70587500Y-41706250D02*
X70587500Y-41193750D01*
G75*
G02*
X70806250Y-40975000I218750J0D01*
G01*
X71243750Y-40975000D01*
G75*
G02*
X71462500Y-41193750I0J-218750D01*
G01*
X71462500Y-41706250D01*
G75*
G02*
X71243750Y-41925000I-218750J0D01*
G01*
X70806250Y-41925000D01*
G75*
G02*
X70587500Y-41706250I0J218750D01*
G01*
G37*
%TD.AperFunction*%
%TD*%
%TO.P,R7,2*%
%TO.N,BOOT0*%
%TA.AperFunction,SMDPad,CuDef*%
G36*
G01*
X37425000Y-52922500D02*
X37425000Y-52577500D01*
G75*
G02*
X37572500Y-52430000I147500J0D01*
G01*
X37867500Y-52430000D01*
G75*
G02*
X38015000Y-52577500I0J-147500D01*
G01*
X38015000Y-52922500D01*
G75*
G02*
X37867500Y-53070000I-147500J0D01*
G01*
X37572500Y-53070000D01*
G75*
G02*
X37425000Y-52922500I0J147500D01*
G01*
G37*
%TD.AperFunction*%
%TO.P,R7,1*%
%TO.N,Net-(R7-Pad1)*%
%TA.AperFunction,SMDPad,CuDef*%
G36*
G01*
X36455000Y-52922500D02*
X36455000Y-52577500D01*
G75*
G02*
X36602500Y-52430000I147500J0D01*
G01*
X36897500Y-52430000D01*
G75*
G02*
X37045000Y-52577500I0J-147500D01*
G01*
X37045000Y-52922500D01*
G75*
G02*
X36897500Y-53070000I-147500J0D01*
G01*
X36602500Y-53070000D01*
G75*
G02*
X36455000Y-52922500I0J147500D01*
G01*
G37*
%TD.AperFunction*%
%TD*%
%TO.P,R8,1*%
%TO.N,HSE_OUT*%
%TA.AperFunction,SMDPad,CuDef*%
G36*
G01*
X42545000Y-61577500D02*
X42545000Y-61922500D01*
G75*
G02*
X42397500Y-62070000I-147500J0D01*
G01*
X42102500Y-62070000D01*
G75*
G02*
X41955000Y-61922500I0J147500D01*
G01*
X41955000Y-61577500D01*
G75*
G02*
X42102500Y-61430000I147500J0D01*
G01*
X42397500Y-61430000D01*
G75*
G02*
X42545000Y-61577500I0J-147500D01*
G01*
G37*
%TD.AperFunction*%
%TO.P,R8,2*%
%TO.N,Net-(C16-Pad1)*%
%TA.AperFunction,SMDPad,CuDef*%
G36*
G01*
X41575000Y-61577500D02*
X41575000Y-61922500D01*
G75*
G02*
X41427500Y-62070000I-147500J0D01*
G01*
X41132500Y-62070000D01*
G75*
G02*
X40985000Y-61922500I0J147500D01*
G01*
X40985000Y-61577500D01*
G75*
G02*
X41132500Y-61430000I147500J0D01*
G01*
X41427500Y-61430000D01*
G75*
G02*
X41575000Y-61577500I0J-147500D01*
G01*
G37*
%TD.AperFunction*%
%TD*%
%TO.P,R9,1*%
%TO.N,GND*%
%TA.AperFunction,SMDPad,CuDef*%
G36*
G01*
X41243750Y-68025000D02*
X41756250Y-68025000D01*
G75*
G02*
X41975000Y-68243750I0J-218750D01*
G01*
X41975000Y-68681250D01*
G75*
G02*
X41756250Y-68900000I-218750J0D01*
G01*
X41243750Y-68900000D01*
G75*
G02*
X41025000Y-68681250I0J218750D01*
G01*
X41025000Y-68243750D01*
G75*
G02*
X41243750Y-68025000I218750J0D01*
G01*
G37*
%TD.AperFunction*%
%TO.P,R9,2*%
%TO.N,Net-(D4-Pad1)*%
%TA.AperFunction,SMDPad,CuDef*%
G36*
G01*
X41243750Y-69600000D02*
X41756250Y-69600000D01*
G75*
G02*
X41975000Y-69818750I0J-218750D01*
G01*
X41975000Y-70256250D01*
G75*
G02*
X41756250Y-70475000I-218750J0D01*
G01*
X41243750Y-70475000D01*
G75*
G02*
X41025000Y-70256250I0J218750D01*
G01*
X41025000Y-69818750D01*
G75*
G02*
X41243750Y-69600000I218750J0D01*
G01*
G37*
%TD.AperFunction*%
%TD*%
%TO.P,R10,2*%
%TO.N,I2C1_SCL*%
%TA.AperFunction,SMDPad,CuDef*%
G36*
G01*
X50295000Y-53077500D02*
X50295000Y-53422500D01*
G75*
G02*
X50147500Y-53570000I-147500J0D01*
G01*
X49852500Y-53570000D01*
G75*
G02*
X49705000Y-53422500I0J147500D01*
G01*
X49705000Y-53077500D01*
G75*
G02*
X49852500Y-52930000I147500J0D01*
G01*
X50147500Y-52930000D01*
G75*
G02*
X50295000Y-53077500I0J-147500D01*
G01*
G37*
%TD.AperFunction*%
%TO.P,R10,1*%
%TO.N,+3V3*%
%TA.AperFunction,SMDPad,CuDef*%
G36*
G01*
X51265000Y-53077500D02*
X51265000Y-53422500D01*
G75*
G02*
X51117500Y-53570000I-147500J0D01*
G01*
X50822500Y-53570000D01*
G75*
G02*
X50675000Y-53422500I0J147500D01*
G01*
X50675000Y-53077500D01*
G75*
G02*
X50822500Y-52930000I147500J0D01*
G01*
X51117500Y-52930000D01*
G75*
G02*
X51265000Y-53077500I0J-147500D01*
G01*
G37*
%TD.AperFunction*%
%TD*%
%TO.P,R11,1*%
%TO.N,+3V3*%
%TA.AperFunction,SMDPad,CuDef*%
G36*
G01*
X47485000Y-53422500D02*
X47485000Y-53077500D01*
G75*
G02*
X47632500Y-52930000I147500J0D01*
G01*
X47927500Y-52930000D01*
G75*
G02*
X48075000Y-53077500I0J-147500D01*
G01*
X48075000Y-53422500D01*
G75*
G02*
X47927500Y-53570000I-147500J0D01*
G01*
X47632500Y-53570000D01*
G75*
G02*
X47485000Y-53422500I0J147500D01*
G01*
G37*
%TD.AperFunction*%
%TO.P,R11,2*%
%TO.N,I2C1_SDA*%
%TA.AperFunction,SMDPad,CuDef*%
G36*
G01*
X48455000Y-53422500D02*
X48455000Y-53077500D01*
G75*
G02*
X48602500Y-52930000I147500J0D01*
G01*
X48897500Y-52930000D01*
G75*
G02*
X49045000Y-53077500I0J-147500D01*
G01*
X49045000Y-53422500D01*
G75*
G02*
X48897500Y-53570000I-147500J0D01*
G01*
X48602500Y-53570000D01*
G75*
G02*
X48455000Y-53422500I0J147500D01*
G01*
G37*
%TD.AperFunction*%
%TD*%
D25*
%TO.P,U1,1*%
%TO.N,BUCK_BST*%
X69550000Y-73350000D03*
%TO.P,U1,2*%
%TO.N,GND*%
X70500000Y-73350000D03*
%TO.P,U1,3*%
%TO.N,BUCK_FB*%
X71450000Y-73350000D03*
%TO.P,U1,4*%
%TO.N,BUCK_EN*%
X71450000Y-71150000D03*
%TO.P,U1,6*%
%TO.N,BUCK_SW*%
X69550000Y-71150000D03*
%TO.P,U1,5*%
%TO.N,BUCK_IN*%
X70500000Y-71150000D03*
%TD*%
%TO.P,U2,1*%
%TO.N,+3V3*%
%TA.AperFunction,SMDPad,CuDef*%
G36*
G01*
X43550000Y-59075000D02*
X43550000Y-58925000D01*
G75*
G02*
X43625000Y-58850000I75000J0D01*
G01*
X45025000Y-58850000D01*
G75*
G02*
X45100000Y-58925000I0J-75000D01*
G01*
X45100000Y-59075000D01*
G75*
G02*
X45025000Y-59150000I-75000J0D01*
G01*
X43625000Y-59150000D01*
G75*
G02*
X43550000Y-59075000I0J75000D01*
G01*
G37*
%TD.AperFunction*%
%TO.P,U2,2*%
%TO.N,Net-(U2-Pad2)*%
%TA.AperFunction,SMDPad,CuDef*%
G36*
G01*
X43550000Y-59575000D02*
X43550000Y-59425000D01*
G75*
G02*
X43625000Y-59350000I75000J0D01*
G01*
X45025000Y-59350000D01*
G75*
G02*
X45100000Y-59425000I0J-75000D01*
G01*
X45100000Y-59575000D01*
G75*
G02*
X45025000Y-59650000I-75000J0D01*
G01*
X43625000Y-59650000D01*
G75*
G02*
X43550000Y-59575000I0J75000D01*
G01*
G37*
%TD.AperFunction*%
%TO.P,U2,3*%
%TO.N,Net-(U2-Pad3)*%
%TA.AperFunction,SMDPad,CuDef*%
G36*
G01*
X43550000Y-60075000D02*
X43550000Y-59925000D01*
G75*
G02*
X43625000Y-59850000I75000J0D01*
G01*
X45025000Y-59850000D01*
G75*
G02*
X45100000Y-59925000I0J-75000D01*
G01*
X45100000Y-60075000D01*
G75*
G02*
X45025000Y-60150000I-75000J0D01*
G01*
X43625000Y-60150000D01*
G75*
G02*
X43550000Y-60075000I0J75000D01*
G01*
G37*
%TD.AperFunction*%
%TO.P,U2,4*%
%TO.N,Net-(U2-Pad4)*%
%TA.AperFunction,SMDPad,CuDef*%
G36*
G01*
X43550000Y-60575000D02*
X43550000Y-60425000D01*
G75*
G02*
X43625000Y-60350000I75000J0D01*
G01*
X45025000Y-60350000D01*
G75*
G02*
X45100000Y-60425000I0J-75000D01*
G01*
X45100000Y-60575000D01*
G75*
G02*
X45025000Y-60650000I-75000J0D01*
G01*
X43625000Y-60650000D01*
G75*
G02*
X43550000Y-60575000I0J75000D01*
G01*
G37*
%TD.AperFunction*%
%TO.P,U2,5*%
%TO.N,HSE_IN*%
%TA.AperFunction,SMDPad,CuDef*%
G36*
G01*
X43550000Y-61075000D02*
X43550000Y-60925000D01*
G75*
G02*
X43625000Y-60850000I75000J0D01*
G01*
X45025000Y-60850000D01*
G75*
G02*
X45100000Y-60925000I0J-75000D01*
G01*
X45100000Y-61075000D01*
G75*
G02*
X45025000Y-61150000I-75000J0D01*
G01*
X43625000Y-61150000D01*
G75*
G02*
X43550000Y-61075000I0J75000D01*
G01*
G37*
%TD.AperFunction*%
%TO.P,U2,6*%
%TO.N,HSE_OUT*%
%TA.AperFunction,SMDPad,CuDef*%
G36*
G01*
X43550000Y-61575000D02*
X43550000Y-61425000D01*
G75*
G02*
X43625000Y-61350000I75000J0D01*
G01*
X45025000Y-61350000D01*
G75*
G02*
X45100000Y-61425000I0J-75000D01*
G01*
X45100000Y-61575000D01*
G75*
G02*
X45025000Y-61650000I-75000J0D01*
G01*
X43625000Y-61650000D01*
G75*
G02*
X43550000Y-61575000I0J75000D01*
G01*
G37*
%TD.AperFunction*%
%TO.P,U2,7*%
%TO.N,NRST*%
%TA.AperFunction,SMDPad,CuDef*%
G36*
G01*
X43550000Y-62075000D02*
X43550000Y-61925000D01*
G75*
G02*
X43625000Y-61850000I75000J0D01*
G01*
X45025000Y-61850000D01*
G75*
G02*
X45100000Y-61925000I0J-75000D01*
G01*
X45100000Y-62075000D01*
G75*
G02*
X45025000Y-62150000I-75000J0D01*
G01*
X43625000Y-62150000D01*
G75*
G02*
X43550000Y-62075000I0J75000D01*
G01*
G37*
%TD.AperFunction*%
%TO.P,U2,8*%
%TO.N,Net-(U2-Pad8)*%
%TA.AperFunction,SMDPad,CuDef*%
G36*
G01*
X43550000Y-62575000D02*
X43550000Y-62425000D01*
G75*
G02*
X43625000Y-62350000I75000J0D01*
G01*
X45025000Y-62350000D01*
G75*
G02*
X45100000Y-62425000I0J-75000D01*
G01*
X45100000Y-62575000D01*
G75*
G02*
X45025000Y-62650000I-75000J0D01*
G01*
X43625000Y-62650000D01*
G75*
G02*
X43550000Y-62575000I0J75000D01*
G01*
G37*
%TD.AperFunction*%
%TO.P,U2,9*%
%TO.N,Net-(U2-Pad9)*%
%TA.AperFunction,SMDPad,CuDef*%
G36*
G01*
X43550000Y-63075000D02*
X43550000Y-62925000D01*
G75*
G02*
X43625000Y-62850000I75000J0D01*
G01*
X45025000Y-62850000D01*
G75*
G02*
X45100000Y-62925000I0J-75000D01*
G01*
X45100000Y-63075000D01*
G75*
G02*
X45025000Y-63150000I-75000J0D01*
G01*
X43625000Y-63150000D01*
G75*
G02*
X43550000Y-63075000I0J75000D01*
G01*
G37*
%TD.AperFunction*%
%TO.P,U2,10*%
%TO.N,Net-(U2-Pad10)*%
%TA.AperFunction,SMDPad,CuDef*%
G36*
G01*
X43550000Y-63575000D02*
X43550000Y-63425000D01*
G75*
G02*
X43625000Y-63350000I75000J0D01*
G01*
X45025000Y-63350000D01*
G75*
G02*
X45100000Y-63425000I0J-75000D01*
G01*
X45100000Y-63575000D01*
G75*
G02*
X45025000Y-63650000I-75000J0D01*
G01*
X43625000Y-63650000D01*
G75*
G02*
X43550000Y-63575000I0J75000D01*
G01*
G37*
%TD.AperFunction*%
%TO.P,U2,11*%
%TO.N,Net-(U2-Pad11)*%
%TA.AperFunction,SMDPad,CuDef*%
G36*
G01*
X43550000Y-64075000D02*
X43550000Y-63925000D01*
G75*
G02*
X43625000Y-63850000I75000J0D01*
G01*
X45025000Y-63850000D01*
G75*
G02*
X45100000Y-63925000I0J-75000D01*
G01*
X45100000Y-64075000D01*
G75*
G02*
X45025000Y-64150000I-75000J0D01*
G01*
X43625000Y-64150000D01*
G75*
G02*
X43550000Y-64075000I0J75000D01*
G01*
G37*
%TD.AperFunction*%
%TO.P,U2,12*%
%TO.N,GND*%
%TA.AperFunction,SMDPad,CuDef*%
G36*
G01*
X43550000Y-64575000D02*
X43550000Y-64425000D01*
G75*
G02*
X43625000Y-64350000I75000J0D01*
G01*
X45025000Y-64350000D01*
G75*
G02*
X45100000Y-64425000I0J-75000D01*
G01*
X45100000Y-64575000D01*
G75*
G02*
X45025000Y-64650000I-75000J0D01*
G01*
X43625000Y-64650000D01*
G75*
G02*
X43550000Y-64575000I0J75000D01*
G01*
G37*
%TD.AperFunction*%
%TO.P,U2,13*%
%TO.N,+3.3VA*%
%TA.AperFunction,SMDPad,CuDef*%
G36*
G01*
X43550000Y-65075000D02*
X43550000Y-64925000D01*
G75*
G02*
X43625000Y-64850000I75000J0D01*
G01*
X45025000Y-64850000D01*
G75*
G02*
X45100000Y-64925000I0J-75000D01*
G01*
X45100000Y-65075000D01*
G75*
G02*
X45025000Y-65150000I-75000J0D01*
G01*
X43625000Y-65150000D01*
G75*
G02*
X43550000Y-65075000I0J75000D01*
G01*
G37*
%TD.AperFunction*%
%TO.P,U2,14*%
%TO.N,Net-(U2-Pad14)*%
%TA.AperFunction,SMDPad,CuDef*%
G36*
G01*
X43550000Y-65575000D02*
X43550000Y-65425000D01*
G75*
G02*
X43625000Y-65350000I75000J0D01*
G01*
X45025000Y-65350000D01*
G75*
G02*
X45100000Y-65425000I0J-75000D01*
G01*
X45100000Y-65575000D01*
G75*
G02*
X45025000Y-65650000I-75000J0D01*
G01*
X43625000Y-65650000D01*
G75*
G02*
X43550000Y-65575000I0J75000D01*
G01*
G37*
%TD.AperFunction*%
%TO.P,U2,15*%
%TO.N,Net-(U2-Pad15)*%
%TA.AperFunction,SMDPad,CuDef*%
G36*
G01*
X43550000Y-66075000D02*
X43550000Y-65925000D01*
G75*
G02*
X43625000Y-65850000I75000J0D01*
G01*
X45025000Y-65850000D01*
G75*
G02*
X45100000Y-65925000I0J-75000D01*
G01*
X45100000Y-66075000D01*
G75*
G02*
X45025000Y-66150000I-75000J0D01*
G01*
X43625000Y-66150000D01*
G75*
G02*
X43550000Y-66075000I0J75000D01*
G01*
G37*
%TD.AperFunction*%
%TO.P,U2,16*%
%TO.N,LED_STATUS*%
%TA.AperFunction,SMDPad,CuDef*%
G36*
G01*
X43550000Y-66575000D02*
X43550000Y-66425000D01*
G75*
G02*
X43625000Y-66350000I75000J0D01*
G01*
X45025000Y-66350000D01*
G75*
G02*
X45100000Y-66425000I0J-75000D01*
G01*
X45100000Y-66575000D01*
G75*
G02*
X45025000Y-66650000I-75000J0D01*
G01*
X43625000Y-66650000D01*
G75*
G02*
X43550000Y-66575000I0J75000D01*
G01*
G37*
%TD.AperFunction*%
%TO.P,U2,17*%
%TO.N,Net-(U2-Pad17)*%
%TA.AperFunction,SMDPad,CuDef*%
G36*
G01*
X46100000Y-69125000D02*
X46100000Y-67725000D01*
G75*
G02*
X46175000Y-67650000I75000J0D01*
G01*
X46325000Y-67650000D01*
G75*
G02*
X46400000Y-67725000I0J-75000D01*
G01*
X46400000Y-69125000D01*
G75*
G02*
X46325000Y-69200000I-75000J0D01*
G01*
X46175000Y-69200000D01*
G75*
G02*
X46100000Y-69125000I0J75000D01*
G01*
G37*
%TD.AperFunction*%
%TO.P,U2,18*%
%TO.N,GND*%
%TA.AperFunction,SMDPad,CuDef*%
G36*
G01*
X46600000Y-69125000D02*
X46600000Y-67725000D01*
G75*
G02*
X46675000Y-67650000I75000J0D01*
G01*
X46825000Y-67650000D01*
G75*
G02*
X46900000Y-67725000I0J-75000D01*
G01*
X46900000Y-69125000D01*
G75*
G02*
X46825000Y-69200000I-75000J0D01*
G01*
X46675000Y-69200000D01*
G75*
G02*
X46600000Y-69125000I0J75000D01*
G01*
G37*
%TD.AperFunction*%
%TO.P,U2,19*%
%TO.N,+3V3*%
%TA.AperFunction,SMDPad,CuDef*%
G36*
G01*
X47100000Y-69125000D02*
X47100000Y-67725000D01*
G75*
G02*
X47175000Y-67650000I75000J0D01*
G01*
X47325000Y-67650000D01*
G75*
G02*
X47400000Y-67725000I0J-75000D01*
G01*
X47400000Y-69125000D01*
G75*
G02*
X47325000Y-69200000I-75000J0D01*
G01*
X47175000Y-69200000D01*
G75*
G02*
X47100000Y-69125000I0J75000D01*
G01*
G37*
%TD.AperFunction*%
%TO.P,U2,20*%
%TO.N,Net-(U2-Pad20)*%
%TA.AperFunction,SMDPad,CuDef*%
G36*
G01*
X47600000Y-69125000D02*
X47600000Y-67725000D01*
G75*
G02*
X47675000Y-67650000I75000J0D01*
G01*
X47825000Y-67650000D01*
G75*
G02*
X47900000Y-67725000I0J-75000D01*
G01*
X47900000Y-69125000D01*
G75*
G02*
X47825000Y-69200000I-75000J0D01*
G01*
X47675000Y-69200000D01*
G75*
G02*
X47600000Y-69125000I0J75000D01*
G01*
G37*
%TD.AperFunction*%
%TO.P,U2,21*%
%TO.N,Net-(U2-Pad21)*%
%TA.AperFunction,SMDPad,CuDef*%
G36*
G01*
X48100000Y-69125000D02*
X48100000Y-67725000D01*
G75*
G02*
X48175000Y-67650000I75000J0D01*
G01*
X48325000Y-67650000D01*
G75*
G02*
X48400000Y-67725000I0J-75000D01*
G01*
X48400000Y-69125000D01*
G75*
G02*
X48325000Y-69200000I-75000J0D01*
G01*
X48175000Y-69200000D01*
G75*
G02*
X48100000Y-69125000I0J75000D01*
G01*
G37*
%TD.AperFunction*%
%TO.P,U2,22*%
%TO.N,Net-(U2-Pad22)*%
%TA.AperFunction,SMDPad,CuDef*%
G36*
G01*
X48600000Y-69125000D02*
X48600000Y-67725000D01*
G75*
G02*
X48675000Y-67650000I75000J0D01*
G01*
X48825000Y-67650000D01*
G75*
G02*
X48900000Y-67725000I0J-75000D01*
G01*
X48900000Y-69125000D01*
G75*
G02*
X48825000Y-69200000I-75000J0D01*
G01*
X48675000Y-69200000D01*
G75*
G02*
X48600000Y-69125000I0J75000D01*
G01*
G37*
%TD.AperFunction*%
%TO.P,U2,23*%
%TO.N,Net-(U2-Pad23)*%
%TA.AperFunction,SMDPad,CuDef*%
G36*
G01*
X49100000Y-69125000D02*
X49100000Y-67725000D01*
G75*
G02*
X49175000Y-67650000I75000J0D01*
G01*
X49325000Y-67650000D01*
G75*
G02*
X49400000Y-67725000I0J-75000D01*
G01*
X49400000Y-69125000D01*
G75*
G02*
X49325000Y-69200000I-75000J0D01*
G01*
X49175000Y-69200000D01*
G75*
G02*
X49100000Y-69125000I0J75000D01*
G01*
G37*
%TD.AperFunction*%
%TO.P,U2,24*%
%TO.N,Net-(U2-Pad24)*%
%TA.AperFunction,SMDPad,CuDef*%
G36*
G01*
X49600000Y-69125000D02*
X49600000Y-67725000D01*
G75*
G02*
X49675000Y-67650000I75000J0D01*
G01*
X49825000Y-67650000D01*
G75*
G02*
X49900000Y-67725000I0J-75000D01*
G01*
X49900000Y-69125000D01*
G75*
G02*
X49825000Y-69200000I-75000J0D01*
G01*
X49675000Y-69200000D01*
G75*
G02*
X49600000Y-69125000I0J75000D01*
G01*
G37*
%TD.AperFunction*%
%TO.P,U2,25*%
%TO.N,Net-(U2-Pad25)*%
%TA.AperFunction,SMDPad,CuDef*%
G36*
G01*
X50100000Y-69125000D02*
X50100000Y-67725000D01*
G75*
G02*
X50175000Y-67650000I75000J0D01*
G01*
X50325000Y-67650000D01*
G75*
G02*
X50400000Y-67725000I0J-75000D01*
G01*
X50400000Y-69125000D01*
G75*
G02*
X50325000Y-69200000I-75000J0D01*
G01*
X50175000Y-69200000D01*
G75*
G02*
X50100000Y-69125000I0J75000D01*
G01*
G37*
%TD.AperFunction*%
%TO.P,U2,26*%
%TO.N,Net-(U2-Pad26)*%
%TA.AperFunction,SMDPad,CuDef*%
G36*
G01*
X50600000Y-69125000D02*
X50600000Y-67725000D01*
G75*
G02*
X50675000Y-67650000I75000J0D01*
G01*
X50825000Y-67650000D01*
G75*
G02*
X50900000Y-67725000I0J-75000D01*
G01*
X50900000Y-69125000D01*
G75*
G02*
X50825000Y-69200000I-75000J0D01*
G01*
X50675000Y-69200000D01*
G75*
G02*
X50600000Y-69125000I0J75000D01*
G01*
G37*
%TD.AperFunction*%
%TO.P,U2,27*%
%TO.N,Net-(U2-Pad27)*%
%TA.AperFunction,SMDPad,CuDef*%
G36*
G01*
X51100000Y-69125000D02*
X51100000Y-67725000D01*
G75*
G02*
X51175000Y-67650000I75000J0D01*
G01*
X51325000Y-67650000D01*
G75*
G02*
X51400000Y-67725000I0J-75000D01*
G01*
X51400000Y-69125000D01*
G75*
G02*
X51325000Y-69200000I-75000J0D01*
G01*
X51175000Y-69200000D01*
G75*
G02*
X51100000Y-69125000I0J75000D01*
G01*
G37*
%TD.AperFunction*%
%TO.P,U2,28*%
%TO.N,Net-(U2-Pad28)*%
%TA.AperFunction,SMDPad,CuDef*%
G36*
G01*
X51600000Y-69125000D02*
X51600000Y-67725000D01*
G75*
G02*
X51675000Y-67650000I75000J0D01*
G01*
X51825000Y-67650000D01*
G75*
G02*
X51900000Y-67725000I0J-75000D01*
G01*
X51900000Y-69125000D01*
G75*
G02*
X51825000Y-69200000I-75000J0D01*
G01*
X51675000Y-69200000D01*
G75*
G02*
X51600000Y-69125000I0J75000D01*
G01*
G37*
%TD.AperFunction*%
%TO.P,U2,29*%
%TO.N,USART3_TX*%
%TA.AperFunction,SMDPad,CuDef*%
G36*
G01*
X52100000Y-69125000D02*
X52100000Y-67725000D01*
G75*
G02*
X52175000Y-67650000I75000J0D01*
G01*
X52325000Y-67650000D01*
G75*
G02*
X52400000Y-67725000I0J-75000D01*
G01*
X52400000Y-69125000D01*
G75*
G02*
X52325000Y-69200000I-75000J0D01*
G01*
X52175000Y-69200000D01*
G75*
G02*
X52100000Y-69125000I0J75000D01*
G01*
G37*
%TD.AperFunction*%
%TO.P,U2,30*%
%TO.N,USART3_RX*%
%TA.AperFunction,SMDPad,CuDef*%
G36*
G01*
X52600000Y-69125000D02*
X52600000Y-67725000D01*
G75*
G02*
X52675000Y-67650000I75000J0D01*
G01*
X52825000Y-67650000D01*
G75*
G02*
X52900000Y-67725000I0J-75000D01*
G01*
X52900000Y-69125000D01*
G75*
G02*
X52825000Y-69200000I-75000J0D01*
G01*
X52675000Y-69200000D01*
G75*
G02*
X52600000Y-69125000I0J75000D01*
G01*
G37*
%TD.AperFunction*%
%TO.P,U2,31*%
%TO.N,Net-(C13-Pad1)*%
%TA.AperFunction,SMDPad,CuDef*%
G36*
G01*
X53100000Y-69125000D02*
X53100000Y-67725000D01*
G75*
G02*
X53175000Y-67650000I75000J0D01*
G01*
X53325000Y-67650000D01*
G75*
G02*
X53400000Y-67725000I0J-75000D01*
G01*
X53400000Y-69125000D01*
G75*
G02*
X53325000Y-69200000I-75000J0D01*
G01*
X53175000Y-69200000D01*
G75*
G02*
X53100000Y-69125000I0J75000D01*
G01*
G37*
%TD.AperFunction*%
%TO.P,U2,32*%
%TO.N,+3V3*%
%TA.AperFunction,SMDPad,CuDef*%
G36*
G01*
X53600000Y-69125000D02*
X53600000Y-67725000D01*
G75*
G02*
X53675000Y-67650000I75000J0D01*
G01*
X53825000Y-67650000D01*
G75*
G02*
X53900000Y-67725000I0J-75000D01*
G01*
X53900000Y-69125000D01*
G75*
G02*
X53825000Y-69200000I-75000J0D01*
G01*
X53675000Y-69200000D01*
G75*
G02*
X53600000Y-69125000I0J75000D01*
G01*
G37*
%TD.AperFunction*%
%TO.P,U2,33*%
%TO.N,Net-(U2-Pad33)*%
%TA.AperFunction,SMDPad,CuDef*%
G36*
G01*
X54900000Y-66575000D02*
X54900000Y-66425000D01*
G75*
G02*
X54975000Y-66350000I75000J0D01*
G01*
X56375000Y-66350000D01*
G75*
G02*
X56450000Y-66425000I0J-75000D01*
G01*
X56450000Y-66575000D01*
G75*
G02*
X56375000Y-66650000I-75000J0D01*
G01*
X54975000Y-66650000D01*
G75*
G02*
X54900000Y-66575000I0J75000D01*
G01*
G37*
%TD.AperFunction*%
%TO.P,U2,34*%
%TO.N,Net-(U2-Pad34)*%
%TA.AperFunction,SMDPad,CuDef*%
G36*
G01*
X54900000Y-66075000D02*
X54900000Y-65925000D01*
G75*
G02*
X54975000Y-65850000I75000J0D01*
G01*
X56375000Y-65850000D01*
G75*
G02*
X56450000Y-65925000I0J-75000D01*
G01*
X56450000Y-66075000D01*
G75*
G02*
X56375000Y-66150000I-75000J0D01*
G01*
X54975000Y-66150000D01*
G75*
G02*
X54900000Y-66075000I0J75000D01*
G01*
G37*
%TD.AperFunction*%
%TO.P,U2,35*%
%TO.N,Net-(U2-Pad35)*%
%TA.AperFunction,SMDPad,CuDef*%
G36*
G01*
X54900000Y-65575000D02*
X54900000Y-65425000D01*
G75*
G02*
X54975000Y-65350000I75000J0D01*
G01*
X56375000Y-65350000D01*
G75*
G02*
X56450000Y-65425000I0J-75000D01*
G01*
X56450000Y-65575000D01*
G75*
G02*
X56375000Y-65650000I-75000J0D01*
G01*
X54975000Y-65650000D01*
G75*
G02*
X54900000Y-65575000I0J75000D01*
G01*
G37*
%TD.AperFunction*%
%TO.P,U2,36*%
%TO.N,Net-(U2-Pad36)*%
%TA.AperFunction,SMDPad,CuDef*%
G36*
G01*
X54900000Y-65075000D02*
X54900000Y-64925000D01*
G75*
G02*
X54975000Y-64850000I75000J0D01*
G01*
X56375000Y-64850000D01*
G75*
G02*
X56450000Y-64925000I0J-75000D01*
G01*
X56450000Y-65075000D01*
G75*
G02*
X56375000Y-65150000I-75000J0D01*
G01*
X54975000Y-65150000D01*
G75*
G02*
X54900000Y-65075000I0J75000D01*
G01*
G37*
%TD.AperFunction*%
%TO.P,U2,37*%
%TO.N,Net-(U2-Pad37)*%
%TA.AperFunction,SMDPad,CuDef*%
G36*
G01*
X54900000Y-64575000D02*
X54900000Y-64425000D01*
G75*
G02*
X54975000Y-64350000I75000J0D01*
G01*
X56375000Y-64350000D01*
G75*
G02*
X56450000Y-64425000I0J-75000D01*
G01*
X56450000Y-64575000D01*
G75*
G02*
X56375000Y-64650000I-75000J0D01*
G01*
X54975000Y-64650000D01*
G75*
G02*
X54900000Y-64575000I0J75000D01*
G01*
G37*
%TD.AperFunction*%
%TO.P,U2,38*%
%TO.N,Net-(U2-Pad38)*%
%TA.AperFunction,SMDPad,CuDef*%
G36*
G01*
X54900000Y-64075000D02*
X54900000Y-63925000D01*
G75*
G02*
X54975000Y-63850000I75000J0D01*
G01*
X56375000Y-63850000D01*
G75*
G02*
X56450000Y-63925000I0J-75000D01*
G01*
X56450000Y-64075000D01*
G75*
G02*
X56375000Y-64150000I-75000J0D01*
G01*
X54975000Y-64150000D01*
G75*
G02*
X54900000Y-64075000I0J75000D01*
G01*
G37*
%TD.AperFunction*%
%TO.P,U2,39*%
%TO.N,Net-(U2-Pad39)*%
%TA.AperFunction,SMDPad,CuDef*%
G36*
G01*
X54900000Y-63575000D02*
X54900000Y-63425000D01*
G75*
G02*
X54975000Y-63350000I75000J0D01*
G01*
X56375000Y-63350000D01*
G75*
G02*
X56450000Y-63425000I0J-75000D01*
G01*
X56450000Y-63575000D01*
G75*
G02*
X56375000Y-63650000I-75000J0D01*
G01*
X54975000Y-63650000D01*
G75*
G02*
X54900000Y-63575000I0J75000D01*
G01*
G37*
%TD.AperFunction*%
%TO.P,U2,40*%
%TO.N,Net-(U2-Pad40)*%
%TA.AperFunction,SMDPad,CuDef*%
G36*
G01*
X54900000Y-63075000D02*
X54900000Y-62925000D01*
G75*
G02*
X54975000Y-62850000I75000J0D01*
G01*
X56375000Y-62850000D01*
G75*
G02*
X56450000Y-62925000I0J-75000D01*
G01*
X56450000Y-63075000D01*
G75*
G02*
X56375000Y-63150000I-75000J0D01*
G01*
X54975000Y-63150000D01*
G75*
G02*
X54900000Y-63075000I0J75000D01*
G01*
G37*
%TD.AperFunction*%
%TO.P,U2,41*%
%TO.N,Net-(U2-Pad41)*%
%TA.AperFunction,SMDPad,CuDef*%
G36*
G01*
X54900000Y-62575000D02*
X54900000Y-62425000D01*
G75*
G02*
X54975000Y-62350000I75000J0D01*
G01*
X56375000Y-62350000D01*
G75*
G02*
X56450000Y-62425000I0J-75000D01*
G01*
X56450000Y-62575000D01*
G75*
G02*
X56375000Y-62650000I-75000J0D01*
G01*
X54975000Y-62650000D01*
G75*
G02*
X54900000Y-62575000I0J75000D01*
G01*
G37*
%TD.AperFunction*%
%TO.P,U2,42*%
%TO.N,Net-(U2-Pad42)*%
%TA.AperFunction,SMDPad,CuDef*%
G36*
G01*
X54900000Y-62075000D02*
X54900000Y-61925000D01*
G75*
G02*
X54975000Y-61850000I75000J0D01*
G01*
X56375000Y-61850000D01*
G75*
G02*
X56450000Y-61925000I0J-75000D01*
G01*
X56450000Y-62075000D01*
G75*
G02*
X56375000Y-62150000I-75000J0D01*
G01*
X54975000Y-62150000D01*
G75*
G02*
X54900000Y-62075000I0J75000D01*
G01*
G37*
%TD.AperFunction*%
%TO.P,U2,43*%
%TO.N,Net-(U2-Pad43)*%
%TA.AperFunction,SMDPad,CuDef*%
G36*
G01*
X54900000Y-61575000D02*
X54900000Y-61425000D01*
G75*
G02*
X54975000Y-61350000I75000J0D01*
G01*
X56375000Y-61350000D01*
G75*
G02*
X56450000Y-61425000I0J-75000D01*
G01*
X56450000Y-61575000D01*
G75*
G02*
X56375000Y-61650000I-75000J0D01*
G01*
X54975000Y-61650000D01*
G75*
G02*
X54900000Y-61575000I0J75000D01*
G01*
G37*
%TD.AperFunction*%
%TO.P,U2,44*%
%TO.N,USB_D-*%
%TA.AperFunction,SMDPad,CuDef*%
G36*
G01*
X54900000Y-61075000D02*
X54900000Y-60925000D01*
G75*
G02*
X54975000Y-60850000I75000J0D01*
G01*
X56375000Y-60850000D01*
G75*
G02*
X56450000Y-60925000I0J-75000D01*
G01*
X56450000Y-61075000D01*
G75*
G02*
X56375000Y-61150000I-75000J0D01*
G01*
X54975000Y-61150000D01*
G75*
G02*
X54900000Y-61075000I0J75000D01*
G01*
G37*
%TD.AperFunction*%
%TO.P,U2,45*%
%TO.N,USB_D+*%
%TA.AperFunction,SMDPad,CuDef*%
G36*
G01*
X54900000Y-60575000D02*
X54900000Y-60425000D01*
G75*
G02*
X54975000Y-60350000I75000J0D01*
G01*
X56375000Y-60350000D01*
G75*
G02*
X56450000Y-60425000I0J-75000D01*
G01*
X56450000Y-60575000D01*
G75*
G02*
X56375000Y-60650000I-75000J0D01*
G01*
X54975000Y-60650000D01*
G75*
G02*
X54900000Y-60575000I0J75000D01*
G01*
G37*
%TD.AperFunction*%
%TO.P,U2,46*%
%TO.N,SWDIO*%
%TA.AperFunction,SMDPad,CuDef*%
G36*
G01*
X54900000Y-60075000D02*
X54900000Y-59925000D01*
G75*
G02*
X54975000Y-59850000I75000J0D01*
G01*
X56375000Y-59850000D01*
G75*
G02*
X56450000Y-59925000I0J-75000D01*
G01*
X56450000Y-60075000D01*
G75*
G02*
X56375000Y-60150000I-75000J0D01*
G01*
X54975000Y-60150000D01*
G75*
G02*
X54900000Y-60075000I0J75000D01*
G01*
G37*
%TD.AperFunction*%
%TO.P,U2,47*%
%TO.N,Net-(C14-Pad1)*%
%TA.AperFunction,SMDPad,CuDef*%
G36*
G01*
X54900000Y-59575000D02*
X54900000Y-59425000D01*
G75*
G02*
X54975000Y-59350000I75000J0D01*
G01*
X56375000Y-59350000D01*
G75*
G02*
X56450000Y-59425000I0J-75000D01*
G01*
X56450000Y-59575000D01*
G75*
G02*
X56375000Y-59650000I-75000J0D01*
G01*
X54975000Y-59650000D01*
G75*
G02*
X54900000Y-59575000I0J75000D01*
G01*
G37*
%TD.AperFunction*%
%TO.P,U2,48*%
%TO.N,+3V3*%
%TA.AperFunction,SMDPad,CuDef*%
G36*
G01*
X54900000Y-59075000D02*
X54900000Y-58925000D01*
G75*
G02*
X54975000Y-58850000I75000J0D01*
G01*
X56375000Y-58850000D01*
G75*
G02*
X56450000Y-58925000I0J-75000D01*
G01*
X56450000Y-59075000D01*
G75*
G02*
X56375000Y-59150000I-75000J0D01*
G01*
X54975000Y-59150000D01*
G75*
G02*
X54900000Y-59075000I0J75000D01*
G01*
G37*
%TD.AperFunction*%
%TO.P,U2,49*%
%TO.N,SWCLK*%
%TA.AperFunction,SMDPad,CuDef*%
G36*
G01*
X53600000Y-57775000D02*
X53600000Y-56375000D01*
G75*
G02*
X53675000Y-56300000I75000J0D01*
G01*
X53825000Y-56300000D01*
G75*
G02*
X53900000Y-56375000I0J-75000D01*
G01*
X53900000Y-57775000D01*
G75*
G02*
X53825000Y-57850000I-75000J0D01*
G01*
X53675000Y-57850000D01*
G75*
G02*
X53600000Y-57775000I0J75000D01*
G01*
G37*
%TD.AperFunction*%
%TO.P,U2,50*%
%TO.N,Net-(U2-Pad50)*%
%TA.AperFunction,SMDPad,CuDef*%
G36*
G01*
X53100000Y-57775000D02*
X53100000Y-56375000D01*
G75*
G02*
X53175000Y-56300000I75000J0D01*
G01*
X53325000Y-56300000D01*
G75*
G02*
X53400000Y-56375000I0J-75000D01*
G01*
X53400000Y-57775000D01*
G75*
G02*
X53325000Y-57850000I-75000J0D01*
G01*
X53175000Y-57850000D01*
G75*
G02*
X53100000Y-57775000I0J75000D01*
G01*
G37*
%TD.AperFunction*%
%TO.P,U2,51*%
%TO.N,Net-(U2-Pad51)*%
%TA.AperFunction,SMDPad,CuDef*%
G36*
G01*
X52600000Y-57775000D02*
X52600000Y-56375000D01*
G75*
G02*
X52675000Y-56300000I75000J0D01*
G01*
X52825000Y-56300000D01*
G75*
G02*
X52900000Y-56375000I0J-75000D01*
G01*
X52900000Y-57775000D01*
G75*
G02*
X52825000Y-57850000I-75000J0D01*
G01*
X52675000Y-57850000D01*
G75*
G02*
X52600000Y-57775000I0J75000D01*
G01*
G37*
%TD.AperFunction*%
%TO.P,U2,52*%
%TO.N,Net-(U2-Pad52)*%
%TA.AperFunction,SMDPad,CuDef*%
G36*
G01*
X52100000Y-57775000D02*
X52100000Y-56375000D01*
G75*
G02*
X52175000Y-56300000I75000J0D01*
G01*
X52325000Y-56300000D01*
G75*
G02*
X52400000Y-56375000I0J-75000D01*
G01*
X52400000Y-57775000D01*
G75*
G02*
X52325000Y-57850000I-75000J0D01*
G01*
X52175000Y-57850000D01*
G75*
G02*
X52100000Y-57775000I0J75000D01*
G01*
G37*
%TD.AperFunction*%
%TO.P,U2,53*%
%TO.N,Net-(U2-Pad53)*%
%TA.AperFunction,SMDPad,CuDef*%
G36*
G01*
X51600000Y-57775000D02*
X51600000Y-56375000D01*
G75*
G02*
X51675000Y-56300000I75000J0D01*
G01*
X51825000Y-56300000D01*
G75*
G02*
X51900000Y-56375000I0J-75000D01*
G01*
X51900000Y-57775000D01*
G75*
G02*
X51825000Y-57850000I-75000J0D01*
G01*
X51675000Y-57850000D01*
G75*
G02*
X51600000Y-57775000I0J75000D01*
G01*
G37*
%TD.AperFunction*%
%TO.P,U2,54*%
%TO.N,Net-(U2-Pad54)*%
%TA.AperFunction,SMDPad,CuDef*%
G36*
G01*
X51100000Y-57775000D02*
X51100000Y-56375000D01*
G75*
G02*
X51175000Y-56300000I75000J0D01*
G01*
X51325000Y-56300000D01*
G75*
G02*
X51400000Y-56375000I0J-75000D01*
G01*
X51400000Y-57775000D01*
G75*
G02*
X51325000Y-57850000I-75000J0D01*
G01*
X51175000Y-57850000D01*
G75*
G02*
X51100000Y-57775000I0J75000D01*
G01*
G37*
%TD.AperFunction*%
%TO.P,U2,55*%
%TO.N,SWO*%
%TA.AperFunction,SMDPad,CuDef*%
G36*
G01*
X50600000Y-57775000D02*
X50600000Y-56375000D01*
G75*
G02*
X50675000Y-56300000I75000J0D01*
G01*
X50825000Y-56300000D01*
G75*
G02*
X50900000Y-56375000I0J-75000D01*
G01*
X50900000Y-57775000D01*
G75*
G02*
X50825000Y-57850000I-75000J0D01*
G01*
X50675000Y-57850000D01*
G75*
G02*
X50600000Y-57775000I0J75000D01*
G01*
G37*
%TD.AperFunction*%
%TO.P,U2,56*%
%TO.N,Net-(U2-Pad56)*%
%TA.AperFunction,SMDPad,CuDef*%
G36*
G01*
X50100000Y-57775000D02*
X50100000Y-56375000D01*
G75*
G02*
X50175000Y-56300000I75000J0D01*
G01*
X50325000Y-56300000D01*
G75*
G02*
X50400000Y-56375000I0J-75000D01*
G01*
X50400000Y-57775000D01*
G75*
G02*
X50325000Y-57850000I-75000J0D01*
G01*
X50175000Y-57850000D01*
G75*
G02*
X50100000Y-57775000I0J75000D01*
G01*
G37*
%TD.AperFunction*%
%TO.P,U2,57*%
%TO.N,Net-(U2-Pad57)*%
%TA.AperFunction,SMDPad,CuDef*%
G36*
G01*
X49600000Y-57775000D02*
X49600000Y-56375000D01*
G75*
G02*
X49675000Y-56300000I75000J0D01*
G01*
X49825000Y-56300000D01*
G75*
G02*
X49900000Y-56375000I0J-75000D01*
G01*
X49900000Y-57775000D01*
G75*
G02*
X49825000Y-57850000I-75000J0D01*
G01*
X49675000Y-57850000D01*
G75*
G02*
X49600000Y-57775000I0J75000D01*
G01*
G37*
%TD.AperFunction*%
%TO.P,U2,58*%
%TO.N,I2C1_SCL*%
%TA.AperFunction,SMDPad,CuDef*%
G36*
G01*
X49100000Y-57775000D02*
X49100000Y-56375000D01*
G75*
G02*
X49175000Y-56300000I75000J0D01*
G01*
X49325000Y-56300000D01*
G75*
G02*
X49400000Y-56375000I0J-75000D01*
G01*
X49400000Y-57775000D01*
G75*
G02*
X49325000Y-57850000I-75000J0D01*
G01*
X49175000Y-57850000D01*
G75*
G02*
X49100000Y-57775000I0J75000D01*
G01*
G37*
%TD.AperFunction*%
%TO.P,U2,59*%
%TO.N,I2C1_SDA*%
%TA.AperFunction,SMDPad,CuDef*%
G36*
G01*
X48600000Y-57775000D02*
X48600000Y-56375000D01*
G75*
G02*
X48675000Y-56300000I75000J0D01*
G01*
X48825000Y-56300000D01*
G75*
G02*
X48900000Y-56375000I0J-75000D01*
G01*
X48900000Y-57775000D01*
G75*
G02*
X48825000Y-57850000I-75000J0D01*
G01*
X48675000Y-57850000D01*
G75*
G02*
X48600000Y-57775000I0J75000D01*
G01*
G37*
%TD.AperFunction*%
%TO.P,U2,60*%
%TO.N,BOOT0*%
%TA.AperFunction,SMDPad,CuDef*%
G36*
G01*
X48100000Y-57775000D02*
X48100000Y-56375000D01*
G75*
G02*
X48175000Y-56300000I75000J0D01*
G01*
X48325000Y-56300000D01*
G75*
G02*
X48400000Y-56375000I0J-75000D01*
G01*
X48400000Y-57775000D01*
G75*
G02*
X48325000Y-57850000I-75000J0D01*
G01*
X48175000Y-57850000D01*
G75*
G02*
X48100000Y-57775000I0J75000D01*
G01*
G37*
%TD.AperFunction*%
%TO.P,U2,61*%
%TO.N,Net-(U2-Pad61)*%
%TA.AperFunction,SMDPad,CuDef*%
G36*
G01*
X47600000Y-57775000D02*
X47600000Y-56375000D01*
G75*
G02*
X47675000Y-56300000I75000J0D01*
G01*
X47825000Y-56300000D01*
G75*
G02*
X47900000Y-56375000I0J-75000D01*
G01*
X47900000Y-57775000D01*
G75*
G02*
X47825000Y-57850000I-75000J0D01*
G01*
X47675000Y-57850000D01*
G75*
G02*
X47600000Y-57775000I0J75000D01*
G01*
G37*
%TD.AperFunction*%
%TO.P,U2,62*%
%TO.N,Net-(U2-Pad62)*%
%TA.AperFunction,SMDPad,CuDef*%
G36*
G01*
X47100000Y-57775000D02*
X47100000Y-56375000D01*
G75*
G02*
X47175000Y-56300000I75000J0D01*
G01*
X47325000Y-56300000D01*
G75*
G02*
X47400000Y-56375000I0J-75000D01*
G01*
X47400000Y-57775000D01*
G75*
G02*
X47325000Y-57850000I-75000J0D01*
G01*
X47175000Y-57850000D01*
G75*
G02*
X47100000Y-57775000I0J75000D01*
G01*
G37*
%TD.AperFunction*%
%TO.P,U2,63*%
%TO.N,GND*%
%TA.AperFunction,SMDPad,CuDef*%
G36*
G01*
X46600000Y-57775000D02*
X46600000Y-56375000D01*
G75*
G02*
X46675000Y-56300000I75000J0D01*
G01*
X46825000Y-56300000D01*
G75*
G02*
X46900000Y-56375000I0J-75000D01*
G01*
X46900000Y-57775000D01*
G75*
G02*
X46825000Y-57850000I-75000J0D01*
G01*
X46675000Y-57850000D01*
G75*
G02*
X46600000Y-57775000I0J75000D01*
G01*
G37*
%TD.AperFunction*%
%TO.P,U2,64*%
%TO.N,+3V3*%
%TA.AperFunction,SMDPad,CuDef*%
G36*
G01*
X46100000Y-57775000D02*
X46100000Y-56375000D01*
G75*
G02*
X46175000Y-56300000I75000J0D01*
G01*
X46325000Y-56300000D01*
G75*
G02*
X46400000Y-56375000I0J-75000D01*
G01*
X46400000Y-57775000D01*
G75*
G02*
X46325000Y-57850000I-75000J0D01*
G01*
X46175000Y-57850000D01*
G75*
G02*
X46100000Y-57775000I0J75000D01*
G01*
G37*
%TD.AperFunction*%
%TD*%
D26*
%TO.P,U3,5*%
%TO.N,+5V*%
X74875000Y-52575000D03*
%TO.P,U3,6*%
%TO.N,USB_D-*%
X74875000Y-53525000D03*
%TO.P,U3,4*%
%TO.N,USB_D+*%
X74875000Y-51625000D03*
%TO.P,U3,3*%
%TO.N,USB_CONN_D+*%
X77075000Y-51625000D03*
%TO.P,U3,2*%
%TO.N,GND*%
X77075000Y-52575000D03*
%TO.P,U3,1*%
%TO.N,USB_CONN_D-*%
X77075000Y-53525000D03*
%TD*%
D27*
%TO.P,Y1,1*%
%TO.N,HSE_IN*%
X37650000Y-59900000D03*
%TO.P,Y1,2*%
%TO.N,GND*%
X37650000Y-62100000D03*
%TO.P,Y1,3*%
%TO.N,Net-(C16-Pad1)*%
X39350000Y-62100000D03*
%TO.P,Y1,4*%
%TO.N,GND*%
X39350000Y-59900000D03*
%TD*%
D28*
%TO.N,GND*%
X41550000Y-55000000D03*
%TO.N,+3V3*%
X51725000Y-53250000D03*
%TO.N,GND*%
X35875000Y-54250000D03*
X47725000Y-55000000D03*
X39750000Y-58000000D03*
X37275000Y-64000000D03*
X41000000Y-63525000D03*
X42250000Y-63525000D03*
X41500000Y-67575000D03*
X45775000Y-70500000D03*
X56225000Y-70750000D03*
X56975000Y-69000000D03*
X56250000Y-55750000D03*
X58050000Y-56575000D03*
X70125000Y-41450000D03*
X80600000Y-50950000D03*
X79350000Y-50950000D03*
X79350000Y-49650000D03*
X80600000Y-49650000D03*
X67700000Y-66675000D03*
X67700000Y-67850000D03*
X72225000Y-68025000D03*
X74375000Y-68000000D03*
X75450000Y-62850000D03*
X75450000Y-64650000D03*
X77000000Y-72600000D03*
X77925000Y-73500000D03*
X76175000Y-70175000D03*
X75250000Y-69275000D03*
X67375000Y-76375000D03*
X67375000Y-78075000D03*
X67375000Y-79175000D03*
X67375000Y-80875000D03*
X70500000Y-74300000D03*
X70500000Y-75300000D03*
X70500000Y-72400000D03*
X41475000Y-58025000D03*
X40625000Y-59900000D03*
X36375000Y-62100000D03*
X76025000Y-50425000D03*
X63500000Y-37400000D03*
X62250000Y-37400000D03*
X59700000Y-37400000D03*
%TO.N,+3V3*%
X47025000Y-53250000D03*
X44000000Y-54075000D03*
X35875000Y-49750000D03*
X70100000Y-39250000D03*
X54675000Y-69600000D03*
X48250000Y-70500000D03*
X39000000Y-65725000D03*
X39025000Y-67275000D03*
X42250000Y-59750000D03*
X46000000Y-54225000D03*
X61775000Y-74575000D03*
X61775000Y-73375000D03*
X65200000Y-73375000D03*
X65200000Y-74575000D03*
X62425000Y-77250000D03*
X64600000Y-77250000D03*
X62425000Y-80000000D03*
X64600000Y-80000000D03*
X72550000Y-75075000D03*
X73500000Y-75975000D03*
X55650000Y-58050000D03*
X64800000Y-37350000D03*
%TO.N,NRST*%
X52550000Y-58950000D03*
X53500000Y-51000000D03*
%TD*%
D29*
%TO.N,BUCK_IN*%
X70500000Y-65750000D02*
X70500000Y-68000000D01*
D30*
X73500000Y-70175000D02*
X73425000Y-70175000D01*
X73425000Y-70175000D02*
X73000000Y-69750000D01*
X71000000Y-69750000D02*
X70500000Y-70250000D01*
X73000000Y-69750000D02*
X71000000Y-69750000D01*
X70500000Y-71150000D02*
X70500000Y-70250000D01*
X70500000Y-70250000D02*
X70500000Y-68000000D01*
D31*
%TO.N,GND*%
X46750000Y-55220000D02*
X46970000Y-55000000D01*
X46750000Y-57075000D02*
X46750000Y-55220000D01*
X42485000Y-64500000D02*
X42250000Y-64265000D01*
X44325000Y-64500000D02*
X42485000Y-64500000D01*
X46750000Y-70280000D02*
X46530000Y-70500000D01*
X46750000Y-68425000D02*
X46750000Y-70280000D01*
X37650000Y-63635000D02*
X38015000Y-64000000D01*
X37650000Y-62100000D02*
X37650000Y-63635000D01*
X39350000Y-58365000D02*
X38985000Y-58000000D01*
X39350000Y-59900000D02*
X39350000Y-58365000D01*
D30*
X70500000Y-72400000D02*
X70500000Y-75300000D01*
X77000000Y-73487500D02*
X77000000Y-72600000D01*
X77912500Y-73487500D02*
X77925000Y-73500000D01*
X77000000Y-73487500D02*
X77912500Y-73487500D01*
X75250000Y-70175000D02*
X75250000Y-69275000D01*
X75250000Y-70175000D02*
X76175000Y-70175000D01*
X74350000Y-68025000D02*
X74375000Y-68000000D01*
X72225000Y-68025000D02*
X74350000Y-68025000D01*
X75450000Y-62850000D02*
X75450000Y-64650000D01*
D29*
X67175000Y-76375000D02*
X66300000Y-77250000D01*
X67375000Y-76375000D02*
X67175000Y-76375000D01*
X67125000Y-78075000D02*
X66300000Y-77250000D01*
X67375000Y-78075000D02*
X67125000Y-78075000D01*
X67375000Y-76375000D02*
X67375000Y-78075000D01*
X67125000Y-79175000D02*
X66300000Y-80000000D01*
X67375000Y-79175000D02*
X67125000Y-79175000D01*
X67375000Y-79175000D02*
X67375000Y-80875000D01*
X67175000Y-80875000D02*
X66300000Y-80000000D01*
X67375000Y-80875000D02*
X67175000Y-80875000D01*
X67375000Y-78075000D02*
X67375000Y-79175000D01*
X67700000Y-66675000D02*
X67700000Y-67850000D01*
X67375000Y-66675000D02*
X66800000Y-67250000D01*
X67700000Y-66675000D02*
X67375000Y-66675000D01*
X67400000Y-67850000D02*
X66800000Y-67250000D01*
X67700000Y-67850000D02*
X67400000Y-67850000D01*
D32*
X41000000Y-64280000D02*
X41000000Y-63525000D01*
X42250000Y-64265000D02*
X42250000Y-63525000D01*
X41480000Y-58030000D02*
X41475000Y-58025000D01*
X42250000Y-58030000D02*
X41480000Y-58030000D01*
X39750000Y-58000000D02*
X38985000Y-58000000D01*
X40625000Y-59900000D02*
X39350000Y-59900000D01*
X37650000Y-62100000D02*
X36375000Y-62100000D01*
X42425000Y-55000000D02*
X41550000Y-55000000D01*
X35875000Y-54250000D02*
X34680000Y-54250000D01*
X46970000Y-55000000D02*
X47725000Y-55000000D01*
X56250000Y-56500000D02*
X56250000Y-55750000D01*
X58037500Y-56587500D02*
X58050000Y-56575000D01*
X58037500Y-57462500D02*
X58037500Y-56587500D01*
X71025000Y-41450000D02*
X70125000Y-41450000D01*
X46530000Y-70500000D02*
X45775000Y-70500000D01*
X41500000Y-68462500D02*
X41500000Y-67575000D01*
X38015000Y-64000000D02*
X37275000Y-64000000D01*
X81900000Y-50950000D02*
X80600000Y-50950000D01*
D30*
X80600000Y-50950000D02*
X79350000Y-50950000D01*
X79350000Y-49650000D02*
X79350000Y-50950000D01*
X80600000Y-49650000D02*
X80600000Y-50950000D01*
X79350000Y-50900000D02*
X80600000Y-49650000D01*
X79350000Y-50950000D02*
X79350000Y-50900000D01*
X79350000Y-49650000D02*
X80600000Y-49650000D01*
D33*
X77075000Y-52575000D02*
X76525000Y-52575000D01*
X76525000Y-52575000D02*
X76025000Y-52075000D01*
X76025000Y-52075000D02*
X76025000Y-50425000D01*
D32*
X56220000Y-69000000D02*
X56975000Y-69000000D01*
X55325000Y-70750000D02*
X56225000Y-70750000D01*
X63520000Y-37420000D02*
X63500000Y-37400000D01*
X63520000Y-39050000D02*
X63520000Y-37420000D01*
X62250000Y-39050000D02*
X62250000Y-37400000D01*
X59710000Y-37410000D02*
X59700000Y-37400000D01*
X59710000Y-39050000D02*
X59710000Y-37410000D01*
D31*
%TO.N,+3V3*%
X46250000Y-55250000D02*
X46000000Y-55000000D01*
X46250000Y-57075000D02*
X46250000Y-55250000D01*
X44325000Y-59000000D02*
X42250000Y-59000000D01*
X47250000Y-70250000D02*
X47500000Y-70500000D01*
X47250000Y-68425000D02*
X47250000Y-70250000D01*
X54675000Y-68425000D02*
X55250000Y-69000000D01*
X53750000Y-68425000D02*
X54675000Y-68425000D01*
X56250000Y-58425000D02*
X55675000Y-59000000D01*
X56250000Y-57470000D02*
X56250000Y-58425000D01*
D32*
X46000000Y-55000000D02*
X44000000Y-55000000D01*
D29*
X63500000Y-74300000D02*
X63500000Y-80000000D01*
D32*
X47780000Y-53250000D02*
X47025000Y-53250000D01*
X46000000Y-55000000D02*
X46000000Y-54225000D01*
X44000000Y-55000000D02*
X44000000Y-54075000D01*
X50970000Y-53250000D02*
X51725000Y-53250000D01*
X71000000Y-39250000D02*
X70100000Y-39250000D01*
X34680000Y-49750000D02*
X35875000Y-49750000D01*
X42250000Y-59000000D02*
X42250000Y-59750000D01*
X39015000Y-65740000D02*
X39000000Y-65725000D01*
X39015000Y-66500000D02*
X39015000Y-65740000D01*
X39015000Y-67265000D02*
X39025000Y-67275000D01*
X39015000Y-66500000D02*
X39015000Y-67265000D01*
X47500000Y-70500000D02*
X48250000Y-70500000D01*
X55250000Y-69025000D02*
X54675000Y-69600000D01*
X55250000Y-69000000D02*
X55250000Y-69025000D01*
D29*
X62700000Y-74300000D02*
X61775000Y-73375000D01*
X63500000Y-74300000D02*
X62700000Y-74300000D01*
X62050000Y-74300000D02*
X61775000Y-74575000D01*
X63500000Y-74300000D02*
X62050000Y-74300000D01*
X64275000Y-74300000D02*
X65200000Y-73375000D01*
X63500000Y-74300000D02*
X64275000Y-74300000D01*
X64925000Y-74300000D02*
X65200000Y-74575000D01*
X63500000Y-74300000D02*
X64925000Y-74300000D01*
X61775000Y-73375000D02*
X61775000Y-74575000D01*
X65200000Y-73375000D02*
X65200000Y-74575000D01*
X61775000Y-73375000D02*
X65200000Y-73375000D01*
X61775000Y-74575000D02*
X65200000Y-74575000D01*
X62425000Y-77250000D02*
X64600000Y-77250000D01*
X62425000Y-80000000D02*
X64600000Y-80000000D01*
D30*
X73500000Y-75075000D02*
X72550000Y-75075000D01*
X73500000Y-75075000D02*
X73500000Y-75975000D01*
D32*
X56230000Y-57470000D02*
X55650000Y-58050000D01*
X56250000Y-57470000D02*
X56230000Y-57470000D01*
X64790000Y-37360000D02*
X64800000Y-37350000D01*
X64790000Y-39050000D02*
X64790000Y-37360000D01*
D30*
%TO.N,BUCK_SW*%
X67812500Y-71150000D02*
X67500000Y-71462500D01*
X69550000Y-71150000D02*
X67812500Y-71150000D01*
D29*
X64762500Y-71462500D02*
X63500000Y-70200000D01*
X67500000Y-71462500D02*
X64762500Y-71462500D01*
X63500000Y-70200000D02*
X63500000Y-67250000D01*
D30*
%TO.N,BUCK_BST*%
X67812500Y-73350000D02*
X67500000Y-73037500D01*
X69550000Y-73350000D02*
X67812500Y-73350000D01*
D31*
%TO.N,+3.3VA*%
X42485000Y-65000000D02*
X42250000Y-65235000D01*
X44325000Y-65000000D02*
X42485000Y-65000000D01*
D32*
X39985000Y-66500000D02*
X40500000Y-66500000D01*
X41000000Y-66000000D02*
X41000000Y-65250000D01*
X40500000Y-66500000D02*
X41000000Y-66000000D01*
X42235000Y-65250000D02*
X42250000Y-65235000D01*
X41000000Y-65250000D02*
X42235000Y-65250000D01*
D31*
%TO.N,Net-(C13-Pad1)*%
X53250000Y-70250000D02*
X53750000Y-70750000D01*
X53250000Y-68425000D02*
X53250000Y-70250000D01*
%TO.N,Net-(C14-Pad1)*%
X57575000Y-59500000D02*
X58037500Y-59037500D01*
X55675000Y-59500000D02*
X57575000Y-59500000D01*
%TO.N,HSE_IN*%
X44325000Y-61000000D02*
X38250000Y-61000000D01*
X37650000Y-60400000D02*
X37650000Y-59900000D01*
X38250000Y-61000000D02*
X37650000Y-60400000D01*
X37650000Y-58365000D02*
X38015000Y-58000000D01*
X37650000Y-59900000D02*
X37650000Y-58365000D01*
%TO.N,Net-(C16-Pad1)*%
X39350000Y-63635000D02*
X38985000Y-64000000D01*
X39350000Y-62100000D02*
X39350000Y-63635000D01*
X39700000Y-61750000D02*
X39350000Y-62100000D01*
X41280000Y-61750000D02*
X39700000Y-61750000D01*
D32*
%TO.N,+5V*%
X81900000Y-53550000D02*
X80200000Y-53550000D01*
X78800000Y-54950000D02*
X78800000Y-61250000D01*
X80200000Y-53550000D02*
X78800000Y-54950000D01*
D33*
X75500002Y-52575000D02*
X74875000Y-52575000D01*
X75975000Y-53049998D02*
X75500002Y-52575000D01*
X75975000Y-54550000D02*
X75975000Y-53049998D01*
X76375000Y-54950000D02*
X75975000Y-54550000D01*
X78800000Y-54950000D02*
X76375000Y-54950000D01*
D29*
%TO.N,Net-(D1-Pad1)*%
X73300000Y-63500000D02*
X73550000Y-63750000D01*
X73300000Y-61250000D02*
X73300000Y-63500000D01*
X73300000Y-61250000D02*
X75500000Y-61250000D01*
D32*
%TO.N,Net-(D3-Pad1)*%
X72575000Y-41425000D02*
X72600000Y-41450000D01*
X72575000Y-39250000D02*
X72575000Y-41425000D01*
%TO.N,Net-(D4-Pad1)*%
X43500000Y-70037500D02*
X41500000Y-70037500D01*
D31*
%TO.N,LED_STATUS*%
X44325000Y-67637500D02*
X43500000Y-68462500D01*
X44325000Y-66500000D02*
X44325000Y-67637500D01*
D29*
%TO.N,Net-(F1-Pad1)*%
X70500000Y-61250000D02*
X70500000Y-63875000D01*
%TO.N,+12V*%
X79250000Y-70500000D02*
X74500000Y-65750000D01*
X81250000Y-70500000D02*
X79250000Y-70500000D01*
D31*
%TO.N,SWDIO*%
X64790000Y-45210000D02*
X64790000Y-42950000D01*
X54750000Y-55250000D02*
X64790000Y-45210000D01*
X54000000Y-59750000D02*
X54000000Y-58750000D01*
X54250000Y-60000000D02*
X54000000Y-59750000D01*
X55675000Y-60000000D02*
X54250000Y-60000000D01*
X54000000Y-58750000D02*
X54750000Y-58000000D01*
X54750000Y-58000000D02*
X54750000Y-55250000D01*
%TO.N,SWCLK*%
X53750000Y-57075000D02*
X53750000Y-54750000D01*
X63520000Y-44980000D02*
X63520000Y-42950000D01*
X53750000Y-54750000D02*
X63520000Y-44980000D01*
%TO.N,SWO*%
X62250000Y-44500000D02*
X62250000Y-42950000D01*
X50750000Y-57075000D02*
X50750000Y-56000000D01*
X50750000Y-56000000D02*
X62250000Y-44500000D01*
%TO.N,NRST*%
X44325000Y-62000000D02*
X49500000Y-62000000D01*
X49500000Y-62000000D02*
X52550000Y-58950000D01*
X53500000Y-51000000D02*
X59700000Y-44800000D01*
X59700000Y-42960000D02*
X59710000Y-42950000D01*
X59700000Y-44800000D02*
X59700000Y-42960000D01*
%TO.N,I2C1_SDA*%
X48750000Y-51250000D02*
X48750000Y-41000000D01*
X48750000Y-51250000D02*
X48750000Y-53250000D01*
X48750000Y-57075000D02*
X48750000Y-53250000D01*
%TO.N,I2C1_SCL*%
X49250000Y-57075000D02*
X49250000Y-55750000D01*
X49250000Y-55750000D02*
X50000000Y-55000000D01*
X50000000Y-51250000D02*
X50000000Y-41000000D01*
X50000000Y-55000000D02*
X50000000Y-53250000D01*
X50000000Y-51250000D02*
X50000000Y-53250000D01*
%TO.N,USART3_TX*%
X52250000Y-68425000D02*
X52250000Y-69500000D01*
X48750000Y-73000000D02*
X48750000Y-81000000D01*
X52250000Y-69500000D02*
X48750000Y-73000000D01*
%TO.N,USART3_RX*%
X52750000Y-68425000D02*
X52750000Y-70750000D01*
X50000000Y-73500000D02*
X50000000Y-81000000D01*
X52750000Y-70750000D02*
X50000000Y-73500000D01*
D34*
%TO.N,USB_CONN_D-*%
X77870001Y-53525000D02*
X77075000Y-53525000D01*
X81900000Y-52900000D02*
X80887499Y-52900000D01*
X78587845Y-52807156D02*
X77870001Y-53525000D01*
X80887499Y-52900000D02*
X80794655Y-52807156D01*
X80794655Y-52807156D02*
X78587845Y-52807156D01*
%TO.N,USB_CONN_D+*%
X80887499Y-52250000D02*
X80794655Y-52342844D01*
X77870001Y-51625000D02*
X77075000Y-51625000D01*
X81900000Y-52250000D02*
X80887499Y-52250000D01*
X80794655Y-52342844D02*
X78587845Y-52342844D01*
X78587845Y-52342844D02*
X77870001Y-51625000D01*
D33*
%TO.N,Net-(J5-Pad6)*%
X84475000Y-55450000D02*
X84575000Y-55550000D01*
X82125000Y-55450000D02*
X84475000Y-55450000D01*
X84575000Y-55550000D02*
X84575000Y-48950000D01*
X82225000Y-48950000D02*
X82125000Y-49050000D01*
X84575000Y-48950000D02*
X82225000Y-48950000D01*
D30*
%TO.N,BUCK_EN*%
X72050000Y-71750000D02*
X71450000Y-71150000D01*
X75250000Y-71750000D02*
X72050000Y-71750000D01*
%TO.N,BUCK_FB*%
X71600000Y-73500000D02*
X71450000Y-73350000D01*
X73500000Y-73500000D02*
X71600000Y-73500000D01*
X75250000Y-73500000D02*
X73500000Y-73500000D01*
%TO.N,Net-(R4-Pad2)*%
X75262500Y-75062500D02*
X75250000Y-75075000D01*
X77000000Y-75062500D02*
X75262500Y-75062500D01*
D31*
%TO.N,BOOT0*%
X48250000Y-57075000D02*
X48250000Y-58275000D01*
X48250000Y-58275000D02*
X47875000Y-58650000D01*
X47875000Y-58650000D02*
X45875000Y-58650000D01*
X45875000Y-58650000D02*
X43875000Y-56650000D01*
X43875000Y-56650000D02*
X40750000Y-56650000D01*
X37720000Y-53620000D02*
X37720000Y-52750000D01*
X40750000Y-56650000D02*
X37720000Y-53620000D01*
%TO.N,Net-(R7-Pad1)*%
X36750000Y-52750000D02*
X34680000Y-52750000D01*
%TO.N,HSE_OUT*%
X42500000Y-61500000D02*
X42250000Y-61750000D01*
X44325000Y-61500000D02*
X42500000Y-61500000D01*
D34*
%TO.N,USB_D-*%
X55675000Y-61000000D02*
X55692844Y-60982156D01*
X55692844Y-60982156D02*
X61596164Y-60982156D01*
X69771164Y-52807156D02*
X73362155Y-52807156D01*
X61596164Y-60982156D02*
X69771164Y-52807156D01*
X74079999Y-53525000D02*
X74875000Y-53525000D01*
X73362155Y-52807156D02*
X74079999Y-53525000D01*
%TO.N,USB_D+*%
X61403836Y-60517844D02*
X69578836Y-52342844D01*
X55692844Y-60517844D02*
X61403836Y-60517844D01*
X55675000Y-60500000D02*
X55692844Y-60517844D01*
X73362155Y-52342844D02*
X74079999Y-51625000D01*
X69578836Y-52342844D02*
X73362155Y-52342844D01*
X74079999Y-51625000D02*
X74875000Y-51625000D01*
%TD*%
M02*
